<?xml version="1.0" standalone="no"?>
<!DOCTYPE svg PUBLIC "-//W3C//DTD SVG 1.1//EN" "http://www.w3.org/Graphics/SVG/1.1/DTD/svg11.dtd" >
<svg>
<metadata>
Created by FontForge 20120731 at Thu Jun  2 10:27:12 2016
 By www
Copyright 2015 Dalton Maag Ltd. Modification of this file requires prior written permission from Dalton Maag Ltd.
</metadata>
<defs>
<font id="ObjektivMk3W03-Regular" horiz-adv-x="382" >
  <font-face 
    font-family="ObjektivMk3W03-Regular"
    font-weight="400"
    font-stretch="normal"
    units-per-em="1000"
    panose-1="2 11 5 2 2 2 4 2 2 3"
    ascent="800"
    descent="-200"
    x-height="500"
    cap-height="760"
    bbox="-239 -299 1329 1066"
    underline-thickness="50"
    underline-position="-125"
    unicode-range="U+0008-FEFF"
  />
<missing-glyph horiz-adv-x="500" 
d="M50 750h400v-750h-400v750zM400 50v650h-300v-650h300z" />
    <glyph glyph-name=".notdef" horiz-adv-x="500" 
d="M50 750h400v-750h-400v750zM400 50v650h-300v-650h300z" />
    <glyph glyph-name=".null" horiz-adv-x="0" 
 />
    <glyph glyph-name="nonmarkingreturn" horiz-adv-x="333" 
 />
    <glyph glyph-name="uni0008" horiz-adv-x="0" 
 />
    <glyph glyph-name="uni0008" horiz-adv-x="0" 
 />
    <glyph glyph-name="uni0008" horiz-adv-x="0" 
 />
    <glyph glyph-name="uni0009" unicode="&#x9;" horiz-adv-x="225" 
 />
    <glyph glyph-name="uni0009" unicode="&#xd;" horiz-adv-x="225" 
 />
    <glyph glyph-name="space" unicode=" " horiz-adv-x="225" 
 />
    <glyph glyph-name="exclam" unicode="!" horiz-adv-x="310" 
d="M111 790h89l-5 -547h-79zM155 -6q-28 0 -46.5 18.5t-18.5 46.5t18.5 46.5t46.5 18.5t46.5 -18.5t18.5 -46.5t-18.5 -46.5t-46.5 -18.5z" />
    <glyph glyph-name="quotedbl" unicode="&#x22;" horiz-adv-x="355" 
d="M45 760h91l-9 -291h-73zM219 760h91l-9 -291h-73z" />
    <glyph glyph-name="numbersign" unicode="#" horiz-adv-x="680" 
d="M150 172h-98v71h114l43 191h-120v71h136l39 172h73l-38 -172h155l38 172h74l-39 -172h101v-71h-117l-43 -191h123v-71h-139l-38 -172h-73l38 172h-155l-38 -172h-74zM395 243l43 191h-155l-43 -191h155z" />
    <glyph glyph-name="dollar" unicode="$" horiz-adv-x="620" 
d="M273 -130v117q-109 2 -191 48l9 77q82 -51 182 -53v296q-103 40 -147 88t-44 119q0 79 51 131t140 63v120h63v-118q95 -5 162 -46l-12 -72q-72 42 -150 46v-271q105 -41 153.5 -94t48.5 -127q0 -80 -54.5 -134.5t-147.5 -68.5v-121h-63zM336 64q56 11 87.5 45t31.5 84
q0 48 -27.5 80t-91.5 59v-268zM273 684q-54 -7 -83 -36.5t-29 -78.5t26 -79.5t86 -53.5v248z" />
    <glyph glyph-name="percent" unicode="%" horiz-adv-x="951" 
d="M244 448q50 0 81.5 33.5t31.5 87.5t-31.5 87.5t-81.5 33.5t-81.5 -33.5t-31.5 -87.5t31.5 -87.5t81.5 -33.5zM244 378q-51 0 -94 24t-69 68t-26 99q0 51 24 94.5t67.5 70t97.5 26.5q51 0 94 -24t69 -68t26 -99q0 -51 -24 -94.5t-67.5 -70t-97.5 -26.5zM707 744h89
l-556 -744h-89zM707 60q50 0 81.5 33.5t31.5 87.5t-31.5 87.5t-81.5 33.5t-81.5 -33.5t-31.5 -87.5t31.5 -87.5t81.5 -33.5zM707 -10q-51 0 -94 24t-69 68t-26 99q0 51 24 94.5t67.5 70t97.5 26.5q51 0 94 -24t69 -68t26 -99q0 -51 -24 -94.5t-67.5 -70t-97.5 -26.5z" />
    <glyph glyph-name="ampersand" unicode="&#x26;" horiz-adv-x="736" 
d="M315 -16q-72 0 -130 25.5t-91.5 73t-33.5 109.5q0 67 41 120t128 98q-55 66 -74.5 106.5t-19.5 88.5t23 87.5t66.5 62.5t99.5 23q81 0 133.5 -47.5t52.5 -120.5q0 -62 -40.5 -115t-125.5 -99l191 -215q52 82 54 207l73 -7q-2 -74 -21.5 -139.5t-55.5 -116.5l111 -125
h-106l-58 65q-89 -81 -217 -81zM318 59q97 0 166 60l-212 241q-129 -69 -129 -163q0 -40 21.5 -71t61.5 -49t92 -18zM301 446q68 38 98.5 76t30.5 84q0 48 -29 76t-78 28t-78.5 -27.5t-29.5 -72.5q0 -38 17 -70.5t69 -93.5z" />
    <glyph glyph-name="quotesingle" unicode="'" horiz-adv-x="181" 
d="M45 760h91l-9 -291h-73z" />
    <glyph glyph-name="parenleft" unicode="(" horiz-adv-x="397" 
d="M272 -133q-55 47 -98.5 122t-68.5 167.5t-25 186.5q0 140 53.5 272.5t138.5 204.5h105q-101 -83 -156 -207t-55 -270q0 -144 55 -268.5t156 -207.5h-105z" />
    <glyph glyph-name="parenright" unicode=")" horiz-adv-x="397" 
d="M20 -133q101 83 156 207t55 270q0 144 -55 268.5t-156 207.5h105q55 -47 98.5 -122t68.5 -167.5t25 -186.5q0 -140 -53.5 -272.5t-138.5 -204.5h-105z" />
    <glyph glyph-name="asterisk" unicode="*" horiz-adv-x="461" 
d="M79 424l106 125l-150 45l29 73l137 -59l-11 152h81l-11 -152l137 59l29 -73l-149 -45l106 -125l-64 -46l-88 131l-88 -131z" />
    <glyph glyph-name="plus" unicode="+" horiz-adv-x="620" 
d="M269 295h-186v78h186v198h82v-198h186v-78h-186v-198h-82v198z" />
    <glyph glyph-name="comma" unicode="," horiz-adv-x="290" 
d="M14 -181q42 58 66.5 139t24.5 160h97q0 -51 -14.5 -108.5t-40.5 -109t-57 -81.5h-76z" />
    <glyph glyph-name="hyphen" unicode="-" horiz-adv-x="443" 
d="M75 330h293v-85h-293v85z" />
    <glyph glyph-name="period" unicode="." horiz-adv-x="290" 
d="M145 -6q-28 0 -46.5 18.5t-18.5 46.5t18.5 46.5t46.5 18.5t46.5 -18.5t18.5 -46.5t-18.5 -46.5t-46.5 -18.5z" />
    <glyph glyph-name="slash" unicode="/" horiz-adv-x="507" 
d="M400 810h90l-383 -943h-90z" />
    <glyph glyph-name="zero" unicode="0" horiz-adv-x="620" 
d="M310 61q80 0 123.5 80.5t43.5 230.5t-43.5 230.5t-123.5 80.5t-123.5 -80.5t-43.5 -230.5t43.5 -230.5t123.5 -80.5zM310 -16q-119 0 -188.5 104t-69.5 284t69.5 284t188.5 104t188.5 -104t69.5 -284t-69.5 -284t-188.5 -104z" />
    <glyph glyph-name="one" unicode="1" horiz-adv-x="620" 
d="M306 650l-203 -93l-12 79l235 108h67v-744h-87v650z" />
    <glyph glyph-name="two" unicode="2" horiz-adv-x="620" 
d="M84 0v74q127 124 185 194q91 107 124.5 168t33.5 118q0 60 -35.5 94.5t-97.5 34.5q-53 0 -101 -24.5t-82 -68.5l-18 81q37 42 92.5 65.5t117.5 23.5q96 0 154 -53t58 -142q0 -73 -39.5 -148t-132.5 -179q-83 -91 -152 -157h344v-81h-451z" />
    <glyph glyph-name="three" unicode="3" horiz-adv-x="620" 
d="M271 -16q-52 0 -102.5 12.5t-84.5 34.5l8 78q79 -50 182 -50q81 0 128 42t47 114q0 70 -46 110.5t-126 40.5q-30 0 -65 -8l-24 53l229 255h-324v78h421v-74l-212 -236q69 -1 121.5 -27.5t82 -75t29.5 -114.5q0 -109 -70 -171t-194 -62z" />
    <glyph glyph-name="four" unicode="4" horiz-adv-x="620" 
d="M387 190h-338v72l335 482h86v-481h102v-73h-102v-190h-83v190zM387 263v365l-256 -365h256z" />
    <glyph glyph-name="five" unicode="5" horiz-adv-x="620" 
d="M267 -16q-52 0 -104.5 13.5t-81.5 34.5l8 79q36 -24 84 -37.5t95 -13.5q85 0 135 44.5t50 121.5q0 74 -53 117.5t-144 43.5q-30 0 -70.5 -5t-71.5 -13l12 375h366v-81h-291l-7 -209q45 8 80 8q122 0 193.5 -63t71.5 -171q0 -110 -74.5 -177t-197.5 -67z" />
    <glyph glyph-name="six" unicode="6" horiz-adv-x="620" 
d="M310 -16q-69 0 -122.5 30t-84.5 86t-31 131q0 122 77.5 264t203.5 251l105 -5q-207 -175 -273 -351q59 65 154 65q61 0 111 -29t80 -81.5t30 -118.5q0 -68 -31 -122.5t-88 -87t-131 -32.5zM314 56q70 0 115.5 46t45.5 117q0 74 -44 119t-117 45q-70 0 -115.5 -46.5
t-45.5 -117.5t45.5 -117t115.5 -46z" />
    <glyph glyph-name="seven" unicode="7" horiz-adv-x="620" 
d="M168 3l285 658h-375v83h463v-78l-285 -668z" />
    <glyph glyph-name="eight" unicode="8" horiz-adv-x="620" 
d="M309 -16q-71 0 -127 26t-88.5 74.5t-32.5 111.5q0 71 38.5 122.5t104.5 70.5q-58 19 -90.5 65t-32.5 108q0 56 28.5 101t81 71t120.5 26q64 0 115.5 -24t82 -69t30.5 -104q0 -63 -33 -109t-91 -65q66 -18 105 -70t39 -123q0 -60 -30.5 -108t-87.5 -76t-132 -28zM310 58
q74 0 118.5 40t44.5 106t-44.5 106.5t-118.5 40.5t-118.5 -40.5t-44.5 -106.5t44.5 -106t118.5 -40zM310 423q66 0 106 36.5t40 96.5t-40.5 97t-105.5 37t-105.5 -37t-40.5 -97t40 -96.5t106 -36.5z" />
    <glyph glyph-name="nine" unicode="9" horiz-adv-x="620" 
d="M162 3q207 176 273 351q-59 -65 -154 -65q-61 0 -111 29t-80 81.5t-30 118.5q0 68 31 122.5t88 87t131 32.5q69 0 122.5 -30t84.5 -86t31 -131q0 -122 -77.5 -264t-203.5 -251zM306 361q70 0 115.5 46.5t45.5 117.5t-45.5 117t-115.5 46t-115.5 -46t-45.5 -117
q0 -74 44 -119t117 -45z" />
    <glyph glyph-name="colon" unicode=":" horiz-adv-x="290" 
d="M145 -6q-28 0 -46.5 18.5t-18.5 46.5t18.5 46.5t46.5 18.5t46.5 -18.5t18.5 -46.5t-18.5 -46.5t-46.5 -18.5zM145 376q-28 0 -46.5 18.5t-18.5 46.5t18.5 46.5t46.5 18.5t46.5 -18.5t18.5 -46.5t-18.5 -46.5t-46.5 -18.5z" />
    <glyph glyph-name="semicolon" unicode=";" horiz-adv-x="290" 
d="M14 -181q42 58 66.5 139t24.5 160h97q0 -51 -14.5 -108.5t-40.5 -109t-57 -81.5h-76zM145 376q-28 0 -46.5 18.5t-18.5 46.5t18.5 46.5t46.5 18.5t46.5 -18.5t18.5 -46.5t-18.5 -46.5t-46.5 -18.5z" />
    <glyph glyph-name="less" unicode="&#x3c;" horiz-adv-x="620" 
d="M95 300v85l429 187v-83l-336 -145l336 -145v-86z" />
    <glyph glyph-name="equal" unicode="=" horiz-adv-x="620" 
d="M101 490h418v-78h-418v78zM101 255h418v-78h-418v78z" />
    <glyph glyph-name="greater" unicode="&#x3e;" horiz-adv-x="620" 
d="M96 199l336 145l-336 145v83l429 -187v-85l-429 -187v86z" />
    <glyph glyph-name="question" unicode="?" horiz-adv-x="465" 
d="M159 243q-1 8 -2 17t-1 17q0 45 13.5 79.5t35 61t45 49t45 45t35 47.5t13.5 57q0 49 -34.5 77.5t-92.5 28.5q-99 0 -180 -91l-21 74q33 43 90 68.5t119 25.5q92 0 149 -51t57 -132q0 -42 -14 -73.5t-36.5 -57t-47 -49t-47 -48.5t-36.5 -55.5t-14 -71.5q0 -11 1 -18h-77z
M195 -6q-28 0 -46.5 18.5t-18.5 46.5t18.5 46.5t46.5 18.5t46.5 -18.5t18.5 -46.5t-18.5 -46.5t-46.5 -18.5z" />
    <glyph glyph-name="at" unicode="@" horiz-adv-x="1000" 
d="M486 -230q-126 0 -224.5 50.5t-155 145t-56.5 219.5q0 126 62.5 234.5t175.5 175.5t253 67q117 0 210.5 -47t148.5 -134t55 -201q0 -79 -27.5 -145.5t-78 -107t-114.5 -40.5q-53 0 -86 23t-40 65q-23 -40 -65 -64t-87 -24q-50 0 -90.5 24t-64 69.5t-23.5 104.5
q0 66 27.5 122.5t78 91.5t112.5 35q50 0 88.5 -26t52.5 -69l17 79h71l-45 -272q-3 -21 -3 -36q0 -31 13.5 -45t44.5 -14q39 0 72 27.5t53 78t20 113.5q0 95 -41 168t-118.5 113.5t-183.5 40.5q-113 0 -207 -50.5t-150.5 -144t-56.5 -211.5q0 -102 43.5 -180t126 -122
t193.5 -44q109 0 212 47l5 -71q-103 -46 -218 -46zM477 57q64 0 104 47.5t40 123.5q0 65 -31.5 100.5t-89.5 35.5q-64 0 -104 -47.5t-40 -123.5q0 -65 31.5 -100.5t89.5 -35.5z" />
    <glyph glyph-name="A" unicode="A" horiz-adv-x="767" 
d="M334 760h99l309 -760h-97l-91 230h-347l-90 -230h-92zM525 305l-144 367l-144 -367h288z" />
    <glyph glyph-name="B" unicode="B" horiz-adv-x="703" 
d="M105 760h266q107 0 167.5 -51t60.5 -141q0 -56 -31.5 -99.5t-85.5 -63.5q72 -14 114 -65t42 -122q0 -103 -68 -160.5t-189 -57.5h-276v760zM191 74h195q76 0 118.5 37.5t42.5 106.5q0 71 -44.5 107t-130.5 36h-181v-287zM191 433h164q80 0 117.5 33t37.5 102
q0 57 -38.5 87.5t-112.5 30.5h-168v-253z" />
    <glyph glyph-name="C" unicode="C" horiz-adv-x="766" 
d="M451 -11q-111 0 -201 47.5t-142.5 136t-52.5 201.5q0 112 50 202t143 142.5t214 52.5q59 0 122.5 -17t110.5 -46l-16 -81q-67 34 -119.5 48t-107.5 14q-87 0 -155 -38t-107.5 -108.5t-39.5 -163.5q0 -91 36.5 -160.5t106 -108.5t163.5 -39q54 0 115 15t120 42l10 -80
q-118 -59 -250 -59z" />
    <glyph glyph-name="D" unicode="D" horiz-adv-x="835" 
d="M105 760h276q120 0 210 -45t139.5 -130.5t49.5 -203.5q0 -182 -109.5 -281.5t-308.5 -99.5h-257v760zM195 77h169q160 0 240.5 76t80.5 227t-80.5 227t-239.5 76h-170v-606z" />
    <glyph glyph-name="E" unicode="E" horiz-adv-x="663" 
d="M105 760h468v-77h-378v-254h338v-77h-338v-275h393v-77h-483v760z" />
    <glyph glyph-name="F" unicode="F" horiz-adv-x="612" 
d="M105 760h452v-77h-362v-268h312v-77h-312v-338h-90v760z" />
    <glyph glyph-name="G" unicode="G" horiz-adv-x="818" 
d="M456 -11q-114 0 -205 47t-143.5 135.5t-52.5 204.5q0 111 50 200.5t143 142t214 52.5q69 0 135.5 -16t122.5 -47l-17 -78q-53 28 -118.5 43.5t-132.5 15.5q-87 0 -155 -38t-107.5 -108.5t-39.5 -163.5q0 -92 37 -161.5t106.5 -108t164.5 -38.5q102 0 192 28v223h-179v77
h267v-357q-134 -53 -282 -53z" />
    <glyph glyph-name="H" unicode="H" horiz-adv-x="844" 
d="M105 760h90v-327h454v327h90v-760h-90v358h-454v-358h-90v760z" />
    <glyph glyph-name="I" unicode="I" horiz-adv-x="300" 
d="M105 760h90v-760h-90v760z" />
    <glyph glyph-name="J" unicode="J" horiz-adv-x="544" 
d="M205 -16q-46 0 -92.5 12t-77.5 31l10 81q33 -21 74 -32t84 -11q83 0 117 45.5t34 155.5v494h90v-502q0 -141 -58 -207.5t-181 -66.5z" />
    <glyph glyph-name="K" unicode="K" horiz-adv-x="735" 
d="M105 760h90v-343l369 343h123l-399 -362l437 -398h-132l-398 367v-367h-90v760z" />
    <glyph glyph-name="L" unicode="L" horiz-adv-x="603" 
d="M105 760h90v-683h373v-77h-463v760z" />
    <glyph glyph-name="M" unicode="M" horiz-adv-x="1024" 
d="M132 760h90l292 -544l288 544h90l37 -760h-87l-28 625l-262 -496h-80l-263 488l-27 -617h-87z" />
    <glyph glyph-name="N" unicode="N" horiz-adv-x="860" 
d="M105 760h87l480 -631v631h83v-760h-87l-480 630v-630h-83v760z" />
    <glyph glyph-name="O" unicode="O" horiz-adv-x="890" 
d="M445 66q82 0 149 39t106.5 110.5t39.5 164.5q0 87 -36.5 158.5t-104 113.5t-154.5 42q-82 0 -149 -39t-106.5 -110.5t-39.5 -164.5q0 -87 36.5 -158.5t104 -113.5t154.5 -42zM445 -16q-105 0 -193.5 50t-142.5 141t-54 205q0 106 49.5 196t139.5 145t201 55
q105 0 193.5 -50t142.5 -141t54 -205q0 -106 -49.5 -196t-139.5 -145t-201 -55z" />
    <glyph glyph-name="P" unicode="P" horiz-adv-x="628" 
d="M105 760h220q115 0 186.5 -64.5t71.5 -168.5q0 -68 -31.5 -121.5t-90 -84.5t-136.5 -31h-133v-290h-87v760zM192 365h117q88 0 135 41t47 118t-47.5 119t-134.5 42h-117v-320z" />
    <glyph glyph-name="Q" unicode="Q" horiz-adv-x="890" 
d="M659 -182l-152 171q-28 -5 -62 -5q-105 0 -193.5 50t-142.5 141t-54 205q0 106 49.5 196t139.5 145t201 55q105 0 193.5 -50t142.5 -141t54 -205q0 -123 -64.5 -221.5t-174.5 -144.5l182 -196h-119zM445 66q82 0 149 39t106.5 110.5t39.5 164.5q0 87 -36.5 158.5
t-104 113.5t-154.5 42q-82 0 -149 -39t-106.5 -110.5t-39.5 -164.5q0 -87 36.5 -158.5t104 -113.5t154.5 -42z" />
    <glyph glyph-name="R" unicode="R" horiz-adv-x="699" 
d="M105 760h217q118 0 189.5 -63t71.5 -166q0 -70 -38 -125t-105 -82l219 -324h-107l-200 304q-7 -1 -33 -1h-127v-303h-87v760zM192 378h110q94 0 141.5 38.5t47.5 114.5q0 75 -46.5 114.5t-134.5 39.5h-118v-307z" />
    <glyph glyph-name="S" unicode="S" horiz-adv-x="666" 
d="M312 -16q-65 0 -132.5 17t-109.5 44l11 83q48 -29 110 -47t117 -18q84 0 133 36t49 98q0 39 -17 63.5t-55 44.5t-107 43q-89 29 -137.5 59.5t-69 69t-20.5 92.5q0 93 68.5 150t181.5 57q55 0 112 -14.5t102 -40.5l-15 -79q-44 26 -97 40.5t-102 14.5q-76 0 -119 -32.5
t-43 -89.5q0 -37 15.5 -60t50 -42t96.5 -40q96 -32 149 -64.5t75.5 -72t22.5 -92.5q0 -101 -72.5 -160.5t-196.5 -59.5z" />
    <glyph glyph-name="T" unicode="T" horiz-adv-x="680" 
d="M295 683h-260v77h610v-77h-260v-683h-90v683z" />
    <glyph glyph-name="U" unicode="U" horiz-adv-x="840" 
d="M417 -16q-150 0 -233.5 86.5t-83.5 241.5v448h90v-440q0 -125 58.5 -189.5t171.5 -64.5t171.5 64.5t58.5 189.5v440h90v-448q0 -155 -85.5 -241.5t-237.5 -86.5z" />
    <glyph glyph-name="V" unicode="V" horiz-adv-x="755" 
d="M32 760h99l249 -666l250 666h93l-295 -760h-101z" />
    <glyph glyph-name="W" unicode="W" horiz-adv-x="1109" 
d="M30 760h93l192 -665l195 655h94l194 -651l192 661h89l-232 -760h-98l-195 647l-192 -647h-100z" />
    <glyph glyph-name="X" unicode="X" horiz-adv-x="706" 
d="M302 397l-260 363h106l211 -301l211 301h100l-263 -364l284 -396h-106l-235 333l-235 -333h-100z" />
    <glyph glyph-name="Y" unicode="Y" horiz-adv-x="693" 
d="M301 328l-286 432h101l233 -362l234 362h95l-287 -433v-327h-90v328z" />
    <glyph glyph-name="Z" unicode="Z" horiz-adv-x="699" 
d="M52 76l475 607h-450v77h553v-76l-476 -607h483v-77h-585v76z" />
    <glyph glyph-name="bracketleft" unicode="[" horiz-adv-x="395" 
d="M115 820h245v-71h-163v-811h163v-71h-245v953z" />
    <glyph glyph-name="backslash" unicode="\" horiz-adv-x="507" 
d="M17 810h90l383 -943h-90z" />
    <glyph glyph-name="bracketright" unicode="]" horiz-adv-x="395" 
d="M35 -62h163v811h-163v71h245v-953h-245v71z" />
    <glyph glyph-name="asciicircum" unicode="^" horiz-adv-x="620" 
d="M274 696h73l206 -380h-90l-155 295l-155 -295h-85z" />
    <glyph glyph-name="underscore" unicode="_" horiz-adv-x="500" 
d="M0 -54h500v-76h-500v76z" />
    <glyph glyph-name="grave" unicode="`" horiz-adv-x="500" 
d="M145 773h103l107 -163h-80z" />
    <glyph glyph-name="a" unicode="a" horiz-adv-x="562" 
d="M226 -16q-79 0 -127.5 43t-48.5 114q0 77 57 123t152 46q75 0 140 -27v9q0 152 -149 152q-86 0 -162 -53l-9 70q31 25 78.5 40t98.5 15q105 0 162 -55.5t57 -157.5v-303h-71l-2 81q-20 -44 -68.5 -70.5t-107.5 -26.5zM239 54q75 0 116 42t44 122q-58 25 -135 25
q-65 0 -99.5 -25t-34.5 -72q0 -44 28.5 -68t80.5 -24z" />
    <glyph glyph-name="b" unicode="b" horiz-adv-x="661" 
d="M356 -16q-59 0 -106 28t-75 79l-2 -91h-83v810h85v-401q29 52 78.5 79.5t112.5 27.5q67 0 121.5 -33t86.5 -94t32 -139q0 -70 -31.5 -130.5t-89.5 -98t-129 -37.5zM344 60q77 0 126 53t49 137t-49 137t-126 53t-126 -53t-49 -137t49 -137t126 -53z" />
    <glyph glyph-name="c" unicode="c" horiz-adv-x="539" 
d="M327 -13q-80 0 -141.5 31t-96 90t-34.5 139q0 77 33 137t94.5 94.5t143.5 34.5q39 0 78 -10t70 -27l-12 -73q-29 15 -66.5 24.5t-69.5 9.5q-83 0 -133.5 -50.5t-50.5 -135.5q0 -88 50.5 -138t139.5 -50q66 0 142 33l10 -71q-32 -18 -73.5 -28t-83.5 -10z" />
    <glyph glyph-name="d" unicode="d" horiz-adv-x="661" 
d="M295 -16q-67 0 -121.5 33t-86.5 94t-32 139q0 70 31.5 130.5t89.5 98t129 37.5q57 0 104.5 -28t76.5 -79v401h85v-810h-83l-2 91q-29 -52 -78.5 -79.5t-112.5 -27.5zM317 60q77 0 126 53t49 137t-49 137t-126 53t-126 -53t-49 -137t49 -137t126 -53z" />
    <glyph glyph-name="e" unicode="e" horiz-adv-x="594" 
d="M332 -16q-128 0 -202.5 71t-74.5 193q0 75 30.5 136t87.5 96.5t130 35.5q101 0 163.5 -68t62.5 -178q0 -13 -0.5 -24t-1.5 -23h-388q9 -79 60 -121t137 -42q88 0 172 41l10 -72q-34 -21 -83.5 -33t-102.5 -12zM447 290q-4 73 -42.5 113t-106.5 40q-65 0 -107 -40.5
t-51 -112.5h307z" />
    <glyph glyph-name="f" unicode="f" horiz-adv-x="401" 
d="M123 427h-103v73h103v80q0 115 50.5 175t148.5 60q59 0 104 -21l-9 -71q-45 17 -88 17q-64 0 -92.5 -40t-28.5 -131v-69h156v-73h-156v-427h-85v427z" />
    <glyph glyph-name="g" unicode="g" horiz-adv-x="563" 
d="M264 -255q-110 0 -172 39t-62 110q0 43 26.5 77t72.5 49q-33 9 -51.5 31.5t-18.5 53.5t20 55t57 39q-36 23 -55.5 59.5t-19.5 81.5q0 79 57.5 127.5t152.5 48.5q31 0 60 -6.5t49 -17.5l161 10v-70l-99 7q39 -40 39 -99q0 -79 -57.5 -127.5t-152.5 -48.5q-46 0 -85 12
q-49 -21 -49 -57q0 -29 25 -40t93 -11h31q117 0 174 -37.5t57 -114.5q0 -52 -30 -90.5t-87 -59.5t-136 -21zM273 -188q77 0 120 26t43 72t-37 67t-118 21h-24q-149 0 -149 -93q0 -44 43.5 -68.5t121.5 -24.5zM271 227q62 0 96.5 30t34.5 83t-34.5 83t-96.5 30t-96.5 -30
t-34.5 -83t34.5 -83t96.5 -30z" />
    <glyph glyph-name="h" unicode="h" horiz-adv-x="610" 
d="M90 810h85v-389q22 45 65 70t98 25q89 0 137 -55.5t48 -158.5v-302h-85v287q0 78 -29.5 116t-90.5 38q-67 0 -105 -44t-38 -121v-276h-85v810z" />
    <glyph glyph-name="i" unicode="i" horiz-adv-x="265" 
d="M90 500h85v-500h-85v500zM132 634q-25 0 -41.5 17t-16.5 43t16.5 43t41.5 17t41.5 -17t16.5 -43t-16.5 -43t-41.5 -17z" />
    <glyph glyph-name="j" unicode="j" horiz-adv-x="265" 
d="M-3 -254q-28 0 -56 6t-45 16l9 72q46 -20 92 -20q47 0 70 29t23 90v561h85v-558q0 -99 -44 -147.5t-134 -48.5zM132 634q-25 0 -41.5 17t-16.5 43t16.5 43t41.5 17t41.5 -17t16.5 -43t-16.5 -43t-41.5 -17z" />
    <glyph glyph-name="k" unicode="k" horiz-adv-x="564" 
d="M90 810h85v-511l229 201h110l-256 -220l296 -280h-116l-263 252v-252h-85v810z" />
    <glyph glyph-name="l" unicode="l" horiz-adv-x="265" 
d="M90 810h85v-810h-85v810z" />
    <glyph glyph-name="m" unicode="m" horiz-adv-x="942" 
d="M90 500h80l1 -86q20 48 63.5 75t100.5 27q122 0 163 -112q20 51 66.5 81.5t105.5 30.5q89 0 137 -55.5t48 -158.5v-302h-85v287q0 78 -29.5 116t-90.5 38q-63 0 -99 -44t-36 -121v-276h-85v288q0 78 -29 115.5t-89 37.5q-65 0 -101 -43.5t-36 -120.5v-277h-85v500z" />
    <glyph glyph-name="n" unicode="n" horiz-adv-x="610" 
d="M90 500h80l1 -87q21 49 65 76t102 27q89 0 137 -55.5t48 -158.5v-302h-85v287q0 78 -29.5 116t-90.5 38q-67 0 -105 -44t-38 -121v-276h-85v500z" />
    <glyph glyph-name="o" unicode="o" horiz-adv-x="634" 
d="M317 -16q-72 0 -131.5 33.5t-95 94.5t-35.5 138q0 71 33.5 131.5t93.5 97.5t135 37q72 0 131.5 -33.5t95 -94.5t35.5 -138q0 -71 -33.5 -131.5t-93.5 -97.5t-135 -37zM317 60q77 0 126 53t49 137t-49 137t-126 53t-126 -53t-49 -137t49 -137t126 -53z" />
    <glyph glyph-name="p" unicode="p" horiz-adv-x="661" 
d="M90 500h80l2 -97q28 54 78.5 83.5t115.5 29.5q67 0 121.5 -33t86.5 -94t32 -139q0 -70 -31.5 -130.5t-89.5 -98t-129 -37.5q-59 0 -106 27.5t-75 78.5v-335h-85v745zM344 60q77 0 126 53t49 137t-49 137t-126 53t-126 -53t-49 -137t49 -137t126 -53z" />
    <glyph glyph-name="q" unicode="q" horiz-adv-x="661" 
d="M486 -245v336q-29 -52 -78.5 -79.5t-112.5 -27.5q-67 0 -121.5 33t-86.5 94t-32 139q0 70 31.5 130.5t89.5 98t129 37.5q57 0 104.5 -28t76.5 -79l2 91h83v-745h-85zM317 60q77 0 126 53t49 137t-49 137t-126 53t-126 -53t-49 -137t49 -137t126 -53z" />
    <glyph glyph-name="r" unicode="r" horiz-adv-x="417" 
d="M90 500h80l1 -104q21 53 61 82t91 29q15 0 32.5 -3.5t26.5 -7.5l-9 -80q-29 12 -60 12q-65 0 -101.5 -48.5t-36.5 -133.5v-246h-85v500z" />
    <glyph glyph-name="s" unicode="s" horiz-adv-x="460" 
d="M211 -16q-47 0 -93.5 13t-74.5 34l13 75q31 -23 73.5 -37t81.5 -14q56 0 87 19.5t31 53.5q0 24 -10.5 38t-36 26t-74.5 26q-84 25 -120 60t-36 91q0 68 50.5 107.5t137.5 39.5q40 0 82 -11t69 -29l-14 -72q-64 41 -139 41q-50 0 -77 -17.5t-27 -49.5q0 -31 23 -49t85 -36
q95 -28 134 -63.5t39 -96.5q0 -67 -56 -108t-148 -41z" />
    <glyph glyph-name="t" unicode="t" horiz-adv-x="438" 
d="M289 -16q-85 0 -125 45.5t-40 142.5v255h-114v73h114v144h85v-144h175v-73h-175v-248q0 -64 22 -92.5t73 -28.5q48 0 99 26l10 -71q-47 -29 -124 -29z" />
    <glyph glyph-name="u" unicode="u" horiz-adv-x="607" 
d="M263 -16q-85 0 -130.5 51.5t-45.5 147.5v317h85v-293q0 -79 28 -113.5t92 -34.5q65 0 102.5 44t37.5 121v276h85v-500h-80l-2 85q-20 -48 -65.5 -74.5t-106.5 -26.5z" />
    <glyph glyph-name="v" unicode="v" horiz-adv-x="534" 
d="M20 500h92l158 -405l158 405h86l-205 -500h-83z" />
    <glyph glyph-name="w" unicode="w" horiz-adv-x="814" 
d="M25 500h87l128 -410l126 410h76l133 -410l130 410h84l-175 -500h-79l-132 405l-125 -405h-79z" />
    <glyph glyph-name="x" unicode="x" horiz-adv-x="538" 
d="M217 257l-184 243h101l135 -187l132 187h93l-179 -240l198 -260h-101l-149 205l-145 -205h-93z" />
    <glyph glyph-name="y" unicode="y" horiz-adv-x="554" 
d="M91 -254q-24 0 -44.5 5t-31.5 14l10 74q11 -7 28 -11.5t34 -4.5q30 0 51 14t40.5 45t46.5 92l15 35l-220 491h89l175 -405l163 405h87l-227 -535q-35 -82 -67.5 -130t-67 -68.5t-81.5 -20.5z" />
    <glyph glyph-name="z" unicode="z" horiz-adv-x="524" 
d="M50 72l307 355h-296v73h396v-72l-309 -355h316v-73h-414v72z" />
    <glyph glyph-name="braceleft" unicode="{" horiz-adv-x="423" 
d="M324 -144q-94 0 -136.5 35.5t-42.5 112.5q1 34 9 69.5t16 72t9 74.5q0 46 -21 63.5t-79 17.5h-29v75h29q58 0 79 17.5t21 63.5q-1 38 -9 74.5t-16 72t-9 69.5q0 77 42.5 112.5t136.5 35.5q18 0 44 -2v-70q-8 1 -44 1q-98 0 -98 -76q1 -26 9 -61.5t15.5 -75t8.5 -78.5
q0 -43 -19.5 -74.5t-54.5 -46.5q35 -14 54.5 -45.5t19.5 -74.5q-1 -39 -8.5 -78.5t-15.5 -75t-9 -61.5q0 -76 98 -76q36 0 44 1v-70q-26 -2 -44 -2z" />
    <glyph glyph-name="bar" unicode="|" horiz-adv-x="315" 
d="M115 866h85v-1093h-85v1093z" />
    <glyph glyph-name="braceright" unicode="}" horiz-adv-x="423" 
d="M99 -144q-18 0 -44 2v70q8 -1 44 -1q98 0 98 76q-1 26 -8.5 61.5t-15.5 75t-9 78.5q0 43 19.5 74.5t54.5 46.5q-35 14 -54.5 45.5t-19.5 74.5q1 39 9 78.5t15.5 75t8.5 61.5q0 76 -98 76q-36 0 -44 -1v70q26 2 44 2q94 0 136.5 -35.5t42.5 -112.5q-1 -34 -9 -69.5
t-16 -72t-9 -74.5q0 -46 21 -63.5t79 -17.5h29v-75h-29q-58 0 -79 -17.5t-21 -63.5q1 -38 9 -74.5t16 -72t9 -69.5q0 -77 -42.5 -112.5t-136.5 -35.5z" />
    <glyph glyph-name="asciitilde" unicode="~" horiz-adv-x="620" 
d="M420 249q-33 0 -64 14.5t-67 46.5q-33 29 -51 39.5t-37 10.5q-32 0 -48.5 -27t-20.5 -84h-75q2 89 40 138t103 49q33 0 64 -14.5t67 -46.5q33 -29 51 -39.5t37 -10.5q32 0 48.5 27t20.5 84h75q-2 -89 -40 -138t-103 -49z" />
    <glyph glyph-name="uni00A0" unicode="&#xa0;" horiz-adv-x="225" 
 />
    <glyph glyph-name="exclamdown" unicode="&#xa1;" horiz-adv-x="310" 
d="M115 257h79l5 -547h-89zM155 506q28 0 46.5 -18.5t18.5 -46.5t-18.5 -46.5t-46.5 -18.5t-46.5 18.5t-18.5 46.5t18.5 46.5t46.5 18.5z" />
    <glyph glyph-name="cent" unicode="&#xa2;" horiz-adv-x="620" 
d="M303 -130v124q-95 18 -149 84.5t-54 165.5q0 65 24 119.5t70 91t109 50.5v125h63v-119q79 -2 143 -37l-12 -73q-27 15 -63 24t-68 10v-370h4q61 0 139 33l10 -71q-63 -36 -153 -38v-119h-63zM303 427q-55 -18 -85.5 -64.5t-30.5 -111.5q0 -67 30 -113t86 -64v353z" />
    <glyph glyph-name="sterling" unicode="&#xa3;" horiz-adv-x="620" 
d="M72 75h98v252h-93v73h93v72q0 139 62.5 213.5t179.5 74.5q79 0 144 -35l-18 -74q-67 32 -131 32q-78 0 -116.5 -54t-38.5 -164v-65h213v-73h-213v-252h313v-75h-493v75z" />
    <glyph glyph-name="currency" unicode="&#xa4;" horiz-adv-x="620" 
d="M36 203l89 96q-32 53 -32 118q0 67 32 119l-89 95l51 47l83 -90q29 24 65 37t75 13q38 0 74 -13t65 -38l84 91l51 -47l-90 -96q33 -51 33 -118q0 -65 -32 -118l89 -96l-51 -47l-83 90q-64 -50 -140 -50q-38 0 -74.5 13t-65.5 37l-83 -90zM310 261q63 0 103 43.5t40 112.5
t-40 112.5t-103 43.5t-103 -43.5t-40 -112.5t40 -112.5t103 -43.5z" />
    <glyph glyph-name="yen" unicode="&#xa5;" horiz-adv-x="620" 
d="M270 157h-202v66h202v100h-202v66h164l-204 355h94l189 -345l189 345h92l-205 -355h165v-66h-202v-100h202v-66h-202v-157h-80v157z" />
    <glyph glyph-name="brokenbar" unicode="&#xa6;" horiz-adv-x="315" 
d="M115 218h85v-445h-85v445zM115 866h85v-445h-85v445z" />
    <glyph glyph-name="section" unicode="&#xa7;" horiz-adv-x="488" 
d="M219 -121q-46 0 -91.5 12.5t-76.5 34.5l13 72q75 -50 159 -50q50 0 80.5 24.5t30.5 65.5q0 36 -26 57.5t-97 44.5q-81 26 -121 69.5t-40 107.5q0 56 33.5 97.5t90.5 54.5q-54 25 -78.5 57.5t-24.5 79.5q0 63 49.5 103t129.5 40q93 0 158 -40l-14 -69q-68 40 -145 40
q-46 0 -73 -19t-27 -52q0 -29 24 -48.5t96 -48.5q91 -37 127.5 -77t36.5 -102q0 -54 -31.5 -95t-84.5 -57q101 -46 101 -139q0 -73 -55 -118t-144 -45zM243 216q48 0 79.5 32t31.5 81q0 46 -32 75t-82 29q-48 0 -79.5 -32t-31.5 -81q0 -46 32 -75t82 -29z" />
    <glyph glyph-name="dieresis" unicode="&#xa8;" horiz-adv-x="500" 
d="M154 640q-24 0 -39 15t-15 40q0 24 15.5 40t38.5 16q24 0 39.5 -15.5t15.5 -40.5q0 -24 -15.5 -39.5t-39.5 -15.5zM345 640q-24 0 -39 15t-15 40q0 24 15.5 40t38.5 16q24 0 39.5 -15.5t15.5 -40.5q0 -24 -15.5 -39.5t-39.5 -15.5z" />
    <glyph glyph-name="copyright" unicode="&#xa9;" horiz-adv-x="798" 
d="M420 199q-89 0 -141 49t-52 133t53 136.5t137 52.5q27 0 54.5 -6t47.5 -17l-12 -70q-19 10 -45 16.5t-46 6.5q-48 0 -79.5 -33t-31.5 -83q0 -52 32 -83.5t84 -31.5q35 0 95 21l12 -68q-50 -23 -108 -23zM399 27q-96 0 -176.5 44.5t-129 125.5t-48.5 183q0 95 44.5 175.5
t126 129t183.5 48.5q96 0 176.5 -44.5t129 -125.5t48.5 -183q0 -95 -44.5 -175.5t-126 -129t-183.5 -48.5zM399 93q80 0 144.5 35.5t102 101t37.5 150.5q0 80 -34.5 145t-99.5 103.5t-150 38.5q-80 0 -144.5 -35.5t-102 -101t-37.5 -150.5q0 -80 34.5 -145t99.5 -103.5
t150 -38.5z" />
    <glyph glyph-name="ordfeminine" unicode="&#xaa;" horiz-adv-x="456" 
d="M212 408q-68 0 -115 51t-47 125q0 45 21.5 85t59.5 65.5t84 25.5q33 0 62 -17.5t49 -49.5l2 57h64v-332h-64l-2 59q-20 -32 -50.5 -50.5t-63.5 -18.5zM73 334h323v-63h-323v63zM223 472q45 0 73.5 31.5t28.5 80.5q0 50 -28 81t-72 31q-45 0 -73.5 -31.5t-28.5 -80.5
q0 -50 28 -81t72 -31z" />
    <glyph glyph-name="guillemotleft" unicode="&#xab;" horiz-adv-x="533" 
d="M35 257l145 214h98l-145 -214l145 -214h-98zM245 257l145 214h98l-145 -214l145 -214h-98z" />
    <glyph glyph-name="logicalnot" unicode="&#xac;" horiz-adv-x="620" 
d="M441 321h-345v78h427v-234h-82v156z" />
    <glyph glyph-name="uni00AD" unicode="&#xad;" horiz-adv-x="443" 
d="M75 330h293v-85h-293v85z" />
    <glyph glyph-name="registered" unicode="&#xae;" horiz-adv-x="508" 
d="M254 392q-57 0 -105.5 27.5t-78.5 76.5t-30 110q0 57 27 105.5t76.5 78.5t110.5 30q58 0 106.5 -27.5t78 -76.5t29.5 -110q0 -57 -27 -105.5t-76.5 -78.5t-110.5 -30zM254 440q33 0 62 11.5t51.5 33.5t36 53t13.5 68q0 45 -20.5 83t-58 60.5t-84.5 22.5q-33 0 -62 -11.5
t-51.5 -33.5t-36 -53t-13.5 -68q0 -45 20.5 -83t58 -60.5t84.5 -22.5zM179 712h69q41 0 64 -17.5t23 -49.5q0 -44 -35 -61l46 -74h-51l-37 64h-33v-64h-46v202zM225 616h24q20 0 28.5 6.5t8.5 21.5q0 26 -37 26h-24v-54z" />
    <glyph glyph-name="macron" unicode="&#xaf;" horiz-adv-x="500" 
d="M97 720h306v-73h-306v73z" />
    <glyph glyph-name="degree" unicode="&#xb0;" horiz-adv-x="500" 
d="M250 434q-47 0 -85.5 21.5t-61.5 60.5t-23 88q0 45 21.5 84t61 63t87.5 24q46 0 84.5 -21.5t62 -61t23.5 -88.5q0 -45 -22 -83.5t-61 -62.5t-87 -24zM250 504q42 0 68.5 28t26.5 72t-26.5 72.5t-68.5 28.5t-68.5 -28.5t-26.5 -72.5t26.5 -72t68.5 -28z" />
    <glyph glyph-name="plusminus" unicode="&#xb1;" horiz-adv-x="620" 
d="M83 79h454v-78h-454v78zM269 349h-186v78h186v198h82v-198h186v-78h-186v-198h-82v198z" />
    <glyph glyph-name="uni00B2" unicode="&#xb2;" 
d="M52 456v65q52 42 111 101q48 47 65.5 75.5t17.5 58.5q0 25 -19 40t-50 15q-29 0 -53.5 -12t-52.5 -40l-15 61q22 25 57 39.5t72 14.5q58 0 94.5 -32t36.5 -83q0 -43 -27.5 -87.5t-87.5 -96.5q-18 -16 -34 -29t-32 -27h195v-63h-278z" />
    <glyph glyph-name="uni00B3" unicode="&#xb3;" 
d="M155 446q-29 0 -57.5 7t-48.5 19l6 61q22 -13 49.5 -20t53.5 -7q44 0 70 20t26 55q0 29 -24 47t-64 18q-22 0 -37 -5l-18 38l122 123h-175v62h250v-61l-103 -105q54 -6 85.5 -38t31.5 -81q0 -60 -45.5 -96.5t-121.5 -36.5z" />
    <glyph glyph-name="acute" unicode="&#xb4;" horiz-adv-x="500" 
d="M276 773h103l-130 -163h-80z" />
    <glyph glyph-name="mu" unicode="&#xb5;" horiz-adv-x="610" 
d="M90 500h85v-293q0 -78 28 -113t92 -35q65 0 102.5 44t37.5 121v276h85v-500h-80l-2 85q-20 -47 -60.5 -74t-90.5 -27q-35 0 -65 12.5t-47 34.5v-276h-85v745z" />
    <glyph glyph-name="paragraph" unicode="&#xb6;" horiz-adv-x="621" 
d="M263 -130v495q-106 6 -163.5 57t-57.5 140q0 95 65.5 146.5t186.5 51.5h237v-890h-79v820h-110v-820h-79z" />
    <glyph glyph-name="periodcentered" unicode="&#xb7;" horiz-adv-x="290" 
d="M145 314q-28 0 -46.5 18.5t-18.5 46.5t18.5 46.5t46.5 18.5t46.5 -18.5t18.5 -46.5t-18.5 -46.5t-46.5 -18.5z" />
    <glyph glyph-name="cedilla" unicode="&#xb8;" horiz-adv-x="500" 
d="M231 -255q-23 0 -47.5 5.5t-37.5 12.5l14 60q29 -16 71 -16q32 0 46.5 9.5t14.5 30.5q0 38 -62 38q-27 0 -39 -3l34 128h61l-22 -76q45 0 73 -24.5t28 -64.5q0 -46 -36 -73t-98 -27z" />
    <glyph glyph-name="uni00B9" unicode="&#xb9;" 
d="M195 791l-116 -53l-10 64l136 62h59v-408h-69v335z" />
    <glyph glyph-name="ordmasculine" unicode="&#xba;" horiz-adv-x="448" 
d="M224 408q-75 0 -124.5 50t-49.5 126t49.5 126t124.5 50t124.5 -50t49.5 -126t-49.5 -126t-124.5 -50zM223 472q45 0 73.5 31.5t28.5 80.5q0 50 -28 81t-72 31q-45 0 -73.5 -31.5t-28.5 -80.5q0 -50 28 -81t72 -31zM62 334h323v-63h-323v63z" />
    <glyph glyph-name="guillemotright" unicode="&#xbb;" horiz-adv-x="533" 
d="M189 257l-144 214h98l145 -214l-145 -214h-98zM399 257l-144 214h98l145 -214l-145 -214h-98z" />
    <glyph glyph-name="onequarter" unicode="&#xbc;" horiz-adv-x="931" 
d="M724 744h89l-556 -744h-89zM775 95h-198v56l193 257h69v-255h54v-58h-54v-95h-64v95zM775 153v172l-129 -172h129zM195 671l-116 -53l-10 64l136 62h59v-408h-69v335z" />
    <glyph glyph-name="onehalf" unicode="&#xbd;" horiz-adv-x="931" 
d="M689 744h89l-556 -744h-89zM601 0v65q52 42 111 101q48 47 65.5 75.5t17.5 58.5q0 25 -19 40t-50 15q-29 0 -53.5 -12t-52.5 -40l-15 61q22 25 57 39.5t72 14.5q58 0 94.5 -32t36.5 -83q0 -43 -27.5 -87.5t-87.5 -96.5q-18 -16 -34 -29t-32 -27h195v-63h-278zM195 671
l-116 -53l-10 64l136 62h59v-408h-69v335z" />
    <glyph glyph-name="threequarters" unicode="&#xbe;" horiz-adv-x="931" 
d="M725 744h89l-556 -744h-89zM775 95h-198v56l193 257h69v-255h54v-58h-54v-95h-64v95zM775 153v172l-129 -172h129zM155 326q-29 0 -57.5 7t-48.5 19l6 61q22 -13 49.5 -20t53.5 -7q44 0 70 20t26 55q0 29 -24 47t-64 18q-22 0 -37 -5l-18 38l122 123h-175v62h250v-61
l-103 -105q54 -6 85.5 -38t31.5 -81q0 -60 -45.5 -96.5t-121.5 -36.5z" />
    <glyph glyph-name="questiondown" unicode="&#xbf;" horiz-adv-x="465" 
d="M241 -299q-92 0 -149 51t-57 132q0 42 14 73.5t36.5 57t47 49t47 48.5t36.5 55.5t14 71.5q0 11 -1 18h77q2 -8 2.5 -17t0.5 -17q0 -45 -13.5 -79.5t-35 -61t-45 -49t-45 -45t-35 -47.5t-13.5 -57q0 -49 34.5 -77.5t92.5 -28.5q99 0 180 91l21 -74q-33 -43 -90 -68.5
t-119 -25.5zM270 506q28 0 46.5 -18.5t18.5 -46.5t-18.5 -46.5t-46.5 -18.5t-46.5 18.5t-18.5 46.5t18.5 46.5t46.5 18.5z" />
    <glyph glyph-name="Agrave" unicode="&#xc0;" horiz-adv-x="767" 
d="M334 760h99l309 -760h-97l-91 230h-347l-90 -230h-92zM525 305l-144 367l-144 -367h288zM236 964h114l110 -129h-90z" />
    <glyph glyph-name="Aacute" unicode="&#xc1;" horiz-adv-x="767" 
d="M334 760h99l309 -760h-97l-91 230h-347l-90 -230h-92zM525 305l-144 367l-144 -367h288zM417 964h114l-134 -129h-90z" />
    <glyph glyph-name="Acircumflex" unicode="&#xc2;" horiz-adv-x="767" 
d="M334 760h99l309 -760h-97l-91 230h-347l-90 -230h-92zM525 305l-144 367l-144 -367h288zM343 977h80l140 -142h-95l-85 87l-85 -87h-95z" />
    <glyph glyph-name="Atilde" unicode="&#xc3;" horiz-adv-x="767" 
d="M334 760h99l309 -760h-97l-91 230h-347l-90 -230h-92zM525 305l-144 367l-144 -367h288zM454 834q-27 1 -47 11t-35 23.5t-28.5 23.5t-28.5 11q-37 0 -37 -68h-64q0 66 25.5 101t73.5 35q27 -1 47 -11t35 -23.5t28.5 -23.5t28.5 -11q37 0 37 68h64q0 -66 -25.5 -101
t-73.5 -35z" />
    <glyph glyph-name="Adieresis" unicode="&#xc4;" horiz-adv-x="767" 
d="M334 760h99l309 -760h-97l-91 230h-347l-90 -230h-92zM525 305l-144 367l-144 -367h288zM285 833q-24 0 -39 15t-15 40q0 24 15.5 40t38.5 16q24 0 39.5 -15.5t15.5 -40.5q0 -24 -15.5 -39.5t-39.5 -15.5zM480 833q-24 0 -39 15t-15 40q0 24 15.5 40t38.5 16
q24 0 39.5 -15.5t15.5 -40.5q0 -24 -15.5 -39.5t-39.5 -15.5z" />
    <glyph glyph-name="Aring" unicode="&#xc5;" horiz-adv-x="767" 
d="M334 760h99l309 -760h-97l-91 230h-347l-90 -230h-92zM525 305l-144 367l-144 -367h288zM383 818q-55 0 -92.5 35.5t-37.5 88.5t37.5 88.5t92.5 35.5t92.5 -35.5t37.5 -88.5t-37.5 -88.5t-92.5 -35.5zM383 874q31 0 49.5 18.5t18.5 49.5q0 32 -18 50t-50 18t-50 -18
t-18 -50q0 -31 18.5 -49.5t49.5 -18.5z" />
    <glyph glyph-name="AE" unicode="&#xc6;" horiz-adv-x="1088" 
d="M530 305v369l-231 -369h231zM491 760h507v-77h-378v-254h338v-77h-338v-275h393v-77h-483v230h-277l-143 -230h-100z" />
    <glyph glyph-name="Ccedilla" unicode="&#xc7;" horiz-adv-x="766" 
d="M451 -11q-111 0 -201 47.5t-142.5 136t-52.5 201.5q0 112 50 202t143 142.5t214 52.5q59 0 122.5 -17t110.5 -46l-16 -81q-67 34 -119.5 48t-107.5 14q-87 0 -155 -38t-107.5 -108.5t-39.5 -163.5q0 -91 36.5 -160.5t106 -108.5t163.5 -39q54 0 115 15t120 42l10 -80
q-118 -59 -250 -59zM394 -255q-23 0 -47.5 5.5t-37.5 12.5l14 62q29 -16 71 -16q59 0 59 38q0 36 -60 36q-28 0 -40 -3l34 130h63l-22 -76q45 0 72.5 -24.5t27.5 -64.5q0 -46 -36 -73t-98 -27z" />
    <glyph glyph-name="Egrave" unicode="&#xc8;" horiz-adv-x="663" 
d="M105 760h468v-77h-378v-254h338v-77h-338v-275h393v-77h-483v760zM197 964h114l110 -129h-90z" />
    <glyph glyph-name="Eacute" unicode="&#xc9;" horiz-adv-x="663" 
d="M105 760h468v-77h-378v-254h338v-77h-338v-275h393v-77h-483v760zM378 964h114l-134 -129h-90z" />
    <glyph glyph-name="Ecircumflex" unicode="&#xca;" horiz-adv-x="663" 
d="M105 760h468v-77h-378v-254h338v-77h-338v-275h393v-77h-483v760zM304 977h80l140 -142h-95l-85 87l-85 -87h-95z" />
    <glyph glyph-name="Edieresis" unicode="&#xcb;" horiz-adv-x="663" 
d="M105 760h468v-77h-378v-254h338v-77h-338v-275h393v-77h-483v760zM246 833q-24 0 -39 15t-15 40q0 24 15.5 40t38.5 16q24 0 39.5 -15.5t15.5 -40.5q0 -24 -15.5 -39.5t-39.5 -15.5zM441 833q-24 0 -39 15t-15 40q0 24 15.5 40t38.5 16q24 0 39.5 -15.5t15.5 -40.5
q0 -24 -15.5 -39.5t-39.5 -15.5z" />
    <glyph glyph-name="Igrave" unicode="&#xcc;" horiz-adv-x="300" 
d="M105 760h90v-760h-90v760zM3 964h114l110 -129h-90z" />
    <glyph glyph-name="Iacute" unicode="&#xcd;" horiz-adv-x="300" 
d="M105 760h90v-760h-90v760zM184 964h114l-134 -129h-90z" />
    <glyph glyph-name="Icircumflex" unicode="&#xce;" horiz-adv-x="300" 
d="M105 760h90v-760h-90v760zM110 977h80l140 -142h-95l-85 87l-85 -87h-95z" />
    <glyph glyph-name="Idieresis" unicode="&#xcf;" horiz-adv-x="300" 
d="M105 760h90v-760h-90v760zM52 833q-24 0 -39 15t-15 40q0 24 15.5 40t38.5 16q24 0 39.5 -15.5t15.5 -40.5q0 -24 -15.5 -39.5t-39.5 -15.5zM247 833q-24 0 -39 15t-15 40q0 24 15.5 40t38.5 16q24 0 39.5 -15.5t15.5 -40.5q0 -24 -15.5 -39.5t-39.5 -15.5z" />
    <glyph glyph-name="Eth" unicode="&#xd0;" horiz-adv-x="845" 
d="M115 348h-105v70h105v342h276q120 0 210 -45t139.5 -130.5t49.5 -203.5q0 -182 -109.5 -281.5t-308.5 -99.5h-257v348zM205 77h169q160 0 240.5 76t80.5 227t-80.5 227t-239.5 76h-170v-265h195v-70h-195v-271z" />
    <glyph glyph-name="Ntilde" unicode="&#xd1;" horiz-adv-x="860" 
d="M105 760h87l480 -631v631h83v-760h-87l-480 630v-630h-83v760zM493 834q-27 1 -47 11t-35 23.5t-28.5 23.5t-28.5 11q-37 0 -37 -68h-64q0 66 25.5 101t73.5 35q27 -1 47 -11t35 -23.5t28.5 -23.5t28.5 -11q37 0 37 68h64q0 -66 -25.5 -101t-73.5 -35z" />
    <glyph glyph-name="Ograve" unicode="&#xd2;" horiz-adv-x="890" 
d="M445 66q82 0 149 39t106.5 110.5t39.5 164.5q0 87 -36.5 158.5t-104 113.5t-154.5 42q-82 0 -149 -39t-106.5 -110.5t-39.5 -164.5q0 -87 36.5 -158.5t104 -113.5t154.5 -42zM445 -16q-105 0 -193.5 50t-142.5 141t-54 205q0 106 49.5 196t139.5 145t201 55
q105 0 193.5 -50t142.5 -141t54 -205q0 -106 -49.5 -196t-139.5 -145t-201 -55zM298 964h114l110 -129h-90z" />
    <glyph glyph-name="Oacute" unicode="&#xd3;" horiz-adv-x="890" 
d="M445 66q82 0 149 39t106.5 110.5t39.5 164.5q0 87 -36.5 158.5t-104 113.5t-154.5 42q-82 0 -149 -39t-106.5 -110.5t-39.5 -164.5q0 -87 36.5 -158.5t104 -113.5t154.5 -42zM445 -16q-105 0 -193.5 50t-142.5 141t-54 205q0 106 49.5 196t139.5 145t201 55
q105 0 193.5 -50t142.5 -141t54 -205q0 -106 -49.5 -196t-139.5 -145t-201 -55zM479 964h114l-134 -129h-90z" />
    <glyph glyph-name="Ocircumflex" unicode="&#xd4;" horiz-adv-x="890" 
d="M445 66q82 0 149 39t106.5 110.5t39.5 164.5q0 87 -36.5 158.5t-104 113.5t-154.5 42q-82 0 -149 -39t-106.5 -110.5t-39.5 -164.5q0 -87 36.5 -158.5t104 -113.5t154.5 -42zM445 -16q-105 0 -193.5 50t-142.5 141t-54 205q0 106 49.5 196t139.5 145t201 55
q105 0 193.5 -50t142.5 -141t54 -205q0 -106 -49.5 -196t-139.5 -145t-201 -55zM405 977h80l140 -142h-95l-85 87l-85 -87h-95z" />
    <glyph glyph-name="Otilde" unicode="&#xd5;" horiz-adv-x="890" 
d="M445 66q82 0 149 39t106.5 110.5t39.5 164.5q0 87 -36.5 158.5t-104 113.5t-154.5 42q-82 0 -149 -39t-106.5 -110.5t-39.5 -164.5q0 -87 36.5 -158.5t104 -113.5t154.5 -42zM445 -16q-105 0 -193.5 50t-142.5 141t-54 205q0 106 49.5 196t139.5 145t201 55
q105 0 193.5 -50t142.5 -141t54 -205q0 -106 -49.5 -196t-139.5 -145t-201 -55zM516 834q-27 1 -47 11t-35 23.5t-28.5 23.5t-28.5 11q-37 0 -37 -68h-64q0 66 25.5 101t73.5 35q27 -1 47 -11t35 -23.5t28.5 -23.5t28.5 -11q37 0 37 68h64q0 -66 -25.5 -101t-73.5 -35z" />
    <glyph glyph-name="Odieresis" unicode="&#xd6;" horiz-adv-x="890" 
d="M445 66q82 0 149 39t106.5 110.5t39.5 164.5q0 87 -36.5 158.5t-104 113.5t-154.5 42q-82 0 -149 -39t-106.5 -110.5t-39.5 -164.5q0 -87 36.5 -158.5t104 -113.5t154.5 -42zM445 -16q-105 0 -193.5 50t-142.5 141t-54 205q0 106 49.5 196t139.5 145t201 55
q105 0 193.5 -50t142.5 -141t54 -205q0 -106 -49.5 -196t-139.5 -145t-201 -55zM347 833q-24 0 -39 15t-15 40q0 24 15.5 40t38.5 16q24 0 39.5 -15.5t15.5 -40.5q0 -24 -15.5 -39.5t-39.5 -15.5zM542 833q-24 0 -39 15t-15 40q0 24 15.5 40t38.5 16q24 0 39.5 -15.5
t15.5 -40.5q0 -24 -15.5 -39.5t-39.5 -15.5z" />
    <glyph glyph-name="multiply" unicode="&#xd7;" horiz-adv-x="620" 
d="M107 185l148 148l-148 148l56 56l148 -148l147 148l53 -52l-148 -148l149 -149l-56 -56l-149 149l-147 -148z" />
    <glyph glyph-name="Oslash" unicode="&#xd8;" horiz-adv-x="890" 
d="M445 -16q-70 0 -135 23t-117 67l-88 -90l-50 50l89 90q-44 53 -66.5 118.5t-22.5 137.5q0 106 49.5 196t139.5 145t201 55q69 0 134 -23.5t117 -66.5l89 90l50 -50l-89 -90q44 -53 66.5 -118.5t22.5 -137.5q0 -106 -49.5 -196t-139.5 -145t-201 -55zM445 66q82 0 149 39
t106.5 110.5t39.5 164.5q0 112 -57 192l-430 -437q40 -34 89 -51.5t103 -17.5zM150 380q0 -112 56 -192l430 437q-37 33 -86.5 51t-104.5 18q-82 0 -149 -39t-106.5 -110.5t-39.5 -164.5z" />
    <glyph glyph-name="Ugrave" unicode="&#xd9;" horiz-adv-x="840" 
d="M417 -16q-150 0 -233.5 86.5t-83.5 241.5v448h90v-440q0 -125 58.5 -189.5t171.5 -64.5t171.5 64.5t58.5 189.5v440h90v-448q0 -155 -85.5 -241.5t-237.5 -86.5zM273 964h114l110 -129h-90z" />
    <glyph glyph-name="Uacute" unicode="&#xda;" horiz-adv-x="840" 
d="M417 -16q-150 0 -233.5 86.5t-83.5 241.5v448h90v-440q0 -125 58.5 -189.5t171.5 -64.5t171.5 64.5t58.5 189.5v440h90v-448q0 -155 -85.5 -241.5t-237.5 -86.5zM454 964h114l-134 -129h-90z" />
    <glyph glyph-name="Ucircumflex" unicode="&#xdb;" horiz-adv-x="840" 
d="M417 -16q-150 0 -233.5 86.5t-83.5 241.5v448h90v-440q0 -125 58.5 -189.5t171.5 -64.5t171.5 64.5t58.5 189.5v440h90v-448q0 -155 -85.5 -241.5t-237.5 -86.5zM380 977h80l140 -142h-95l-85 87l-85 -87h-95z" />
    <glyph glyph-name="Udieresis" unicode="&#xdc;" horiz-adv-x="840" 
d="M417 -16q-150 0 -233.5 86.5t-83.5 241.5v448h90v-440q0 -125 58.5 -189.5t171.5 -64.5t171.5 64.5t58.5 189.5v440h90v-448q0 -155 -85.5 -241.5t-237.5 -86.5zM322 833q-24 0 -39 15t-15 40q0 24 15.5 40t38.5 16q24 0 39.5 -15.5t15.5 -40.5q0 -24 -15.5 -39.5
t-39.5 -15.5zM517 833q-24 0 -39 15t-15 40q0 24 15.5 40t38.5 16q24 0 39.5 -15.5t15.5 -40.5q0 -24 -15.5 -39.5t-39.5 -15.5z" />
    <glyph glyph-name="Yacute" unicode="&#xdd;" horiz-adv-x="693" 
d="M301 328l-286 432h101l233 -362l234 362h95l-287 -433v-327h-90v328zM380 964h114l-134 -129h-90z" />
    <glyph glyph-name="Thorn" unicode="&#xde;" horiz-adv-x="628" 
d="M105 760h87v-135h133q115 0 186.5 -64.5t71.5 -168.5q0 -68 -31.5 -121.5t-90 -84.5t-136.5 -31h-133v-155h-87v760zM192 230h117q88 0 135 41t47 118t-47.5 119t-134.5 42h-117v-320z" />
    <glyph glyph-name="germandbls" unicode="&#xdf;" horiz-adv-x="647" 
d="M359 -16q-78 0 -129 33l13 70q23 -15 53 -23.5t59 -8.5q69 0 112.5 47t43.5 121t-50.5 119.5t-133.5 45.5h-44v72h36q64 0 102 39.5t38 106.5q0 62 -36 98t-100 36q-70 0 -109 -51t-39 -141v-548h-85v562q0 116 63.5 184.5t170.5 68.5q63 0 113 -25t78.5 -71.5
t28.5 -107.5q0 -63 -30 -111.5t-82 -68.5q48 -11 85.5 -40.5t58.5 -75t21 -99.5q0 -66 -29 -118.5t-83.5 -83t-125.5 -30.5z" />
    <glyph glyph-name="agrave" unicode="&#xe0;" horiz-adv-x="562" 
d="M226 -16q-79 0 -127.5 43t-48.5 114q0 77 57 123t152 46q75 0 140 -27v9q0 152 -149 152q-86 0 -162 -53l-9 70q31 25 78.5 40t98.5 15q105 0 162 -55.5t57 -157.5v-303h-71l-2 81q-20 -44 -68.5 -70.5t-107.5 -26.5zM239 54q75 0 116 42t44 122q-58 25 -135 25
q-65 0 -99.5 -25t-34.5 -72q0 -44 28.5 -68t80.5 -24zM124 773h103l107 -163h-80z" />
    <glyph glyph-name="aacute" unicode="&#xe1;" horiz-adv-x="562" 
d="M226 -16q-79 0 -127.5 43t-48.5 114q0 77 57 123t152 46q75 0 140 -27v9q0 152 -149 152q-86 0 -162 -53l-9 70q31 25 78.5 40t98.5 15q105 0 162 -55.5t57 -157.5v-303h-71l-2 81q-20 -44 -68.5 -70.5t-107.5 -26.5zM239 54q75 0 116 42t44 122q-58 25 -135 25
q-65 0 -99.5 -25t-34.5 -72q0 -44 28.5 -68t80.5 -24zM293 773h103l-130 -163h-80z" />
    <glyph glyph-name="acircumflex" unicode="&#xe2;" horiz-adv-x="562" 
d="M226 -16q-79 0 -127.5 43t-48.5 114q0 77 57 123t152 46q75 0 140 -27v9q0 152 -149 152q-86 0 -162 -53l-9 70q31 25 78.5 40t98.5 15q105 0 162 -55.5t57 -157.5v-303h-71l-2 81q-20 -44 -68.5 -70.5t-107.5 -26.5zM239 54q75 0 116 42t44 122q-58 25 -135 25
q-65 0 -99.5 -25t-34.5 -72q0 -44 28.5 -68t80.5 -24zM224 773h72l139 -163h-86l-89 105l-89 -105h-86z" />
    <glyph glyph-name="atilde" unicode="&#xe3;" horiz-adv-x="562" 
d="M226 -16q-79 0 -127.5 43t-48.5 114q0 77 57 123t152 46q75 0 140 -27v9q0 152 -149 152q-86 0 -162 -53l-9 70q31 25 78.5 40t98.5 15q105 0 162 -55.5t57 -157.5v-303h-71l-2 81q-20 -44 -68.5 -70.5t-107.5 -26.5zM239 54q75 0 116 42t44 122q-58 25 -135 25
q-65 0 -99.5 -25t-34.5 -72q0 -44 28.5 -68t80.5 -24zM331 621q-27 1 -47 11t-35 23.5t-28.5 23.5t-28.5 11q-37 0 -37 -68h-64q0 66 25.5 101t73.5 35q27 -1 47 -11t35 -23.5t28.5 -23.5t28.5 -11q37 0 37 68h64q0 -66 -25.5 -101t-73.5 -35z" />
    <glyph glyph-name="adieresis" unicode="&#xe4;" horiz-adv-x="562" 
d="M226 -16q-79 0 -127.5 43t-48.5 114q0 77 57 123t152 46q75 0 140 -27v9q0 152 -149 152q-86 0 -162 -53l-9 70q31 25 78.5 40t98.5 15q105 0 162 -55.5t57 -157.5v-303h-71l-2 81q-20 -44 -68.5 -70.5t-107.5 -26.5zM239 54q75 0 116 42t44 122q-58 25 -135 25
q-65 0 -99.5 -25t-34.5 -72q0 -44 28.5 -68t80.5 -24zM164 640q-24 0 -39 15t-15 40q0 24 15.5 40t38.5 16q24 0 39.5 -15.5t15.5 -40.5q0 -24 -15.5 -39.5t-39.5 -15.5zM355 640q-24 0 -39 15t-15 40q0 24 15.5 40t38.5 16q24 0 39.5 -15.5t15.5 -40.5q0 -24 -15.5 -39.5
t-39.5 -15.5z" />
    <glyph glyph-name="aring" unicode="&#xe5;" horiz-adv-x="562" 
d="M226 -16q-79 0 -127.5 43t-48.5 114q0 77 57 123t152 46q75 0 140 -27v9q0 152 -149 152q-86 0 -162 -53l-9 70q31 25 78.5 40t98.5 15q105 0 162 -55.5t57 -157.5v-303h-71l-2 81q-20 -44 -68.5 -70.5t-107.5 -26.5zM239 54q75 0 116 42t44 122q-58 25 -135 25
q-65 0 -99.5 -25t-34.5 -72q0 -44 28.5 -68t80.5 -24zM260 588q-55 0 -92.5 35.5t-37.5 88.5t37.5 88.5t92.5 35.5t92.5 -35.5t37.5 -88.5t-37.5 -88.5t-92.5 -35.5zM260 644q31 0 49.5 18.5t18.5 49.5q0 32 -18 50t-50 18t-50 -18t-18 -50q0 -31 18.5 -49.5t49.5 -18.5z
" />
    <glyph glyph-name="ae" unicode="&#xe6;" horiz-adv-x="925" 
d="M226 -16q-80 0 -128 43t-48 113q0 78 56.5 124t152.5 46q70 0 140 -27v9q0 152 -149 152q-86 0 -162 -53l-9 70q32 26 79.5 40.5t97.5 14.5q73 0 122 -28t68 -82q25 51 75.5 80.5t112.5 29.5q101 0 163.5 -68t62.5 -178q0 -13 -0.5 -24t-1.5 -23h-388q9 -79 60 -121
t137 -42q88 0 172 41l10 -72q-34 -21 -83.5 -33t-102.5 -12q-82 0 -144.5 31t-96.5 89q-23 -57 -74 -88.5t-122 -31.5zM238 54q72 0 114.5 43.5t46.5 120.5q-58 25 -135 25q-65 0 -99.5 -25t-34.5 -72q0 -43 28.5 -67.5t79.5 -24.5zM778 290q-4 73 -42.5 113t-106.5 40
q-65 0 -107 -40.5t-51 -112.5h307z" />
    <glyph glyph-name="ccedilla" unicode="&#xe7;" horiz-adv-x="539" 
d="M327 -13q-80 0 -141.5 31t-96 90t-34.5 139q0 77 33 137t94.5 94.5t143.5 34.5q39 0 78 -10t70 -27l-12 -73q-29 15 -66.5 24.5t-69.5 9.5q-83 0 -133.5 -50.5t-50.5 -135.5q0 -88 50.5 -138t139.5 -50q66 0 142 33l10 -71q-32 -18 -73.5 -28t-83.5 -10zM283 -255
q-23 0 -47.5 5.5t-37.5 12.5l14 60q29 -16 71 -16q32 0 46.5 9.5t14.5 30.5q0 38 -62 38q-27 0 -39 -3l34 128h61l-22 -76q45 0 73 -24.5t28 -64.5q0 -46 -36 -73t-98 -27z" />
    <glyph glyph-name="egrave" unicode="&#xe8;" horiz-adv-x="594" 
d="M332 -16q-128 0 -202.5 71t-74.5 193q0 75 30.5 136t87.5 96.5t130 35.5q101 0 163.5 -68t62.5 -178q0 -13 -0.5 -24t-1.5 -23h-388q9 -79 60 -121t137 -42q88 0 172 41l10 -72q-34 -21 -83.5 -33t-102.5 -12zM447 290q-4 73 -42.5 113t-106.5 40q-65 0 -107 -40.5
t-51 -112.5h307zM161 773h103l107 -163h-80z" />
    <glyph glyph-name="eacute" unicode="&#xe9;" horiz-adv-x="594" 
d="M332 -16q-128 0 -202.5 71t-74.5 193q0 75 30.5 136t87.5 96.5t130 35.5q101 0 163.5 -68t62.5 -178q0 -13 -0.5 -24t-1.5 -23h-388q9 -79 60 -121t137 -42q88 0 172 41l10 -72q-34 -21 -83.5 -33t-102.5 -12zM447 290q-4 73 -42.5 113t-106.5 40q-65 0 -107 -40.5
t-51 -112.5h307zM330 773h103l-130 -163h-80z" />
    <glyph glyph-name="ecircumflex" unicode="&#xea;" horiz-adv-x="594" 
d="M332 -16q-128 0 -202.5 71t-74.5 193q0 75 30.5 136t87.5 96.5t130 35.5q101 0 163.5 -68t62.5 -178q0 -13 -0.5 -24t-1.5 -23h-388q9 -79 60 -121t137 -42q88 0 172 41l10 -72q-34 -21 -83.5 -33t-102.5 -12zM447 290q-4 73 -42.5 113t-106.5 40q-65 0 -107 -40.5
t-51 -112.5h307zM261 773h72l139 -163h-86l-89 105l-89 -105h-86z" />
    <glyph glyph-name="edieresis" unicode="&#xeb;" horiz-adv-x="594" 
d="M332 -16q-128 0 -202.5 71t-74.5 193q0 75 30.5 136t87.5 96.5t130 35.5q101 0 163.5 -68t62.5 -178q0 -13 -0.5 -24t-1.5 -23h-388q9 -79 60 -121t137 -42q88 0 172 41l10 -72q-34 -21 -83.5 -33t-102.5 -12zM447 290q-4 73 -42.5 113t-106.5 40q-65 0 -107 -40.5
t-51 -112.5h307zM201 640q-24 0 -39 15t-15 40q0 24 15.5 40t38.5 16q24 0 39.5 -15.5t15.5 -40.5q0 -24 -15.5 -39.5t-39.5 -15.5zM392 640q-24 0 -39 15t-15 40q0 24 15.5 40t38.5 16q24 0 39.5 -15.5t15.5 -40.5q0 -24 -15.5 -39.5t-39.5 -15.5z" />
    <glyph glyph-name="igrave" unicode="&#xec;" horiz-adv-x="265" 
d="M90 500h85v-500h-85v500zM-4 773h103l107 -163h-80z" />
    <glyph glyph-name="iacute" unicode="&#xed;" horiz-adv-x="265" 
d="M90 500h85v-500h-85v500zM165 773h103l-130 -163h-80z" />
    <glyph glyph-name="icircumflex" unicode="&#xee;" horiz-adv-x="265" 
d="M90 500h85v-500h-85v500zM96 773h72l139 -163h-86l-89 105l-89 -105h-86z" />
    <glyph glyph-name="idieresis" unicode="&#xef;" horiz-adv-x="265" 
d="M90 500h85v-500h-85v500zM36 640q-24 0 -39 15t-15 40q0 24 15.5 40t38.5 16q24 0 39.5 -15.5t15.5 -40.5q0 -24 -15.5 -39.5t-39.5 -15.5zM227 640q-24 0 -39 15t-15 40q0 24 15.5 40t38.5 16q24 0 39.5 -15.5t15.5 -40.5q0 -24 -15.5 -39.5t-39.5 -15.5z" />
    <glyph glyph-name="eth" unicode="&#xf0;" horiz-adv-x="633" 
d="M318 -16q-74 0 -133.5 32.5t-94.5 93t-35 140.5q0 69 32 129.5t89 98.5t126 38q44 0 83.5 -17.5t68.5 -49.5q-41 101 -115 194l-149 -79l-30 56l136 72q-59 62 -121 109l110 5q45 -37 81 -76l115 61l30 -57l-101 -54q80 -98 121.5 -202t41.5 -208q0 -84 -31 -148.5
t-89 -101t-135 -36.5zM317 60q77 0 126 53t49 137t-49 137t-126 53t-126 -53t-49 -137t49 -137t126 -53z" />
    <glyph glyph-name="ntilde" unicode="&#xf1;" horiz-adv-x="610" 
d="M90 500h80l1 -87q21 49 65 76t102 27q89 0 137 -55.5t48 -158.5v-302h-85v287q0 78 -29.5 116t-90.5 38q-67 0 -105 -44t-38 -121v-276h-85v500zM377 621q-27 1 -47 11t-35 23.5t-28.5 23.5t-28.5 11q-37 0 -37 -68h-64q0 66 25.5 101t73.5 35q27 -1 47 -11t35 -23.5
t28.5 -23.5t28.5 -11q37 0 37 68h64q0 -66 -25.5 -101t-73.5 -35z" />
    <glyph glyph-name="ograve" unicode="&#xf2;" horiz-adv-x="634" 
d="M317 -16q-72 0 -131.5 33.5t-95 94.5t-35.5 138q0 71 33.5 131.5t93.5 97.5t135 37q72 0 131.5 -33.5t95 -94.5t35.5 -138q0 -71 -33.5 -131.5t-93.5 -97.5t-135 -37zM317 60q77 0 126 53t49 137t-49 137t-126 53t-126 -53t-49 -137t49 -137t126 -53zM181 773h103
l107 -163h-80z" />
    <glyph glyph-name="oacute" unicode="&#xf3;" horiz-adv-x="634" 
d="M317 -16q-72 0 -131.5 33.5t-95 94.5t-35.5 138q0 71 33.5 131.5t93.5 97.5t135 37q72 0 131.5 -33.5t95 -94.5t35.5 -138q0 -71 -33.5 -131.5t-93.5 -97.5t-135 -37zM317 60q77 0 126 53t49 137t-49 137t-126 53t-126 -53t-49 -137t49 -137t126 -53zM350 773h103
l-130 -163h-80z" />
    <glyph glyph-name="ocircumflex" unicode="&#xf4;" horiz-adv-x="634" 
d="M317 -16q-72 0 -131.5 33.5t-95 94.5t-35.5 138q0 71 33.5 131.5t93.5 97.5t135 37q72 0 131.5 -33.5t95 -94.5t35.5 -138q0 -71 -33.5 -131.5t-93.5 -97.5t-135 -37zM317 60q77 0 126 53t49 137t-49 137t-126 53t-126 -53t-49 -137t49 -137t126 -53zM281 773h72
l139 -163h-86l-89 105l-89 -105h-86z" />
    <glyph glyph-name="otilde" unicode="&#xf5;" horiz-adv-x="634" 
d="M317 -16q-72 0 -131.5 33.5t-95 94.5t-35.5 138q0 71 33.5 131.5t93.5 97.5t135 37q72 0 131.5 -33.5t95 -94.5t35.5 -138q0 -71 -33.5 -131.5t-93.5 -97.5t-135 -37zM317 60q77 0 126 53t49 137t-49 137t-126 53t-126 -53t-49 -137t49 -137t126 -53zM388 621
q-27 1 -47 11t-35 23.5t-28.5 23.5t-28.5 11q-37 0 -37 -68h-64q0 66 25.5 101t73.5 35q27 -1 47 -11t35 -23.5t28.5 -23.5t28.5 -11q37 0 37 68h64q0 -66 -25.5 -101t-73.5 -35z" />
    <glyph glyph-name="odieresis" unicode="&#xf6;" horiz-adv-x="634" 
d="M317 -16q-72 0 -131.5 33.5t-95 94.5t-35.5 138q0 71 33.5 131.5t93.5 97.5t135 37q72 0 131.5 -33.5t95 -94.5t35.5 -138q0 -71 -33.5 -131.5t-93.5 -97.5t-135 -37zM317 60q77 0 126 53t49 137t-49 137t-126 53t-126 -53t-49 -137t49 -137t126 -53zM221 640
q-24 0 -39 15t-15 40q0 24 15.5 40t38.5 16q24 0 39.5 -15.5t15.5 -40.5q0 -24 -15.5 -39.5t-39.5 -15.5zM412 640q-24 0 -39 15t-15 40q0 24 15.5 40t38.5 16q24 0 39.5 -15.5t15.5 -40.5q0 -24 -15.5 -39.5t-39.5 -15.5z" />
    <glyph glyph-name="divide" unicode="&#xf7;" horiz-adv-x="620" 
d="M83 373h454v-78h-454v78zM310 93q-25 0 -42.5 17.5t-17.5 42.5t17.5 42.5t42.5 17.5t42.5 -17.5t17.5 -42.5t-17.5 -42.5t-42.5 -17.5zM310 455q-25 0 -42.5 17.5t-17.5 42.5t17.5 42.5t42.5 17.5t42.5 -17.5t17.5 -42.5t-17.5 -42.5t-42.5 -17.5z" />
    <glyph glyph-name="oslash" unicode="&#xf8;" horiz-adv-x="634" 
d="M317 -16q-95 0 -165 55l-53 -54l-43 43l53 54q-54 71 -54 168q0 71 33.5 131.5t93.5 97.5t135 37q92 0 164 -56l54 55l43 -43l-54 -55q55 -69 55 -167q0 -71 -33.5 -131.5t-93.5 -97.5t-135 -37zM425 403q-46 37 -108 37q-77 0 -126 -53t-49 -137q0 -64 26 -108zM317 60
q77 0 126 53t49 137q0 62 -27 107l-256 -261q45 -36 108 -36z" />
    <glyph glyph-name="ugrave" unicode="&#xf9;" horiz-adv-x="607" 
d="M263 -16q-85 0 -130.5 51.5t-45.5 147.5v317h85v-293q0 -79 28 -113.5t92 -34.5q65 0 102.5 44t37.5 121v276h85v-500h-80l-2 85q-20 -48 -65.5 -74.5t-106.5 -26.5zM163 773h103l107 -163h-80z" />
    <glyph glyph-name="uacute" unicode="&#xfa;" horiz-adv-x="607" 
d="M263 -16q-85 0 -130.5 51.5t-45.5 147.5v317h85v-293q0 -79 28 -113.5t92 -34.5q65 0 102.5 44t37.5 121v276h85v-500h-80l-2 85q-20 -48 -65.5 -74.5t-106.5 -26.5zM332 773h103l-130 -163h-80z" />
    <glyph glyph-name="ucircumflex" unicode="&#xfb;" horiz-adv-x="607" 
d="M263 -16q-85 0 -130.5 51.5t-45.5 147.5v317h85v-293q0 -79 28 -113.5t92 -34.5q65 0 102.5 44t37.5 121v276h85v-500h-80l-2 85q-20 -48 -65.5 -74.5t-106.5 -26.5zM263 773h72l139 -163h-86l-89 105l-89 -105h-86z" />
    <glyph glyph-name="udieresis" unicode="&#xfc;" horiz-adv-x="607" 
d="M263 -16q-85 0 -130.5 51.5t-45.5 147.5v317h85v-293q0 -79 28 -113.5t92 -34.5q65 0 102.5 44t37.5 121v276h85v-500h-80l-2 85q-20 -48 -65.5 -74.5t-106.5 -26.5zM203 640q-24 0 -39 15t-15 40q0 24 15.5 40t38.5 16q24 0 39.5 -15.5t15.5 -40.5q0 -24 -15.5 -39.5
t-39.5 -15.5zM394 640q-24 0 -39 15t-15 40q0 24 15.5 40t38.5 16q24 0 39.5 -15.5t15.5 -40.5q0 -24 -15.5 -39.5t-39.5 -15.5z" />
    <glyph glyph-name="yacute" unicode="&#xfd;" horiz-adv-x="554" 
d="M91 -254q-24 0 -44.5 5t-31.5 14l10 74q11 -7 28 -11.5t34 -4.5q30 0 51 14t40.5 45t46.5 92l15 35l-220 491h89l175 -405l163 405h87l-227 -535q-35 -82 -67.5 -130t-67 -68.5t-81.5 -20.5zM312 773h103l-130 -163h-80z" />
    <glyph glyph-name="thorn" unicode="&#xfe;" horiz-adv-x="661" 
d="M90 -245v1055h85v-401q29 52 78.5 79.5t112.5 27.5q67 0 121.5 -33t86.5 -94t32 -139q0 -70 -31.5 -130.5t-89.5 -98t-129 -37.5q-59 0 -106 27.5t-75 78.5v-335h-85zM344 60q77 0 126 53t49 137t-49 137t-126 53t-126 -53t-49 -137t49 -137t126 -53z" />
    <glyph glyph-name="ydieresis" unicode="&#xff;" horiz-adv-x="554" 
d="M91 -254q-24 0 -44.5 5t-31.5 14l10 74q11 -7 28 -11.5t34 -4.5q30 0 51 14t40.5 45t46.5 92l15 35l-220 491h89l175 -405l163 405h87l-227 -535q-35 -82 -67.5 -130t-67 -68.5t-81.5 -20.5zM183 640q-24 0 -39 15t-15 40q0 24 15.5 40t38.5 16q24 0 39.5 -15.5
t15.5 -40.5q0 -24 -15.5 -39.5t-39.5 -15.5zM374 640q-24 0 -39 15t-15 40q0 24 15.5 40t38.5 16q24 0 39.5 -15.5t15.5 -40.5q0 -24 -15.5 -39.5t-39.5 -15.5z" />
    <glyph glyph-name="Amacron" unicode="&#x100;" horiz-adv-x="767" 
d="M334 760h99l309 -760h-97l-91 230h-347l-90 -230h-92zM525 305l-144 367l-144 -367h288zM230 927h306v-73h-306v73z" />
    <glyph glyph-name="amacron" unicode="&#x101;" horiz-adv-x="562" 
d="M226 -16q-79 0 -127.5 43t-48.5 114q0 77 57 123t152 46q75 0 140 -27v9q0 152 -149 152q-86 0 -162 -53l-9 70q31 25 78.5 40t98.5 15q105 0 162 -55.5t57 -157.5v-303h-71l-2 81q-20 -44 -68.5 -70.5t-107.5 -26.5zM239 54q75 0 116 42t44 122q-58 25 -135 25
q-65 0 -99.5 -25t-34.5 -72q0 -44 28.5 -68t80.5 -24zM107 720h306v-73h-306v73z" />
    <glyph glyph-name="Abreve" unicode="&#x102;" horiz-adv-x="767" 
d="M334 760h99l309 -760h-97l-91 230h-347l-90 -230h-92zM525 305l-144 367l-144 -367h288zM383 825q-74 0 -116 36t-42 99v7t1 6h68q0 -41 23 -63t66 -22t66 22t23 63h68q1 -3 1 -6v-7q0 -63 -42 -99t-116 -36z" />
    <glyph glyph-name="abreve" unicode="&#x103;" horiz-adv-x="562" 
d="M226 -16q-79 0 -127.5 43t-48.5 114q0 77 57 123t152 46q75 0 140 -27v9q0 152 -149 152q-86 0 -162 -53l-9 70q31 25 78.5 40t98.5 15q105 0 162 -55.5t57 -157.5v-303h-71l-2 81q-20 -44 -68.5 -70.5t-107.5 -26.5zM239 54q75 0 116 42t44 122q-58 25 -135 25
q-65 0 -99.5 -25t-34.5 -72q0 -44 28.5 -68t80.5 -24zM260 599q-70 0 -110.5 38.5t-40.5 104.5q0 9 1 12h65q0 -93 85 -93t85 93h65q1 -3 1 -12q0 -66 -40.5 -104.5t-110.5 -38.5z" />
    <glyph glyph-name="Aogonek" unicode="&#x104;" horiz-adv-x="767" 
d="M334 760h99l309 -760h-97l-91 230h-347l-90 -230h-92zM525 305l-144 367l-144 -367h288zM666 -252q-49 0 -77.5 24t-28.5 66q0 48 37.5 97.5t104.5 90.5l40 -26q-50 -37 -78 -74.5t-28 -68.5q0 -38 44 -38q32 0 60 15l9 -66q-31 -20 -83 -20z" />
    <glyph glyph-name="aogonek" unicode="&#x105;" horiz-adv-x="562" 
d="M226 -16q-79 0 -127.5 43t-48.5 114q0 77 57 123t152 46q75 0 140 -27v9q0 152 -149 152q-86 0 -162 -53l-9 70q31 25 78.5 40t98.5 15q105 0 162 -55.5t57 -157.5v-303h-71l-2 81q-20 -44 -68.5 -70.5t-107.5 -26.5zM239 54q75 0 116 42t44 122q-58 25 -135 25
q-65 0 -99.5 -25t-34.5 -72q0 -44 28.5 -68t80.5 -24zM400 -252q-49 0 -77.5 24t-28.5 66q0 48 37.5 98t103.5 90l40 -26q-48 -35 -76.5 -73.5t-28.5 -69.5q0 -38 44 -38q32 0 60 15l9 -66q-31 -20 -83 -20z" />
    <glyph glyph-name="Cacute" unicode="&#x106;" horiz-adv-x="766" 
d="M451 -11q-111 0 -201 47.5t-142.5 136t-52.5 201.5q0 112 50 202t143 142.5t214 52.5q59 0 122.5 -17t110.5 -46l-16 -81q-67 34 -119.5 48t-107.5 14q-87 0 -155 -38t-107.5 -108.5t-39.5 -163.5q0 -91 36.5 -160.5t106 -108.5t163.5 -39q54 0 115 15t120 42l10 -80
q-118 -59 -250 -59zM459 964h114l-134 -129h-90z" />
    <glyph glyph-name="cacute" unicode="&#x107;" horiz-adv-x="539" 
d="M327 -13q-80 0 -141.5 31t-96 90t-34.5 139q0 77 33 137t94.5 94.5t143.5 34.5q39 0 78 -10t70 -27l-12 -73q-29 15 -66.5 24.5t-69.5 9.5q-83 0 -133.5 -50.5t-50.5 -135.5q0 -88 50.5 -138t139.5 -50q66 0 142 33l10 -71q-32 -18 -73.5 -28t-83.5 -10zM329 773h103
l-130 -163h-80z" />
    <glyph glyph-name="Cdotaccent" unicode="&#x10a;" horiz-adv-x="766" 
d="M451 -11q-111 0 -201 47.5t-142.5 136t-52.5 201.5q0 112 50 202t143 142.5t214 52.5q59 0 122.5 -17t110.5 -46l-16 -81q-67 34 -119.5 48t-107.5 14q-87 0 -155 -38t-107.5 -108.5t-39.5 -163.5q0 -91 36.5 -160.5t106 -108.5t163.5 -39q54 0 115 15t120 42l10 -80
q-118 -59 -250 -59zM425 829q-26 0 -42 16t-16 43q0 26 16.5 43t41.5 17q26 0 42.5 -16.5t16.5 -43.5q0 -26 -16.5 -42.5t-42.5 -16.5z" />
    <glyph glyph-name="cdotaccent" unicode="&#x10b;" horiz-adv-x="539" 
d="M327 -13q-80 0 -141.5 31t-96 90t-34.5 139q0 77 33 137t94.5 94.5t143.5 34.5q39 0 78 -10t70 -27l-12 -73q-29 15 -66.5 24.5t-69.5 9.5q-83 0 -133.5 -50.5t-50.5 -135.5q0 -88 50.5 -138t139.5 -50q66 0 142 33l10 -71q-32 -18 -73.5 -28t-83.5 -10zM296 635
q-26 0 -42 16t-16 43q0 26 16.5 43t41.5 17q26 0 42.5 -16.5t16.5 -43.5q0 -26 -16.5 -42.5t-42.5 -16.5z" />
    <glyph glyph-name="Ccaron" unicode="&#x10c;" horiz-adv-x="766" 
d="M451 -11q-111 0 -201 47.5t-142.5 136t-52.5 201.5q0 112 50 202t143 142.5t214 52.5q59 0 122.5 -17t110.5 -46l-16 -81q-67 34 -119.5 48t-107.5 14q-87 0 -155 -38t-107.5 -108.5t-39.5 -163.5q0 -91 36.5 -160.5t106 -108.5t163.5 -39q54 0 115 15t120 42l10 -80
q-118 -59 -250 -59zM245 977h95l85 -88l85 88h95l-140 -142h-80z" />
    <glyph glyph-name="ccaron" unicode="&#x10d;" horiz-adv-x="539" 
d="M327 -13q-80 0 -141.5 31t-96 90t-34.5 139q0 77 33 137t94.5 94.5t143.5 34.5q39 0 78 -10t70 -27l-12 -73q-29 15 -66.5 24.5t-69.5 9.5q-83 0 -133.5 -50.5t-50.5 -135.5q0 -88 50.5 -138t139.5 -50q66 0 142 33l10 -71q-32 -18 -73.5 -28t-83.5 -10zM121 773h86
l89 -106l89 106h86l-139 -163h-72z" />
    <glyph glyph-name="Dcaron" unicode="&#x10e;" horiz-adv-x="835" 
d="M105 760h276q120 0 210 -45t139.5 -130.5t49.5 -203.5q0 -182 -109.5 -281.5t-308.5 -99.5h-257v760zM195 77h169q160 0 240.5 76t80.5 227t-80.5 227t-239.5 76h-170v-606zM220 977h95l85 -88l85 88h95l-140 -142h-80z" />
    <glyph glyph-name="dcaron" unicode="&#x10f;" horiz-adv-x="661" 
d="M295 -16q-67 0 -121.5 33t-86.5 94t-32 139q0 70 31.5 130.5t89.5 98t129 37.5q57 0 104.5 -28t76.5 -79v401h85v-810h-83l-2 91q-29 -52 -78.5 -79.5t-112.5 -27.5zM317 60q77 0 126 53t49 137t-49 137t-126 53t-126 -53t-49 -137t49 -137t126 -53zM652 810h90l-44 -230
h-58z" />
    <glyph glyph-name="Dcroat" unicode="&#x110;" horiz-adv-x="845" 
d="M115 348h-105v70h105v342h276q120 0 210 -45t139.5 -130.5t49.5 -203.5q0 -182 -109.5 -281.5t-308.5 -99.5h-257v348zM205 77h169q160 0 240.5 76t80.5 227t-80.5 227t-239.5 76h-170v-265h195v-70h-195v-271z" />
    <glyph glyph-name="dcroat" unicode="&#x111;" horiz-adv-x="661" 
d="M295 -16q-67 0 -121.5 33t-86.5 94t-32 139q0 70 31.5 130.5t89.5 98t129 37.5q57 0 104.5 -28t76.5 -79v205h-176v66h176v130h85v-130h78v-66h-78v-614h-83l-2 91q-29 -52 -78.5 -79.5t-112.5 -27.5zM317 60q77 0 126 53t49 137t-49 137t-126 53t-126 -53t-49 -137
t49 -137t126 -53z" />
    <glyph glyph-name="Emacron" unicode="&#x112;" horiz-adv-x="663" 
d="M105 760h468v-77h-378v-254h338v-77h-338v-275h393v-77h-483v760zM191 927h306v-73h-306v73z" />
    <glyph glyph-name="emacron" unicode="&#x113;" horiz-adv-x="594" 
d="M332 -16q-128 0 -202.5 71t-74.5 193q0 75 30.5 136t87.5 96.5t130 35.5q101 0 163.5 -68t62.5 -178q0 -13 -0.5 -24t-1.5 -23h-388q9 -79 60 -121t137 -42q88 0 172 41l10 -72q-34 -21 -83.5 -33t-102.5 -12zM447 290q-4 73 -42.5 113t-106.5 40q-65 0 -107 -40.5
t-51 -112.5h307zM144 720h306v-73h-306v73z" />
    <glyph glyph-name="Edotaccent" unicode="&#x116;" horiz-adv-x="663" 
d="M105 760h468v-77h-378v-254h338v-77h-338v-275h393v-77h-483v760zM344 829q-26 0 -42 16t-16 43q0 26 16.5 43t41.5 17q26 0 42.5 -16.5t16.5 -43.5q0 -26 -16.5 -42.5t-42.5 -16.5z" />
    <glyph glyph-name="edotaccent" unicode="&#x117;" horiz-adv-x="594" 
d="M332 -16q-128 0 -202.5 71t-74.5 193q0 75 30.5 136t87.5 96.5t130 35.5q101 0 163.5 -68t62.5 -178q0 -13 -0.5 -24t-1.5 -23h-388q9 -79 60 -121t137 -42q88 0 172 41l10 -72q-34 -21 -83.5 -33t-102.5 -12zM447 290q-4 73 -42.5 113t-106.5 40q-65 0 -107 -40.5
t-51 -112.5h307zM297 635q-26 0 -42 16t-16 43q0 26 16.5 43t41.5 17q26 0 42.5 -16.5t16.5 -43.5q0 -26 -16.5 -42.5t-42.5 -16.5z" />
    <glyph glyph-name="Eogonek" unicode="&#x118;" horiz-adv-x="663" 
d="M105 760h468v-77h-378v-254h338v-77h-338v-275h393v-77h-483v760zM512 -252q-49 0 -77.5 24t-28.5 66q0 48 37.5 97.5t104.5 90.5l40 -26q-50 -37 -78 -74.5t-28 -68.5q0 -38 44 -38q32 0 60 15l9 -66q-31 -20 -83 -20z" />
    <glyph glyph-name="eogonek" unicode="&#x119;" horiz-adv-x="594" 
d="M332 -16q-128 0 -202.5 71t-74.5 193q0 75 30.5 136t87.5 96.5t130 35.5q101 0 163.5 -68t62.5 -178q0 -13 -0.5 -24t-1.5 -23h-388q9 -79 60 -121t137 -42q88 0 172 41l10 -72q-34 -21 -83.5 -33t-102.5 -12zM447 290q-4 73 -42.5 113t-106.5 40q-65 0 -107 -40.5
t-51 -112.5h307zM404 -252q-51 0 -79 24t-28 67q0 35 20.5 70.5t58.5 66t87 48.5l55 5q-145 -98 -145 -172q0 -38 44 -38q32 0 60 15l9 -66q-31 -20 -82 -20z" />
    <glyph glyph-name="Ecaron" unicode="&#x11a;" horiz-adv-x="663" 
d="M105 760h468v-77h-378v-254h338v-77h-338v-275h393v-77h-483v760zM164 977h95l85 -88l85 88h95l-140 -142h-80z" />
    <glyph glyph-name="ecaron" unicode="&#x11b;" horiz-adv-x="594" 
d="M332 -16q-128 0 -202.5 71t-74.5 193q0 75 30.5 136t87.5 96.5t130 35.5q101 0 163.5 -68t62.5 -178q0 -13 -0.5 -24t-1.5 -23h-388q9 -79 60 -121t137 -42q88 0 172 41l10 -72q-34 -21 -83.5 -33t-102.5 -12zM447 290q-4 73 -42.5 113t-106.5 40q-65 0 -107 -40.5
t-51 -112.5h307zM122 773h86l89 -106l89 106h86l-139 -163h-72z" />
    <glyph glyph-name="Gbreve" unicode="&#x11e;" horiz-adv-x="818" 
d="M456 -11q-114 0 -205 47t-143.5 135.5t-52.5 204.5q0 111 50 200.5t143 142t214 52.5q69 0 135.5 -16t122.5 -47l-17 -78q-53 28 -118.5 43.5t-132.5 15.5q-87 0 -155 -38t-107.5 -108.5t-39.5 -163.5q0 -92 37 -161.5t106.5 -108t164.5 -38.5q102 0 192 28v223h-179v77
h267v-357q-134 -53 -282 -53zM420 825q-74 0 -116 36t-42 99v7t1 6h68q0 -41 23 -63t66 -22t66 22t23 63h68q1 -3 1 -6v-7q0 -63 -42 -99t-116 -36z" />
    <glyph glyph-name="gbreve" unicode="&#x11f;" horiz-adv-x="563" 
d="M264 -255q-110 0 -172 39t-62 110q0 43 26.5 77t72.5 49q-33 9 -51.5 31.5t-18.5 53.5t20 55t57 39q-36 23 -55.5 59.5t-19.5 81.5q0 79 57.5 127.5t152.5 48.5q31 0 60 -6.5t49 -17.5l161 10v-70l-99 7q39 -40 39 -99q0 -79 -57.5 -127.5t-152.5 -48.5q-46 0 -85 12
q-49 -21 -49 -57q0 -29 25 -40t93 -11h31q117 0 174 -37.5t57 -114.5q0 -52 -30 -90.5t-87 -59.5t-136 -21zM273 -188q77 0 120 26t43 72t-37 67t-118 21h-24q-149 0 -149 -93q0 -44 43.5 -68.5t121.5 -24.5zM271 227q62 0 96.5 30t34.5 83t-34.5 83t-96.5 30t-96.5 -30
t-34.5 -83t34.5 -83t96.5 -30zM286 599q-70 0 -110.5 38.5t-40.5 104.5q0 9 1 12h65q0 -93 85 -93t85 93h65q1 -3 1 -12q0 -66 -40.5 -104.5t-110.5 -38.5z" />
    <glyph glyph-name="Gdotaccent" unicode="&#x120;" horiz-adv-x="818" 
d="M456 -11q-114 0 -205 47t-143.5 135.5t-52.5 204.5q0 111 50 200.5t143 142t214 52.5q69 0 135.5 -16t122.5 -47l-17 -78q-53 28 -118.5 43.5t-132.5 15.5q-87 0 -155 -38t-107.5 -108.5t-39.5 -163.5q0 -92 37 -161.5t106.5 -108t164.5 -38.5q102 0 192 28v223h-179v77
h267v-357q-134 -53 -282 -53zM420 829q-26 0 -42 16t-16 43q0 26 16.5 43t41.5 17q26 0 42.5 -16.5t16.5 -43.5q0 -26 -16.5 -42.5t-42.5 -16.5z" />
    <glyph glyph-name="gdotaccent" unicode="&#x121;" horiz-adv-x="563" 
d="M264 -255q-110 0 -172 39t-62 110q0 43 26.5 77t72.5 49q-33 9 -51.5 31.5t-18.5 53.5t20 55t57 39q-36 23 -55.5 59.5t-19.5 81.5q0 79 57.5 127.5t152.5 48.5q31 0 60 -6.5t49 -17.5l161 10v-70l-99 7q39 -40 39 -99q0 -79 -57.5 -127.5t-152.5 -48.5q-46 0 -85 12
q-49 -21 -49 -57q0 -29 25 -40t93 -11h31q117 0 174 -37.5t57 -114.5q0 -52 -30 -90.5t-87 -59.5t-136 -21zM273 -188q77 0 120 26t43 72t-37 67t-118 21h-24q-149 0 -149 -93q0 -44 43.5 -68.5t121.5 -24.5zM271 227q62 0 96.5 30t34.5 83t-34.5 83t-96.5 30t-96.5 -30
t-34.5 -83t34.5 -83t96.5 -30zM286 635q-26 0 -42 16t-16 43q0 26 16.5 43t41.5 17q26 0 42.5 -16.5t16.5 -43.5q0 -26 -16.5 -42.5t-42.5 -16.5z" />
    <glyph glyph-name="uni0122" unicode="&#x122;" horiz-adv-x="818" 
d="M456 -11q-114 0 -205 47t-143.5 135.5t-52.5 204.5q0 111 50 200.5t143 142t214 52.5q69 0 135.5 -16t122.5 -47l-17 -78q-53 28 -118.5 43.5t-132.5 15.5q-87 0 -155 -38t-107.5 -108.5t-39.5 -163.5q0 -92 37 -161.5t106.5 -108t164.5 -38.5q102 0 192 28v223h-179v77
h267v-357q-134 -53 -282 -53zM331 -245q43 71 45 180h88q-1 -29 -10 -62.5t-24.5 -65t-33.5 -52.5h-65z" />
    <glyph glyph-name="uni0123" unicode="&#x123;" horiz-adv-x="563" 
d="M264 -255q-110 0 -172 39t-62 110q0 43 26.5 77t72.5 49q-33 9 -51.5 31.5t-18.5 53.5t20 55t57 39q-36 23 -55.5 59.5t-19.5 81.5q0 79 57.5 127.5t152.5 48.5q31 0 60 -6.5t49 -17.5l161 10v-70l-99 7q39 -40 39 -99q0 -79 -57.5 -127.5t-152.5 -48.5q-46 0 -85 12
q-49 -21 -49 -57q0 -29 25 -40t93 -11h31q117 0 174 -37.5t57 -114.5q0 -52 -30 -90.5t-87 -59.5t-136 -21zM273 -188q77 0 120 26t43 72t-37 67t-118 21h-24q-149 0 -149 -93q0 -44 43.5 -68.5t121.5 -24.5zM271 227q62 0 96.5 30t34.5 83t-34.5 83t-96.5 30t-96.5 -30
t-34.5 -83t34.5 -83t96.5 -30zM234 610q5 91 67 163h64q-21 -35 -30 -70t-10 -93h-91z" />
    <glyph glyph-name="Hbar" unicode="&#x126;" horiz-adv-x="864" 
d="M115 558h-105v70h105v132h90v-132h454v132h90v-132h105v-70h-105v-558h-90v358h-454v-358h-90v558zM659 433v125h-454v-125h454z" />
    <glyph glyph-name="hbar" unicode="&#x127;" horiz-adv-x="610" 
d="M90 614h-90v66h90v130h85v-130h159v-66h-159v-193q22 45 65 70t98 25q89 0 137 -55.5t48 -158.5v-302h-85v287q0 78 -29.5 116t-90.5 38q-67 0 -105 -44t-38 -121v-276h-85v614z" />
    <glyph glyph-name="Itilde" unicode="&#x128;" horiz-adv-x="300" 
d="M105 760h90v-760h-90v760zM221 834q-27 1 -47 11t-35 23.5t-28.5 23.5t-28.5 11q-37 0 -37 -68h-64q0 66 25.5 101t73.5 35q27 -1 47 -11t35 -23.5t28.5 -23.5t28.5 -11q37 0 37 68h64q0 -66 -25.5 -101t-73.5 -35z" />
    <glyph glyph-name="itilde" unicode="&#x129;" horiz-adv-x="265" 
d="M90 500h85v-500h-85v500zM203 621q-27 1 -47 11t-35 23.5t-28.5 23.5t-28.5 11q-37 0 -37 -68h-64q0 66 25.5 101t73.5 35q27 -1 47 -11t35 -23.5t28.5 -23.5t28.5 -11q37 0 37 68h64q0 -66 -25.5 -101t-73.5 -35z" />
    <glyph glyph-name="Imacron" unicode="&#x12a;" horiz-adv-x="300" 
d="M105 760h90v-760h-90v760zM-3 927h306v-73h-306v73z" />
    <glyph glyph-name="imacron" unicode="&#x12b;" horiz-adv-x="265" 
d="M90 500h85v-500h-85v500zM-21 720h306v-73h-306v73z" />
    <glyph glyph-name="Iogonek" unicode="&#x12e;" horiz-adv-x="300" 
d="M105 760h90v-760h-90v760zM119 -252q-49 0 -77.5 24t-28.5 66q0 48 37.5 97.5t104.5 90.5l40 -26q-50 -37 -78 -74.5t-28 -68.5q0 -38 44 -38q32 0 60 15l9 -66q-31 -20 -83 -20z" />
    <glyph glyph-name="iogonek" unicode="&#x12f;" horiz-adv-x="265" 
d="M90 500h85v-500h-85v500zM132 634q-25 0 -41.5 17t-16.5 43t16.5 43t41.5 17t41.5 -17t16.5 -43t-16.5 -43t-41.5 -17zM100 -252q-49 0 -77.5 24t-28.5 66q0 48 37.5 98t103.5 90l40 -26q-48 -35 -76.5 -73.5t-28.5 -69.5q0 -38 44 -38q32 0 60 15l9 -66q-31 -20 -83 -20
z" />
    <glyph glyph-name="Idotaccent" unicode="&#x130;" horiz-adv-x="300" 
d="M105 760h90v-760h-90v760zM150 829q-26 0 -42 16t-16 43q0 26 16.5 43t41.5 17q26 0 42.5 -16.5t16.5 -43.5q0 -26 -16.5 -42.5t-42.5 -16.5z" />
    <glyph glyph-name="dotlessi" unicode="&#x131;" horiz-adv-x="265" 
d="M90 500h85v-500h-85v500z" />
    <glyph glyph-name="IJ" unicode="&#x132;" horiz-adv-x="844" 
d="M105 760h90v-760h-90v760zM505 -16q-46 0 -92.5 12t-77.5 31l10 81q33 -21 74 -32t84 -11q83 0 117 45.5t34 155.5v494h90v-502q0 -141 -58 -207.5t-181 -66.5z" />
    <glyph glyph-name="ij" unicode="&#x133;" horiz-adv-x="530" 
d="M90 500h85v-500h-85v500zM132 634q-25 0 -41.5 17t-16.5 43t16.5 43t41.5 17t41.5 -17t16.5 -43t-16.5 -43t-41.5 -17zM262 -254q-28 0 -56 6t-45 16l9 72q46 -20 92 -20q47 0 70 29t23 90v561h85v-558q0 -99 -44 -147.5t-134 -48.5zM397 634q-25 0 -41.5 17t-16.5 43
t16.5 43t41.5 17t41.5 -17t16.5 -43t-16.5 -43t-41.5 -17z" />
    <glyph glyph-name="uni0136" unicode="&#x136;" horiz-adv-x="735" 
d="M105 760h90v-343l369 343h123l-399 -362l437 -398h-132l-398 367v-367h-90v760zM302 -245q43 71 45 180h88q-1 -29 -10 -62.5t-24.5 -65t-33.5 -52.5h-65z" />
    <glyph glyph-name="uni0137" unicode="&#x137;" horiz-adv-x="564" 
d="M90 810h85v-511l229 201h110l-256 -220l296 -280h-116l-263 252v-252h-85v810zM220 -245q43 71 45 180h88q-1 -29 -10 -62.5t-24.5 -65t-33.5 -52.5h-65z" />
    <glyph glyph-name="kgreenlandic" unicode="&#x138;" horiz-adv-x="566" 
d="M90 500h85v-214l229 214h110l-256 -232l298 -268h-118l-263 237v-237h-85v500z" />
    <glyph glyph-name="Lacute" unicode="&#x139;" horiz-adv-x="603" 
d="M105 760h90v-683h373v-77h-463v760zM184 964h114l-134 -129h-90z" />
    <glyph glyph-name="lacute" unicode="&#x13a;" horiz-adv-x="265" 
d="M90 810h85v-810h-85v810zM166 979h114l-134 -129h-90z" />
    <glyph glyph-name="uni013B" unicode="&#x13b;" horiz-adv-x="603" 
d="M105 760h90v-683h373v-77h-463v760zM247 -245q43 71 45 180h88q-1 -29 -10 -62.5t-24.5 -65t-33.5 -52.5h-65z" />
    <glyph glyph-name="uni013C" unicode="&#x13c;" horiz-adv-x="265" 
d="M90 810h85v-810h-85v810zM48 -245q43 71 45 180h88q-1 -29 -10 -62.5t-24.5 -65t-33.5 -52.5h-65z" />
    <glyph glyph-name="Lcaron" unicode="&#x13d;" horiz-adv-x="603" 
d="M105 760h90v-683h373v-77h-463v760zM311 810h90l-44 -230h-58z" />
    <glyph glyph-name="lcaron" unicode="&#x13e;" horiz-adv-x="265" 
d="M90 810h85v-810h-85v810zM256 810h90l-44 -230h-58z" />
    <glyph glyph-name="Lslash" unicode="&#x141;" horiz-adv-x="613" 
d="M115 271l-92 -65l-7 78l99 70v406h90v-349l199 142l7 -78l-206 -147v-251h373v-77h-463v271z" />
    <glyph glyph-name="lslash" unicode="&#x142;" horiz-adv-x="315" 
d="M115 329l-93 -55l-7 75l100 59v402h85v-357l93 55l7 -75l-100 -59v-374h-85v329z" />
    <glyph glyph-name="Nacute" unicode="&#x143;" horiz-adv-x="860" 
d="M105 760h87l480 -631v631h83v-760h-87l-480 630v-630h-83v760zM456 964h114l-134 -129h-90z" />
    <glyph glyph-name="nacute" unicode="&#x144;" horiz-adv-x="610" 
d="M90 500h80l1 -87q21 49 65 76t102 27q89 0 137 -55.5t48 -158.5v-302h-85v287q0 78 -29.5 116t-90.5 38q-67 0 -105 -44t-38 -121v-276h-85v500zM339 773h103l-130 -163h-80z" />
    <glyph glyph-name="uni0145" unicode="&#x145;" horiz-adv-x="860" 
d="M105 760h87l480 -631v631h83v-760h-87l-480 630v-630h-83v760zM335 -245q43 71 45 180h88q-1 -29 -10 -62.5t-24.5 -65t-33.5 -52.5h-65z" />
    <glyph glyph-name="uni0146" unicode="&#x146;" horiz-adv-x="610" 
d="M90 500h80l1 -87q21 49 65 76t102 27q89 0 137 -55.5t48 -158.5v-302h-85v287q0 78 -29.5 116t-90.5 38q-67 0 -105 -44t-38 -121v-276h-85v500zM212 -245q43 71 45 180h88q-1 -29 -10 -62.5t-24.5 -65t-33.5 -52.5h-65z" />
    <glyph glyph-name="Ncaron" unicode="&#x147;" horiz-adv-x="860" 
d="M105 760h87l480 -631v631h83v-760h-87l-480 630v-630h-83v760zM242 977h95l85 -88l85 88h95l-140 -142h-80z" />
    <glyph glyph-name="ncaron" unicode="&#x148;" horiz-adv-x="610" 
d="M90 500h80l1 -87q21 49 65 76t102 27q89 0 137 -55.5t48 -158.5v-302h-85v287q0 78 -29.5 116t-90.5 38q-67 0 -105 -44t-38 -121v-276h-85v500zM131 773h86l89 -106l89 106h86l-139 -163h-72z" />
    <glyph glyph-name="Omacron" unicode="&#x14c;" horiz-adv-x="890" 
d="M445 66q82 0 149 39t106.5 110.5t39.5 164.5q0 87 -36.5 158.5t-104 113.5t-154.5 42q-82 0 -149 -39t-106.5 -110.5t-39.5 -164.5q0 -87 36.5 -158.5t104 -113.5t154.5 -42zM445 -16q-105 0 -193.5 50t-142.5 141t-54 205q0 106 49.5 196t139.5 145t201 55
q105 0 193.5 -50t142.5 -141t54 -205q0 -106 -49.5 -196t-139.5 -145t-201 -55zM292 927h306v-73h-306v73z" />
    <glyph glyph-name="omacron" unicode="&#x14d;" horiz-adv-x="634" 
d="M317 -16q-72 0 -131.5 33.5t-95 94.5t-35.5 138q0 71 33.5 131.5t93.5 97.5t135 37q72 0 131.5 -33.5t95 -94.5t35.5 -138q0 -71 -33.5 -131.5t-93.5 -97.5t-135 -37zM317 60q77 0 126 53t49 137t-49 137t-126 53t-126 -53t-49 -137t49 -137t126 -53zM164 720h306v-73
h-306v73z" />
    <glyph glyph-name="Ohungarumlaut" unicode="&#x150;" horiz-adv-x="890" 
d="M445 66q82 0 149 39t106.5 110.5t39.5 164.5q0 87 -36.5 158.5t-104 113.5t-154.5 42q-82 0 -149 -39t-106.5 -110.5t-39.5 -164.5q0 -87 36.5 -158.5t104 -113.5t154.5 -42zM445 -16q-105 0 -193.5 50t-142.5 141t-54 205q0 106 49.5 196t139.5 145t201 55
q105 0 193.5 -50t142.5 -141t54 -205q0 -106 -49.5 -196t-139.5 -145t-201 -55zM379 964h103l-107 -129h-82zM555 964h103l-107 -129h-82z" />
    <glyph glyph-name="ohungarumlaut" unicode="&#x151;" horiz-adv-x="634" 
d="M317 -16q-72 0 -131.5 33.5t-95 94.5t-35.5 138q0 71 33.5 131.5t93.5 97.5t135 37q72 0 131.5 -33.5t95 -94.5t35.5 -138q0 -71 -33.5 -131.5t-93.5 -97.5t-135 -37zM317 60q77 0 126 53t49 137t-49 137t-126 53t-126 -53t-49 -137t49 -137t126 -53zM268 773h98
l-114 -163h-75zM439 773h98l-114 -163h-75z" />
    <glyph glyph-name="OE" unicode="&#x152;" horiz-adv-x="1291" 
d="M445 -16q-105 0 -193.5 50t-142.5 141t-54 205q0 106 49.5 196t139.5 145t201 55q93 0 169 -41t119 -115v140h468v-77h-378v-254h338v-77h-338v-275h393v-77h-483v142q-42 -74 -118 -116t-170 -42zM445 66q82 0 149 39t106.5 110.5t39.5 164.5q0 87 -36.5 158.5
t-104 113.5t-154.5 42q-82 0 -149 -39t-106.5 -110.5t-39.5 -164.5q0 -87 36.5 -158.5t104 -113.5t154.5 -42z" />
    <glyph glyph-name="oe" unicode="&#x153;" horiz-adv-x="1028" 
d="M317 60q77 0 126 53t49 137t-49 137t-126 53t-126 -53t-49 -137t49 -137t126 -53zM317 -16q-72 0 -131.5 33.5t-95 94.5t-35.5 138q0 71 33.5 131.5t93.5 97.5t135 37q68 0 126 -32.5t88 -87.5q29 57 83.5 88.5t122.5 31.5q101 0 163.5 -68t62.5 -178q0 -13 -0.5 -24
t-1.5 -23h-388q9 -79 60 -121t137 -42q88 0 172 41l10 -72q-34 -21 -83.5 -33t-102.5 -12q-175 0 -240 128q-31 -60 -86.5 -94t-122.5 -34zM881 290q-4 73 -42.5 113t-106.5 40q-65 0 -107 -40.5t-51 -112.5h307z" />
    <glyph glyph-name="Racute" unicode="&#x154;" horiz-adv-x="699" 
d="M105 760h217q118 0 189.5 -63t71.5 -166q0 -70 -38 -125t-105 -82l219 -324h-107l-200 304q-7 -1 -33 -1h-127v-303h-87v760zM192 378h110q94 0 141.5 38.5t47.5 114.5q0 75 -46.5 114.5t-134.5 39.5h-118v-307zM354 964h114l-134 -129h-90z" />
    <glyph glyph-name="racute" unicode="&#x155;" horiz-adv-x="417" 
d="M90 500h80l1 -104q21 53 61 82t91 29q15 0 32.5 -3.5t26.5 -7.5l-9 -80q-29 12 -60 12q-65 0 -101.5 -48.5t-36.5 -133.5v-246h-85v500zM255 773h103l-130 -163h-80z" />
    <glyph glyph-name="Rcaron" unicode="&#x158;" horiz-adv-x="699" 
d="M105 760h217q118 0 189.5 -63t71.5 -166q0 -70 -38 -125t-105 -82l219 -324h-107l-200 304q-7 -1 -33 -1h-127v-303h-87v760zM192 378h110q94 0 141.5 38.5t47.5 114.5q0 75 -46.5 114.5t-134.5 39.5h-118v-307zM140 977h95l85 -88l85 88h95l-140 -142h-80z" />
    <glyph glyph-name="rcaron" unicode="&#x159;" horiz-adv-x="417" 
d="M90 500h80l1 -104q21 53 61 82t91 29q15 0 32.5 -3.5t26.5 -7.5l-9 -80q-29 12 -60 12q-65 0 -101.5 -48.5t-36.5 -133.5v-246h-85v500zM47 773h86l89 -106l89 106h86l-139 -163h-72z" />
    <glyph glyph-name="Sacute" unicode="&#x15a;" horiz-adv-x="666" 
d="M312 -16q-65 0 -132.5 17t-109.5 44l11 83q48 -29 110 -47t117 -18q84 0 133 36t49 98q0 39 -17 63.5t-55 44.5t-107 43q-89 29 -137.5 59.5t-69 69t-20.5 92.5q0 93 68.5 150t181.5 57q55 0 112 -14.5t102 -40.5l-15 -79q-44 26 -97 40.5t-102 14.5q-76 0 -119 -32.5
t-43 -89.5q0 -37 15.5 -60t50 -42t96.5 -40q96 -32 149 -64.5t75.5 -72t22.5 -92.5q0 -101 -72.5 -160.5t-196.5 -59.5zM360 964h114l-134 -129h-90z" />
    <glyph glyph-name="sacute" unicode="&#x15b;" horiz-adv-x="460" 
d="M211 -16q-47 0 -93.5 13t-74.5 34l13 75q31 -23 73.5 -37t81.5 -14q56 0 87 19.5t31 53.5q0 24 -10.5 38t-36 26t-74.5 26q-84 25 -120 60t-36 91q0 68 50.5 107.5t137.5 39.5q40 0 82 -11t69 -29l-14 -72q-64 41 -139 41q-50 0 -77 -17.5t-27 -49.5q0 -31 23 -49t85 -36
q95 -28 134 -63.5t39 -96.5q0 -67 -56 -108t-148 -41zM265 773h103l-130 -163h-80z" />
    <glyph glyph-name="Scedilla" unicode="&#x15e;" horiz-adv-x="666" 
d="M312 -16q-65 0 -132.5 17t-109.5 44l11 83q48 -29 110 -47t117 -18q84 0 133 36t49 98q0 39 -17 63.5t-55 44.5t-107 43q-89 29 -137.5 59.5t-69 69t-20.5 92.5q0 93 68.5 150t181.5 57q55 0 112 -14.5t102 -40.5l-15 -79q-44 26 -97 40.5t-102 14.5q-76 0 -119 -32.5
t-43 -89.5q0 -37 15.5 -60t50 -42t96.5 -40q96 -32 149 -64.5t75.5 -72t22.5 -92.5q0 -101 -72.5 -160.5t-196.5 -59.5zM292 -255q-23 0 -47.5 5.5t-37.5 12.5l14 62q29 -16 71 -16q59 0 59 38q0 36 -60 36q-28 0 -40 -3l34 130h63l-22 -76q45 0 72.5 -24.5t27.5 -64.5
q0 -46 -36 -73t-98 -27z" />
    <glyph glyph-name="scedilla" unicode="&#x15f;" horiz-adv-x="460" 
d="M211 -16q-47 0 -93.5 13t-74.5 34l13 75q31 -23 73.5 -37t81.5 -14q56 0 87 19.5t31 53.5q0 24 -10.5 38t-36 26t-74.5 26q-84 25 -120 60t-36 91q0 68 50.5 107.5t137.5 39.5q40 0 82 -11t69 -29l-14 -72q-64 41 -139 41q-50 0 -77 -17.5t-27 -49.5q0 -31 23 -49t85 -36
q95 -28 134 -63.5t39 -96.5q0 -67 -56 -108t-148 -41zM203 -255q-23 0 -47.5 5.5t-37.5 12.5l14 60q29 -16 71 -16q32 0 46.5 9.5t14.5 30.5q0 38 -62 38q-27 0 -39 -3l34 128h61l-22 -76q45 0 73 -24.5t28 -64.5q0 -46 -36 -73t-98 -27z" />
    <glyph glyph-name="Scaron" unicode="&#x160;" horiz-adv-x="666" 
d="M312 -16q-65 0 -132.5 17t-109.5 44l11 83q48 -29 110 -47t117 -18q84 0 133 36t49 98q0 39 -17 63.5t-55 44.5t-107 43q-89 29 -137.5 59.5t-69 69t-20.5 92.5q0 93 68.5 150t181.5 57q55 0 112 -14.5t102 -40.5l-15 -79q-44 26 -97 40.5t-102 14.5q-76 0 -119 -32.5
t-43 -89.5q0 -37 15.5 -60t50 -42t96.5 -40q96 -32 149 -64.5t75.5 -72t22.5 -92.5q0 -101 -72.5 -160.5t-196.5 -59.5zM146 977h95l85 -88l85 88h95l-140 -142h-80z" />
    <glyph glyph-name="scaron" unicode="&#x161;" horiz-adv-x="460" 
d="M211 -16q-47 0 -93.5 13t-74.5 34l13 75q31 -23 73.5 -37t81.5 -14q56 0 87 19.5t31 53.5q0 24 -10.5 38t-36 26t-74.5 26q-84 25 -120 60t-36 91q0 68 50.5 107.5t137.5 39.5q40 0 82 -11t69 -29l-14 -72q-64 41 -139 41q-50 0 -77 -17.5t-27 -49.5q0 -31 23 -49t85 -36
q95 -28 134 -63.5t39 -96.5q0 -67 -56 -108t-148 -41zM57 773h86l89 -106l89 106h86l-139 -163h-72z" />
    <glyph glyph-name="uni0162" unicode="&#x162;" horiz-adv-x="680" 
d="M295 683h-260v77h610v-77h-260v-683h-90v683zM318 -255q-23 0 -47.5 5.5t-37.5 12.5l14 62q29 -16 71 -16q59 0 59 38q0 36 -60 36q-28 0 -40 -3l34 130h63l-22 -76q45 0 72.5 -24.5t27.5 -64.5q0 -46 -36 -73t-98 -27z" />
    <glyph glyph-name="uni0163" unicode="&#x163;" horiz-adv-x="438" 
d="M289 -16q-85 0 -125 45.5t-40 142.5v255h-114v73h114v144h85v-144h175v-73h-175v-248q0 -64 22 -92.5t73 -28.5q48 0 99 26l10 -71q-47 -29 -124 -29zM242 -255q-23 0 -47.5 5.5t-37.5 12.5l14 60q29 -16 71 -16q32 0 46.5 9.5t14.5 30.5q0 38 -62 38q-27 0 -39 -3
l34 128h61l-22 -76q45 0 73 -24.5t28 -64.5q0 -46 -36 -73t-98 -27z" />
    <glyph glyph-name="Tcaron" unicode="&#x164;" horiz-adv-x="680" 
d="M295 683h-260v77h610v-77h-260v-683h-90v683zM160 977h95l85 -88l85 88h95l-140 -142h-80z" />
    <glyph glyph-name="tcaron" unicode="&#x165;" horiz-adv-x="438" 
d="M289 -16q-85 0 -125 45.5t-40 142.5v255h-114v73h114v144h85v-144h175v-73h-175v-248q0 -64 22 -92.5t73 -28.5q48 0 99 26l10 -71q-47 -29 -124 -29zM296 810h90l-43 -205h-58z" />
    <glyph glyph-name="Utilde" unicode="&#x168;" horiz-adv-x="840" 
d="M417 -16q-150 0 -233.5 86.5t-83.5 241.5v448h90v-440q0 -125 58.5 -189.5t171.5 -64.5t171.5 64.5t58.5 189.5v440h90v-448q0 -155 -85.5 -241.5t-237.5 -86.5zM491 834q-27 1 -47 11t-35 23.5t-28.5 23.5t-28.5 11q-37 0 -37 -68h-64q0 66 25.5 101t73.5 35
q27 -1 47 -11t35 -23.5t28.5 -23.5t28.5 -11q37 0 37 68h64q0 -66 -25.5 -101t-73.5 -35z" />
    <glyph glyph-name="utilde" unicode="&#x169;" horiz-adv-x="607" 
d="M263 -16q-85 0 -130.5 51.5t-45.5 147.5v317h85v-293q0 -79 28 -113.5t92 -34.5q65 0 102.5 44t37.5 121v276h85v-500h-80l-2 85q-20 -48 -65.5 -74.5t-106.5 -26.5zM370 621q-27 1 -47 11t-35 23.5t-28.5 23.5t-28.5 11q-37 0 -37 -68h-64q0 66 25.5 101t73.5 35
q27 -1 47 -11t35 -23.5t28.5 -23.5t28.5 -11q37 0 37 68h64q0 -66 -25.5 -101t-73.5 -35z" />
    <glyph glyph-name="Umacron" unicode="&#x16a;" horiz-adv-x="840" 
d="M417 -16q-150 0 -233.5 86.5t-83.5 241.5v448h90v-440q0 -125 58.5 -189.5t171.5 -64.5t171.5 64.5t58.5 189.5v440h90v-448q0 -155 -85.5 -241.5t-237.5 -86.5zM267 927h306v-73h-306v73z" />
    <glyph glyph-name="umacron" unicode="&#x16b;" horiz-adv-x="607" 
d="M263 -16q-85 0 -130.5 51.5t-45.5 147.5v317h85v-293q0 -79 28 -113.5t92 -34.5q65 0 102.5 44t37.5 121v276h85v-500h-80l-2 85q-20 -48 -65.5 -74.5t-106.5 -26.5zM146 720h306v-73h-306v73z" />
    <glyph glyph-name="Uring" unicode="&#x16e;" horiz-adv-x="840" 
d="M417 -16q-150 0 -233.5 86.5t-83.5 241.5v448h90v-440q0 -125 58.5 -189.5t171.5 -64.5t171.5 64.5t58.5 189.5v440h90v-448q0 -155 -85.5 -241.5t-237.5 -86.5zM420 818q-55 0 -92.5 35.5t-37.5 88.5t37.5 88.5t92.5 35.5t92.5 -35.5t37.5 -88.5t-37.5 -88.5
t-92.5 -35.5zM420 874q31 0 49.5 18.5t18.5 49.5q0 32 -18 50t-50 18t-50 -18t-18 -50q0 -31 18.5 -49.5t49.5 -18.5z" />
    <glyph glyph-name="uring" unicode="&#x16f;" horiz-adv-x="607" 
d="M263 -16q-85 0 -130.5 51.5t-45.5 147.5v317h85v-293q0 -79 28 -113.5t92 -34.5q65 0 102.5 44t37.5 121v276h85v-500h-80l-2 85q-20 -48 -65.5 -74.5t-106.5 -26.5zM299 588q-55 0 -92.5 35.5t-37.5 88.5t37.5 88.5t92.5 35.5t92.5 -35.5t37.5 -88.5t-37.5 -88.5
t-92.5 -35.5zM299 644q31 0 49.5 18.5t18.5 49.5q0 32 -18 50t-50 18t-50 -18t-18 -50q0 -31 18.5 -49.5t49.5 -18.5z" />
    <glyph glyph-name="Uhungarumlaut" unicode="&#x170;" horiz-adv-x="840" 
d="M417 -16q-150 0 -233.5 86.5t-83.5 241.5v448h90v-440q0 -125 58.5 -189.5t171.5 -64.5t171.5 64.5t58.5 189.5v440h90v-448q0 -155 -85.5 -241.5t-237.5 -86.5zM354 964h103l-107 -129h-82zM530 964h103l-107 -129h-82z" />
    <glyph glyph-name="uhungarumlaut" unicode="&#x171;" horiz-adv-x="607" 
d="M263 -16q-85 0 -130.5 51.5t-45.5 147.5v317h85v-293q0 -79 28 -113.5t92 -34.5q65 0 102.5 44t37.5 121v276h85v-500h-80l-2 85q-20 -48 -65.5 -74.5t-106.5 -26.5zM250 773h98l-114 -163h-75zM421 773h98l-114 -163h-75z" />
    <glyph glyph-name="Uogonek" unicode="&#x172;" horiz-adv-x="840" 
d="M417 -16q-150 0 -233.5 86.5t-83.5 241.5v448h90v-440q0 -125 58.5 -189.5t171.5 -64.5t171.5 64.5t58.5 189.5v440h90v-448q0 -155 -85.5 -241.5t-237.5 -86.5zM487 -252q-51 0 -79 24t-28 67q0 54 47.5 108t118.5 82h55q-145 -98 -145 -172q0 -38 44 -38q32 0 60 15
l9 -66q-31 -20 -82 -20z" />
    <glyph glyph-name="uogonek" unicode="&#x173;" horiz-adv-x="607" 
d="M263 -16q-85 0 -130.5 51.5t-45.5 147.5v317h85v-293q0 -79 28 -113.5t92 -34.5q65 0 102.5 44t37.5 121v276h85v-500h-80l-2 85q-20 -48 -65.5 -74.5t-106.5 -26.5zM442 -252q-49 0 -77.5 24t-28.5 66q0 48 37.5 98t103.5 90l40 -26q-48 -35 -76.5 -73.5t-28.5 -69.5
q0 -38 44 -38q32 0 60 15l9 -66q-31 -20 -83 -20z" />
    <glyph glyph-name="Wcircumflex" unicode="&#x174;" horiz-adv-x="1109" 
d="M30 760h93l192 -665l195 655h94l194 -651l192 661h89l-232 -760h-98l-195 647l-192 -647h-100zM515 977h80l140 -142h-95l-85 87l-85 -87h-95z" />
    <glyph glyph-name="wcircumflex" unicode="&#x175;" horiz-adv-x="814" 
d="M25 500h87l128 -410l126 410h76l133 -410l130 410h84l-175 -500h-79l-132 405l-125 -405h-79zM371 773h72l139 -163h-86l-89 105l-89 -105h-86z" />
    <glyph glyph-name="Ycircumflex" unicode="&#x176;" horiz-adv-x="693" 
d="M301 328l-286 432h101l233 -362l234 362h95l-287 -433v-327h-90v328zM306 977h80l140 -142h-95l-85 87l-85 -87h-95z" />
    <glyph glyph-name="ycircumflex" unicode="&#x177;" horiz-adv-x="554" 
d="M91 -254q-24 0 -44.5 5t-31.5 14l10 74q11 -7 28 -11.5t34 -4.5q30 0 51 14t40.5 45t46.5 92l15 35l-220 491h89l175 -405l163 405h87l-227 -535q-35 -82 -67.5 -130t-67 -68.5t-81.5 -20.5zM243 773h72l139 -163h-86l-89 105l-89 -105h-86z" />
    <glyph glyph-name="Ydieresis" unicode="&#x178;" horiz-adv-x="693" 
d="M301 328l-286 432h101l233 -362l234 362h95l-287 -433v-327h-90v328zM248 833q-24 0 -39 15t-15 40q0 24 15.5 40t38.5 16q24 0 39.5 -15.5t15.5 -40.5q0 -24 -15.5 -39.5t-39.5 -15.5zM443 833q-24 0 -39 15t-15 40q0 24 15.5 40t38.5 16q24 0 39.5 -15.5t15.5 -40.5
q0 -24 -15.5 -39.5t-39.5 -15.5z" />
    <glyph glyph-name="Zacute" unicode="&#x179;" horiz-adv-x="699" 
d="M52 76l475 607h-450v77h553v-76l-476 -607h483v-77h-585v76zM377 964h114l-134 -129h-90z" />
    <glyph glyph-name="zacute" unicode="&#x17a;" horiz-adv-x="524" 
d="M50 72l307 355h-296v73h396v-72l-309 -355h316v-73h-414v72zM287 773h103l-130 -163h-80z" />
    <glyph glyph-name="Zdotaccent" unicode="&#x17b;" horiz-adv-x="699" 
d="M52 76l475 607h-450v77h553v-76l-476 -607h483v-77h-585v76zM343 829q-26 0 -42 16t-16 43q0 26 16.5 43t41.5 17q26 0 42.5 -16.5t16.5 -43.5q0 -26 -16.5 -42.5t-42.5 -16.5z" />
    <glyph glyph-name="zdotaccent" unicode="&#x17c;" horiz-adv-x="524" 
d="M50 72l307 355h-296v73h396v-72l-309 -355h316v-73h-414v72zM254 635q-26 0 -42 16t-16 43q0 26 16.5 43t41.5 17q26 0 42.5 -16.5t16.5 -43.5q0 -26 -16.5 -42.5t-42.5 -16.5z" />
    <glyph glyph-name="Zcaron" unicode="&#x17d;" horiz-adv-x="699" 
d="M52 76l475 607h-450v77h553v-76l-476 -607h483v-77h-585v76zM163 977h95l85 -88l85 88h95l-140 -142h-80z" />
    <glyph glyph-name="zcaron" unicode="&#x17e;" horiz-adv-x="524" 
d="M50 72l307 355h-296v73h396v-72l-309 -355h316v-73h-414v72zM79 773h86l89 -106l89 106h86l-139 -163h-72z" />
    <glyph glyph-name="florin" unicode="&#x192;" horiz-adv-x="401" 
d="M30 -254q-28 0 -56 6t-45 16l9 72q46 -20 92 -20q47 0 70 29t23 90v488h-103v73h103v80q0 115 50.5 175t148.5 60q59 0 104 -21l-9 -71q-45 17 -88 17q-64 0 -92.5 -40t-28.5 -131v-69h156v-73h-156v-485q0 -99 -44 -147.5t-134 -48.5z" />
    <glyph glyph-name="uni0218" unicode="&#x218;" horiz-adv-x="666" 
d="M312 -16q-65 0 -132.5 17t-109.5 44l11 83q48 -29 110 -47t117 -18q84 0 133 36t49 98q0 39 -17 63.5t-55 44.5t-107 43q-89 29 -137.5 59.5t-69 69t-20.5 92.5q0 93 68.5 150t181.5 57q55 0 112 -14.5t102 -40.5l-15 -79q-44 26 -97 40.5t-102 14.5q-76 0 -119 -32.5
t-43 -89.5q0 -37 15.5 -60t50 -42t96.5 -40q96 -32 149 -64.5t75.5 -72t22.5 -92.5q0 -101 -72.5 -160.5t-196.5 -59.5zM231 -245q43 71 45 180h88q-1 -29 -10 -62.5t-24.5 -65t-33.5 -52.5h-65z" />
    <glyph glyph-name="uni0219" unicode="&#x219;" horiz-adv-x="460" 
d="M211 -16q-47 0 -93.5 13t-74.5 34l13 75q31 -23 73.5 -37t81.5 -14q56 0 87 19.5t31 53.5q0 24 -10.5 38t-36 26t-74.5 26q-84 25 -120 60t-36 91q0 68 50.5 107.5t137.5 39.5q40 0 82 -11t69 -29l-14 -72q-64 41 -139 41q-50 0 -77 -17.5t-27 -49.5q0 -31 23 -49t85 -36
q95 -28 134 -63.5t39 -96.5q0 -67 -56 -108t-148 -41zM131 -245q43 71 45 180h88q-1 -29 -10 -62.5t-24.5 -65t-33.5 -52.5h-65z" />
    <glyph glyph-name="uni021A" unicode="&#x21a;" horiz-adv-x="680" 
d="M295 683h-260v77h610v-77h-260v-683h-90v683zM252 -245q43 71 45 180h88q-1 -29 -10 -62.5t-24.5 -65t-33.5 -52.5h-65z" />
    <glyph glyph-name="uni021B" unicode="&#x21b;" horiz-adv-x="438" 
d="M289 -16q-85 0 -125 45.5t-40 142.5v255h-114v73h114v144h85v-144h175v-73h-175v-248q0 -64 22 -92.5t73 -28.5q48 0 99 26l10 -71q-47 -29 -124 -29zM171 -245q43 71 45 180h88q-1 -29 -10 -62.5t-24.5 -65t-33.5 -52.5h-65z" />
    <glyph glyph-name="uni0237" unicode="&#x237;" horiz-adv-x="265" 
d="M-3 -254q-28 0 -56 6t-45 16l9 72q46 -20 92 -20q47 0 70 29t23 90v561h85v-558q0 -99 -44 -147.5t-134 -48.5z" />
    <glyph glyph-name="circumflex" unicode="&#x2c6;" horiz-adv-x="500" 
d="M214 773h72l139 -163h-86l-89 105l-89 -105h-86z" />
    <glyph glyph-name="caron" unicode="&#x2c7;" horiz-adv-x="500" 
d="M75 773h86l89 -106l89 106h86l-139 -163h-72z" />
    <glyph glyph-name="uni02C9" unicode="&#x2c9;" horiz-adv-x="500" 
d="M97 720h306v-73h-306v73z" />
    <glyph glyph-name="uni02CB" unicode="&#x2cb;" horiz-adv-x="500" 
d="M145 773h103l107 -163h-80z" />
    <glyph glyph-name="breve" unicode="&#x2d8;" horiz-adv-x="500" 
d="M250 599q-70 0 -110.5 38.5t-40.5 104.5q0 9 1 12h65q0 -93 85 -93t85 93h65q1 -3 1 -12q0 -66 -40.5 -104.5t-110.5 -38.5z" />
    <glyph glyph-name="dotaccent" unicode="&#x2d9;" horiz-adv-x="500" 
d="M249 635q-26 0 -42 16t-16 43q0 26 16.5 43t41.5 17q26 0 42.5 -16.5t16.5 -43.5q0 -26 -16.5 -42.5t-42.5 -16.5z" />
    <glyph glyph-name="ring" unicode="&#x2da;" horiz-adv-x="500" 
d="M250 588q-55 0 -92.5 35.5t-37.5 88.5t37.5 88.5t92.5 35.5t92.5 -35.5t37.5 -88.5t-37.5 -88.5t-92.5 -35.5zM250 644q31 0 49.5 18.5t18.5 49.5q0 32 -18 50t-50 18t-50 -18t-18 -50q0 -31 18.5 -49.5t49.5 -18.5z" />
    <glyph glyph-name="ogonek" unicode="&#x2db;" horiz-adv-x="500" 
d="M265 -252q-49 0 -77.5 24t-28.5 66q0 48 37.5 98t103.5 90l40 -26q-48 -35 -76.5 -73.5t-28.5 -69.5q0 -38 44 -38q32 0 60 15l9 -66q-31 -20 -83 -20z" />
    <glyph glyph-name="tilde" unicode="&#x2dc;" horiz-adv-x="500" 
d="M321 621q-27 1 -47 11t-35 23.5t-28.5 23.5t-28.5 11q-37 0 -37 -68h-64q0 66 25.5 101t73.5 35q27 -1 47 -11t35 -23.5t28.5 -23.5t28.5 -11q37 0 37 68h64q0 -66 -25.5 -101t-73.5 -35z" />
    <glyph glyph-name="hungarumlaut" unicode="&#x2dd;" horiz-adv-x="500" 
d="M181 773h98l-114 -163h-75zM352 773h98l-114 -163h-75z" />
    <glyph glyph-name="gravecomb" unicode="&#x300;" horiz-adv-x="0" 
d="M-136 773h103l107 -163h-80z" />
    <glyph glyph-name="acutecomb" unicode="&#x301;" horiz-adv-x="0" 
d="M33 773h103l-130 -163h-80z" />
    <glyph glyph-name="uni0302" unicode="&#x302;" horiz-adv-x="0" 
d="M-36 773h72l139 -163h-86l-89 105l-89 -105h-86z" />
    <glyph glyph-name="tildecomb" unicode="&#x303;" horiz-adv-x="0" 
d="M71 621q-27 1 -47 11t-35 23.5t-28.5 23.5t-28.5 11q-37 0 -37 -68h-64q0 66 25.5 101t73.5 35q27 -1 47 -11t35 -23.5t28.5 -23.5t28.5 -11q37 0 37 68h64q0 -66 -25.5 -101t-73.5 -35z" />
    <glyph glyph-name="uni0304" unicode="&#x304;" horiz-adv-x="0" 
d="M-153 720h306v-73h-306v73z" />
    <glyph glyph-name="uni0306" unicode="&#x306;" horiz-adv-x="0" 
d="M0 599q-70 0 -110.5 38.5t-40.5 104.5q0 9 1 12h65q0 -93 85 -93t85 93h65q1 -3 1 -12q0 -66 -40.5 -104.5t-110.5 -38.5z" />
    <glyph glyph-name="uni0307" unicode="&#x307;" horiz-adv-x="0" 
d="M0 635q-26 0 -42 16t-16 43q0 26 16.5 43t41.5 17q26 0 42.5 -16.5t16.5 -43.5q0 -26 -16.5 -42.5t-42.5 -16.5z" />
    <glyph glyph-name="uni0308" unicode="&#x308;" horiz-adv-x="0" 
d="M-96 640q-24 0 -39 15t-15 40q0 24 15.5 40t38.5 16q24 0 39.5 -15.5t15.5 -40.5q0 -24 -15.5 -39.5t-39.5 -15.5zM95 640q-24 0 -39 15t-15 40q0 24 15.5 40t38.5 16q24 0 39.5 -15.5t15.5 -40.5q0 -24 -15.5 -39.5t-39.5 -15.5z" />
    <glyph glyph-name="uni030A" unicode="&#x30a;" horiz-adv-x="0" 
d="M0 588q-55 0 -92.5 35.5t-37.5 88.5t37.5 88.5t92.5 35.5t92.5 -35.5t37.5 -88.5t-37.5 -88.5t-92.5 -35.5zM0 644q31 0 49.5 18.5t18.5 49.5q0 32 -18 50t-50 18t-50 -18t-18 -50q0 -31 18.5 -49.5t49.5 -18.5z" />
    <glyph glyph-name="uni030B" unicode="&#x30b;" horiz-adv-x="0" 
d="M-49 773h98l-114 -163h-75zM122 773h98l-114 -163h-75z" />
    <glyph glyph-name="uni030C" unicode="&#x30c;" horiz-adv-x="0" 
d="M-175 773h86l89 -106l89 106h86l-139 -163h-72z" />
    <glyph glyph-name="uni0312" unicode="&#x312;" horiz-adv-x="0" 
d="M-52 610q5 91 67 163h64q-21 -35 -30 -70t-10 -93h-91z" />
    <glyph glyph-name="uni0315" unicode="&#x315;" horiz-adv-x="0" 
d="M-40 810h90l-44 -230h-58z" />
    <glyph glyph-name="uni0326" unicode="&#x326;" horiz-adv-x="0" 
d="M-84 -245q43 71 45 180h88q-1 -29 -10 -62.5t-24.5 -65t-33.5 -52.5h-65z" />
    <glyph glyph-name="uni0327" unicode="&#x327;" horiz-adv-x="0" 
d="M-22 -255q-23 0 -47.5 5.5t-37.5 12.5l14 60q29 -16 71 -16q32 0 46.5 9.5t14.5 30.5q0 38 -62 38q-27 0 -39 -3l34 128h61l-22 -76q45 0 73 -24.5t28 -64.5q0 -46 -36 -73t-98 -27z" />
    <glyph glyph-name="uni0328" unicode="&#x328;" horiz-adv-x="0" 
d="M-32 -252q-49 0 -77.5 24t-28.5 66q0 48 37.5 98t103.5 90l40 -26q-48 -35 -76.5 -73.5t-28.5 -69.5q0 -38 44 -38q32 0 60 15l9 -66q-31 -20 -83 -20z" />
    <glyph glyph-name="pi" unicode="&#x3c0;" horiz-adv-x="646" 
d="M533 -5q-60 0 -83.5 30t-23.5 108v294h-218v-427h-85v427h-83v73h556v-73h-85v-292q0 -37 9 -51.5t32 -14.5q20 0 31 4l5 -70q-26 -8 -55 -8z" />
    <glyph glyph-name="Wgrave" unicode="&#x1e80;" horiz-adv-x="1109" 
d="M30 760h93l192 -665l195 655h94l194 -651l192 661h89l-232 -760h-98l-195 647l-192 -647h-100zM408 964h114l110 -129h-90z" />
    <glyph glyph-name="wgrave" unicode="&#x1e81;" horiz-adv-x="814" 
d="M25 500h87l128 -410l126 410h76l133 -410l130 410h84l-175 -500h-79l-132 405l-125 -405h-79zM271 773h103l107 -163h-80z" />
    <glyph glyph-name="Wacute" unicode="&#x1e82;" horiz-adv-x="1109" 
d="M30 760h93l192 -665l195 655h94l194 -651l192 661h89l-232 -760h-98l-195 647l-192 -647h-100zM589 964h114l-134 -129h-90z" />
    <glyph glyph-name="wacute" unicode="&#x1e83;" horiz-adv-x="814" 
d="M25 500h87l128 -410l126 410h76l133 -410l130 410h84l-175 -500h-79l-132 405l-125 -405h-79zM440 773h103l-130 -163h-80z" />
    <glyph glyph-name="Wdieresis" unicode="&#x1e84;" horiz-adv-x="1109" 
d="M30 760h93l192 -665l195 655h94l194 -651l192 661h89l-232 -760h-98l-195 647l-192 -647h-100zM457 833q-24 0 -39 15t-15 40q0 24 15.5 40t38.5 16q24 0 39.5 -15.5t15.5 -40.5q0 -24 -15.5 -39.5t-39.5 -15.5zM652 833q-24 0 -39 15t-15 40q0 24 15.5 40t38.5 16
q24 0 39.5 -15.5t15.5 -40.5q0 -24 -15.5 -39.5t-39.5 -15.5z" />
    <glyph glyph-name="wdieresis" unicode="&#x1e85;" horiz-adv-x="814" 
d="M25 500h87l128 -410l126 410h76l133 -410l130 410h84l-175 -500h-79l-132 405l-125 -405h-79zM311 640q-24 0 -39 15t-15 40q0 24 15.5 40t38.5 16q24 0 39.5 -15.5t15.5 -40.5q0 -24 -15.5 -39.5t-39.5 -15.5zM502 640q-24 0 -39 15t-15 40q0 24 15.5 40t38.5 16
q24 0 39.5 -15.5t15.5 -40.5q0 -24 -15.5 -39.5t-39.5 -15.5z" />
    <glyph glyph-name="uni1E9E" unicode="&#x1e9e;" horiz-adv-x="784" 
d="M470 -16q-49 0 -99.5 12.5t-75.5 31.5l8 80q32 -22 75 -33.5t89 -11.5q81 0 126.5 42t45.5 117q0 69 -44.5 109.5t-120.5 40.5q-23 0 -46 -6l-20 44l174 230q-36 26 -81.5 40t-92.5 14q-218 0 -218 -278v-416h-90v425q0 169 80.5 260t230.5 91q73 0 142.5 -26.5
t114.5 -70.5v-55l-141 -185q90 -12 145 -72.5t55 -147.5q0 -67 -31 -120.5t-89.5 -84t-136.5 -30.5z" />
    <glyph glyph-name="Ygrave" unicode="&#x1ef2;" horiz-adv-x="693" 
d="M301 328l-286 432h101l233 -362l234 362h95l-287 -433v-327h-90v328zM199 964h114l110 -129h-90z" />
    <glyph glyph-name="ygrave" unicode="&#x1ef3;" horiz-adv-x="554" 
d="M91 -254q-24 0 -44.5 5t-31.5 14l10 74q11 -7 28 -11.5t34 -4.5q30 0 51 14t40.5 45t46.5 92l15 35l-220 491h89l175 -405l163 405h87l-227 -535q-35 -82 -67.5 -130t-67 -68.5t-81.5 -20.5zM143 773h103l107 -163h-80z" />
    <glyph glyph-name="uni2000" unicode="&#x2000;" horiz-adv-x="500" 
 />
    <glyph glyph-name="uni2001" unicode="&#x2001;" horiz-adv-x="1000" 
 />
    <glyph glyph-name="uni2002" unicode="&#x2002;" horiz-adv-x="500" 
 />
    <glyph glyph-name="uni2003" unicode="&#x2003;" horiz-adv-x="1000" 
 />
    <glyph glyph-name="uni2004" unicode="&#x2004;" horiz-adv-x="333" 
 />
    <glyph glyph-name="uni2005" unicode="&#x2005;" horiz-adv-x="250" 
 />
    <glyph glyph-name="uni2006" unicode="&#x2006;" horiz-adv-x="166" 
 />
    <glyph glyph-name="uni2007" unicode="&#x2007;" horiz-adv-x="620" 
 />
    <glyph glyph-name="uni2008" unicode="&#x2008;" horiz-adv-x="290" 
 />
    <glyph glyph-name="uni2009" unicode="&#x2009;" horiz-adv-x="200" 
 />
    <glyph glyph-name="uni200A" unicode="&#x200a;" horiz-adv-x="55" 
 />
    <glyph glyph-name="uni200B" unicode="&#x200b;" horiz-adv-x="0" 
 />
    <glyph glyph-name="uni2010" unicode="&#x2010;" horiz-adv-x="443" 
d="M75 330h293v-85h-293v85z" />
    <glyph glyph-name="figuredash" unicode="&#x2012;" horiz-adv-x="500" 
d="M0 326h500v-76h-500v76z" />
    <glyph glyph-name="endash" unicode="&#x2013;" horiz-adv-x="500" 
d="M0 326h500v-76h-500v76z" />
    <glyph glyph-name="emdash" unicode="&#x2014;" horiz-adv-x="1000" 
d="M0 326h1000v-76h-1000v76z" />
    <glyph glyph-name="uni2015" unicode="&#x2015;" horiz-adv-x="1000" 
d="M0 326h1000v-76h-1000v76z" />
    <glyph glyph-name="quoteleft" unicode="&#x2018;" horiz-adv-x="188" 
d="M35 530q3 54 21.5 116t46.5 114h65q-20 -54 -31.5 -114.5t-11.5 -115.5h-90z" />
    <glyph glyph-name="quoteright" unicode="&#x2019;" horiz-adv-x="188" 
d="M20 530q20 54 31.5 114.5t11.5 115.5h90q-3 -54 -21.5 -116t-46.5 -114h-65z" />
    <glyph glyph-name="quotesinglbase" unicode="&#x201a;" horiz-adv-x="188" 
d="M20 -112q20 54 31.5 114.5t11.5 115.5h90q-3 -54 -21.5 -116t-46.5 -114h-65z" />
    <glyph glyph-name="quotedblleft" unicode="&#x201c;" horiz-adv-x="355" 
d="M35 530q3 54 21.5 116t46.5 114h65q-20 -54 -31.5 -114.5t-11.5 -115.5h-90zM202 530q3 54 21.5 116t46.5 114h65q-20 -54 -31.5 -114.5t-11.5 -115.5h-90z" />
    <glyph glyph-name="quotedblright" unicode="&#x201d;" horiz-adv-x="355" 
d="M20 530q20 54 31.5 114.5t11.5 115.5h90q-3 -54 -21.5 -116t-46.5 -114h-65zM187 530q20 54 31.5 114.5t11.5 115.5h90q-3 -54 -21.5 -116t-46.5 -114h-65z" />
    <glyph glyph-name="quotedblbase" unicode="&#x201e;" horiz-adv-x="355" 
d="M20 -112q20 54 31.5 114.5t11.5 115.5h90q-3 -54 -21.5 -116t-46.5 -114h-65zM187 -112q20 54 31.5 114.5t11.5 115.5h90q-3 -54 -21.5 -116t-46.5 -114h-65z" />
    <glyph glyph-name="dagger" unicode="&#x2020;" horiz-adv-x="514" 
d="M215 443h-170v78h170v239h84v-239h170v-78h-170v-573h-84v573z" />
    <glyph glyph-name="daggerdbl" unicode="&#x2021;" horiz-adv-x="514" 
d="M215 99h-170v78h170v276h-170v78h170v229h84v-229h170v-78h-170v-276h170v-78h-170v-229h-84v229z" />
    <glyph glyph-name="bullet" unicode="&#x2022;" horiz-adv-x="346" 
d="M173 151q-51 0 -87 36t-36 87t36 87t87 36t87 -36t36 -87t-36 -87t-87 -36z" />
    <glyph glyph-name="ellipsis" unicode="&#x2026;" horiz-adv-x="1000" 
d="M167 -6q-28 0 -46.5 18.5t-18.5 46.5t18.5 46.5t46.5 18.5t46.5 -18.5t18.5 -46.5t-18.5 -46.5t-46.5 -18.5zM499 -6q-28 0 -46.5 18.5t-18.5 46.5t18.5 46.5t46.5 18.5t46.5 -18.5t18.5 -46.5t-18.5 -46.5t-46.5 -18.5zM833 -6q-28 0 -46.5 18.5t-18.5 46.5t18.5 46.5
t46.5 18.5t46.5 -18.5t18.5 -46.5t-18.5 -46.5t-46.5 -18.5z" />
    <glyph glyph-name="perthousand" unicode="&#x2030;" horiz-adv-x="1384" 
d="M244 448q50 0 81.5 33.5t31.5 87.5t-31.5 87.5t-81.5 33.5t-81.5 -33.5t-31.5 -87.5t31.5 -87.5t81.5 -33.5zM244 378q-51 0 -94 24t-69 68t-26 99q0 51 24 94.5t67.5 70t97.5 26.5q51 0 94 -24t69 -68t26 -99q0 -51 -24 -94.5t-67.5 -70t-97.5 -26.5zM707 744h89
l-556 -744h-89zM707 60q50 0 81.5 33.5t31.5 87.5t-31.5 87.5t-81.5 33.5t-81.5 -33.5t-31.5 -87.5t31.5 -87.5t81.5 -33.5zM707 -10q-51 0 -94 24t-69 68t-26 99q0 51 24 94.5t67.5 70t97.5 26.5q51 0 94 -24t69 -68t26 -99q0 -51 -24 -94.5t-67.5 -70t-97.5 -26.5z
M1140 60q50 0 81.5 33.5t31.5 87.5t-31.5 87.5t-81.5 33.5t-81.5 -33.5t-31.5 -87.5t31.5 -87.5t81.5 -33.5zM1140 -10q-51 0 -94 24t-69 68t-26 99q0 51 24 94.5t67.5 70t97.5 26.5q51 0 94 -24t69 -68t26 -99q0 -51 -24 -94.5t-67.5 -70t-97.5 -26.5z" />
    <glyph glyph-name="minute" unicode="&#x2032;" horiz-adv-x="202" 
d="M81 760h91l-69 -291h-73z" />
    <glyph glyph-name="second" unicode="&#x2033;" horiz-adv-x="380" 
d="M81 760h91l-69 -291h-73zM259 760h91l-69 -291h-73z" />
    <glyph glyph-name="guilsinglleft" unicode="&#x2039;" horiz-adv-x="323" 
d="M35 257l145 214h98l-145 -214l145 -214h-98z" />
    <glyph glyph-name="guilsinglright" unicode="&#x203a;" horiz-adv-x="323" 
d="M189 257l-144 214h98l145 -214l-145 -214h-98z" />
    <glyph glyph-name="fraction" unicode="&#x2044;" horiz-adv-x="167" 
d="M317 744h89l-556 -744h-89z" />
    <glyph glyph-name="uni2070" unicode="&#x2070;" 
d="M191 446q-76 0 -121 58t-45 156t45 156t121 58t121 -58t45 -156t-45 -156t-121 -58zM191 507q44 0 69 40.5t25 112.5t-25 112.5t-69 40.5t-69 -40.5t-25 -112.5t25 -112.5t69 -40.5z" />
    <glyph glyph-name="uni2074" unicode="&#x2074;" 
d="M226 551h-198v56l193 257h69v-255h54v-58h-54v-95h-64v95zM226 609v172l-129 -172h129z" />
    <glyph glyph-name="uni2075" unicode="&#x2075;" 
d="M168 446q-31 0 -62.5 8t-47.5 20l6 61q44 -28 107 -28q45 0 70 20t25 56q0 35 -25 53t-72 18q-55 0 -92 -10l7 220h225v-63h-163l-3 -89q22 2 33 2q74 0 116.5 -34.5t42.5 -93.5q0 -65 -45 -102.5t-122 -37.5z" />
    <glyph glyph-name="uni2076" unicode="&#x2076;" 
d="M188 446q-65 0 -106 40.5t-41 105.5t42.5 139t113.5 134l85 -3q-50 -39 -91 -85t-63 -88q32 30 77 30q58 0 96.5 -37t38.5 -94q0 -63 -42.5 -102.5t-109.5 -39.5zM190 505q37 0 60.5 22t23.5 56q0 35 -24 57.5t-60 22.5q-37 0 -61 -22.5t-24 -57.5q0 -34 23.5 -56
t61.5 -22z" />
    <glyph glyph-name="uni2077" unicode="&#x2077;" 
d="M92 458l160 342h-205v64h278v-63l-161 -346z" />
    <glyph glyph-name="uni2078" unicode="&#x2078;" 
d="M191 446q-69 0 -110 33.5t-41 89.5q0 34 20.5 61t56.5 40q-63 27 -63 91q0 49 38.5 81t98.5 32q61 0 99 -31.5t38 -81.5q0 -64 -63 -91q36 -13 56.5 -40t20.5 -61q0 -56 -41 -89.5t-110 -33.5zM191 504q38 0 60 18t22 49q0 30 -22 48.5t-60 18.5t-60 -18.5t-22 -48.5
q0 -31 22 -49t60 -18zM191 696q33 0 52.5 16.5t19.5 44.5t-19.5 44.5t-52.5 16.5q-32 0 -51.5 -16.5t-19.5 -44.5t19.5 -44.5t51.5 -16.5z" />
    <glyph glyph-name="uni2079" unicode="&#x2079;" 
d="M99 458q50 39 91 85t63 88q-31 -30 -77 -30q-58 0 -96.5 37t-38.5 94q0 63 42.5 102.5t109.5 39.5q65 0 106 -40.5t41 -105.5t-42.5 -139t-113.5 -134zM191 657q37 0 61 22t24 58q0 34 -23.5 56t-61.5 22q-37 0 -60.5 -22t-23.5 -56q0 -35 24 -57.5t60 -22.5z" />
    <glyph glyph-name="uni2080" unicode="&#x2080;" 
d="M191 -135q-76 0 -121 58t-45 156t45 156t121 58t121 -58t45 -156t-45 -156t-121 -58zM191 -74q44 0 69 40.5t25 112.5t-25 112.5t-69 40.5t-69 -40.5t-25 -112.5t25 -112.5t69 -40.5z" />
    <glyph glyph-name="uni2081" unicode="&#x2081;" 
d="M195 210l-116 -53l-10 64l136 62h59v-408h-69v335z" />
    <glyph glyph-name="uni2082" unicode="&#x2082;" 
d="M52 -125v65q52 42 111 101q48 47 65.5 75.5t17.5 58.5q0 25 -19 40t-50 15q-29 0 -53.5 -12t-52.5 -40l-15 61q22 25 57 39.5t72 14.5q58 0 94.5 -32t36.5 -83q0 -43 -27.5 -87.5t-87.5 -96.5q-18 -16 -34 -29t-32 -27h195v-63h-278z" />
    <glyph glyph-name="uni2083" unicode="&#x2083;" 
d="M155 -135q-29 0 -57.5 7t-48.5 19l6 61q22 -13 49.5 -20t53.5 -7q44 0 70 20t26 55q0 29 -24 47t-64 18q-22 0 -37 -5l-18 38l122 123h-175v62h250v-61l-103 -105q54 -6 85.5 -38t31.5 -81q0 -60 -45.5 -96.5t-121.5 -36.5z" />
    <glyph glyph-name="uni2084" unicode="&#x2084;" 
d="M226 -30h-198v56l193 257h69v-255h54v-58h-54v-95h-64v95zM226 28v172l-129 -172h129z" />
    <glyph glyph-name="uni2085" unicode="&#x2085;" 
d="M168 -135q-31 0 -62.5 8t-47.5 20l6 61q44 -28 107 -28q45 0 70 20t25 56q0 35 -25 53t-72 18q-55 0 -92 -10l7 220h225v-63h-163l-3 -89q22 2 33 2q74 0 116.5 -34.5t42.5 -93.5q0 -65 -45 -102.5t-122 -37.5z" />
    <glyph glyph-name="uni2086" unicode="&#x2086;" 
d="M188 -135q-65 0 -106 40.5t-41 105.5t42.5 139t113.5 134l85 -3q-50 -39 -91 -85t-63 -88q32 30 77 30q58 0 96.5 -37t38.5 -94q0 -63 -42.5 -102.5t-109.5 -39.5zM190 -76q37 0 60.5 22t23.5 56q0 35 -24 57.5t-60 22.5q-37 0 -61 -22.5t-24 -57.5q0 -34 23.5 -56
t61.5 -22z" />
    <glyph glyph-name="uni2087" unicode="&#x2087;" 
d="M92 -123l160 342h-205v64h278v-63l-161 -346z" />
    <glyph glyph-name="uni2088" unicode="&#x2088;" 
d="M191 -135q-69 0 -110 33.5t-41 89.5q0 34 20.5 61t56.5 40q-63 27 -63 91q0 49 38.5 81t98.5 32q61 0 99 -31.5t38 -81.5q0 -64 -63 -91q36 -13 56.5 -40t20.5 -61q0 -56 -41 -89.5t-110 -33.5zM191 -77q38 0 60 18t22 49q0 30 -22 48.5t-60 18.5t-60 -18.5t-22 -48.5
q0 -31 22 -49t60 -18zM191 115q33 0 52.5 16.5t19.5 44.5t-19.5 44.5t-52.5 16.5q-32 0 -51.5 -16.5t-19.5 -44.5t19.5 -44.5t51.5 -16.5z" />
    <glyph glyph-name="uni2089" unicode="&#x2089;" 
d="M99 -123q50 39 91 85t63 88q-31 -30 -77 -30q-58 0 -96.5 37t-38.5 94q0 63 42.5 102.5t109.5 39.5q65 0 106 -40.5t41 -105.5t-42.5 -139t-113.5 -134zM191 76q37 0 61 22t24 58q0 34 -23.5 56t-61.5 22q-37 0 -60.5 -22t-23.5 -56q0 -35 24 -57.5t60 -22.5z" />
    <glyph glyph-name="Euro" unicode="&#x20ac;" horiz-adv-x="620" 
d="M450 -16q-120 0 -197.5 69.5t-101.5 197.5h-106v69h98q-1 14 -1 45q0 15 0.5 30t1.5 29h-99v69h109q26 127 103.5 197t191.5 70q93 0 156 -35l-18 -74q-61 32 -140 32q-77 0 -131 -49.5t-76 -140.5h273v-69h-284q-2 -17 -2 -54q0 -18 2 -50h284v-69h-274
q21 -93 76.5 -141.5t139.5 -48.5q77 0 146 31l9 -75q-65 -33 -160 -33z" />
    <glyph glyph-name="uni20BA" unicode="&#x20ba;" horiz-adv-x="620" 
d="M219 -16q-40 0 -80 9v286l-89 -37v69l89 37v96l-89 -37v69l89 37v231h80v-198l212 88v-69l-212 -88v-96l212 88v-69l-212 -88v-252h13q112 0 181 68.5t84 193.5l75 -5q-6 -99 -50 -174t-121.5 -117t-181.5 -42z" />
    <glyph glyph-name="trademark" unicode="&#x2122;" horiz-adv-x="841" 
d="M399 760h69l113 -235l115 235h69l19 -370h-63l-12 274l-102 -210h-50l-103 213l-11 -277h-63zM131 699h-115v61h300v-61h-114v-309h-71v309z" />
    <glyph glyph-name="Omega" unicode="&#x2126;" horiz-adv-x="932" 
d="M86 81h173q-83 52 -127.5 137t-44.5 189q0 100 48 184t135 134.5t196 50.5q104 0 190 -46t137.5 -130.5t51.5 -192.5q0 -106 -44.5 -190t-128.5 -136h174v-81h-301v74q63 28 109 77t71 113.5t25 138.5q0 83 -34.5 148.5t-99 103.5t-150.5 38q-82 0 -146 -35.5
t-101 -101.5t-37 -153q0 -73 24.5 -137t70.5 -113.5t110 -78.5v-74h-301v81z" />
    <glyph glyph-name="uni2150" unicode="&#x2150;" horiz-adv-x="931" 
d="M667 744h89l-556 -744h-89zM641 2l160 342h-205v64h278v-63l-161 -346zM195 671l-116 -53l-10 64l136 62h59v-408h-69v335z" />
    <glyph glyph-name="uni2151" unicode="&#x2151;" horiz-adv-x="931" 
d="M694 744h89l-556 -744h-89zM648 2q50 39 91 85t63 88q-31 -30 -77 -30q-58 0 -96.5 37t-38.5 94q0 63 42.5 102.5t109.5 39.5q65 0 106 -40.5t41 -105.5t-42.5 -139t-113.5 -134zM740 201q37 0 61 22t24 58q0 34 -23.5 56t-61.5 22q-37 0 -60.5 -22t-23.5 -56
q0 -35 24 -57.5t60 -22.5zM195 671l-116 -53l-10 64l136 62h59v-408h-69v335z" />
    <glyph glyph-name="onethird" unicode="&#x2153;" horiz-adv-x="931" 
d="M679 744h89l-556 -744h-89zM704 -10q-29 0 -57.5 7t-48.5 19l6 61q22 -13 49.5 -20t53.5 -7q44 0 70 20t26 55q0 29 -24 47t-64 18q-22 0 -37 -5l-18 38l122 123h-175v62h250v-61l-103 -105q54 -6 85.5 -38t31.5 -81q0 -60 -45.5 -96.5t-121.5 -36.5zM195 671l-116 -53
l-10 64l136 62h59v-408h-69v335z" />
    <glyph glyph-name="twothirds" unicode="&#x2154;" horiz-adv-x="931" 
d="M701 744h89l-556 -744h-89zM704 -10q-29 0 -57.5 7t-48.5 19l6 61q22 -13 49.5 -20t53.5 -7q44 0 70 20t26 55q0 29 -24 47t-64 18q-22 0 -37 -5l-18 38l122 123h-175v62h250v-61l-103 -105q54 -6 85.5 -38t31.5 -81q0 -60 -45.5 -96.5t-121.5 -36.5zM52 336v65
q52 42 111 101q48 47 65.5 75.5t17.5 58.5q0 25 -19 40t-50 15q-29 0 -53.5 -12t-52.5 -40l-15 61q22 25 57 39.5t72 14.5q58 0 94.5 -32t36.5 -83q0 -43 -27.5 -87.5t-87.5 -96.5q-18 -16 -34 -29t-32 -27h195v-63h-278z" />
    <glyph glyph-name="uni2155" unicode="&#x2155;" horiz-adv-x="931" 
d="M689 744h89l-556 -744h-89zM717 -10q-31 0 -62.5 8t-47.5 20l6 61q44 -28 107 -28q45 0 70 20t25 56q0 35 -25 53t-72 18q-55 0 -92 -10l7 220h225v-63h-163l-3 -89q22 2 33 2q74 0 116.5 -34.5t42.5 -93.5q0 -65 -45 -102.5t-122 -37.5zM195 671l-116 -53l-10 64l136 62
h59v-408h-69v335z" />
    <glyph glyph-name="uni2156" unicode="&#x2156;" horiz-adv-x="931" 
d="M710 744h89l-556 -744h-89zM717 -10q-31 0 -62.5 8t-47.5 20l6 61q44 -28 107 -28q45 0 70 20t25 56q0 35 -25 53t-72 18q-55 0 -92 -10l7 220h225v-63h-163l-3 -89q22 2 33 2q74 0 116.5 -34.5t42.5 -93.5q0 -65 -45 -102.5t-122 -37.5zM52 336v65q52 42 111 101
q48 47 65.5 75.5t17.5 58.5q0 25 -19 40t-50 15q-29 0 -53.5 -12t-52.5 -40l-15 61q22 25 57 39.5t72 14.5q58 0 94.5 -32t36.5 -83q0 -43 -27.5 -87.5t-87.5 -96.5q-18 -16 -34 -29t-32 -27h195v-63h-278z" />
    <glyph glyph-name="uni2157" unicode="&#x2157;" horiz-adv-x="931" 
d="M684 744h89l-556 -744h-89zM717 -10q-31 0 -62.5 8t-47.5 20l6 61q44 -28 107 -28q45 0 70 20t25 56q0 35 -25 53t-72 18q-55 0 -92 -10l7 220h225v-63h-163l-3 -89q22 2 33 2q74 0 116.5 -34.5t42.5 -93.5q0 -65 -45 -102.5t-122 -37.5zM155 326q-29 0 -57.5 7t-48.5 19
l6 61q22 -13 49.5 -20t53.5 -7q44 0 70 20t26 55q0 29 -24 47t-64 18q-22 0 -37 -5l-18 38l122 123h-175v62h250v-61l-103 -105q54 -6 85.5 -38t31.5 -81q0 -60 -45.5 -96.5t-121.5 -36.5z" />
    <glyph glyph-name="uni2158" unicode="&#x2158;" horiz-adv-x="931" 
d="M699 744h89l-556 -744h-89zM717 -10q-31 0 -62.5 8t-47.5 20l6 61q44 -28 107 -28q45 0 70 20t25 56q0 35 -25 53t-72 18q-55 0 -92 -10l7 220h225v-63h-163l-3 -89q22 2 33 2q74 0 116.5 -34.5t42.5 -93.5q0 -65 -45 -102.5t-122 -37.5zM226 431h-198v56l193 257h69
v-255h54v-58h-54v-95h-64v95zM226 489v172l-129 -172h129z" />
    <glyph glyph-name="uni2159" unicode="&#x2159;" horiz-adv-x="931" 
d="M715 744h89l-556 -744h-89zM737 -10q-65 0 -106 40.5t-41 105.5t42.5 139t113.5 134l85 -3q-50 -39 -91 -85t-63 -88q32 30 77 30q58 0 96.5 -37t38.5 -94q0 -63 -42.5 -102.5t-109.5 -39.5zM739 49q37 0 60.5 22t23.5 56q0 35 -24 57.5t-60 22.5q-37 0 -61 -22.5
t-24 -57.5q0 -34 23.5 -56t61.5 -22zM195 671l-116 -53l-10 64l136 62h59v-408h-69v335z" />
    <glyph glyph-name="uni215A" unicode="&#x215a;" horiz-adv-x="931" 
d="M719 744h89l-556 -744h-89zM737 -10q-65 0 -106 40.5t-41 105.5t42.5 139t113.5 134l85 -3q-50 -39 -91 -85t-63 -88q32 30 77 30q58 0 96.5 -37t38.5 -94q0 -63 -42.5 -102.5t-109.5 -39.5zM739 49q37 0 60.5 22t23.5 56q0 35 -24 57.5t-60 22.5q-37 0 -61 -22.5
t-24 -57.5q0 -34 23.5 -56t61.5 -22zM168 326q-31 0 -62.5 8t-47.5 20l6 61q44 -28 107 -28q45 0 70 20t25 56q0 35 -25 53t-72 18q-55 0 -92 -10l7 220h225v-63h-163l-3 -89q22 2 33 2q74 0 116.5 -34.5t42.5 -93.5q0 -65 -45 -102.5t-122 -37.5z" />
    <glyph glyph-name="oneeighth" unicode="&#x215b;" horiz-adv-x="931" 
d="M689 744h89l-556 -744h-89zM740 -10q-69 0 -110 33.5t-41 89.5q0 34 20.5 61t56.5 40q-63 27 -63 91q0 49 38.5 81t98.5 32q61 0 99 -31.5t38 -81.5q0 -64 -63 -91q36 -13 56.5 -40t20.5 -61q0 -56 -41 -89.5t-110 -33.5zM740 48q38 0 60 18t22 49q0 30 -22 48.5
t-60 18.5t-60 -18.5t-22 -48.5q0 -31 22 -49t60 -18zM740 240q33 0 52.5 16.5t19.5 44.5t-19.5 44.5t-52.5 16.5q-32 0 -51.5 -16.5t-19.5 -44.5t19.5 -44.5t51.5 -16.5zM195 671l-116 -53l-10 64l136 62h59v-408h-69v335z" />
    <glyph glyph-name="threeeighths" unicode="&#x215c;" horiz-adv-x="931" 
d="M689 744h89l-556 -744h-89zM740 -10q-69 0 -110 33.5t-41 89.5q0 34 20.5 61t56.5 40q-63 27 -63 91q0 49 38.5 81t98.5 32q61 0 99 -31.5t38 -81.5q0 -64 -63 -91q36 -13 56.5 -40t20.5 -61q0 -56 -41 -89.5t-110 -33.5zM740 48q38 0 60 18t22 49q0 30 -22 48.5
t-60 18.5t-60 -18.5t-22 -48.5q0 -31 22 -49t60 -18zM740 240q33 0 52.5 16.5t19.5 44.5t-19.5 44.5t-52.5 16.5q-32 0 -51.5 -16.5t-19.5 -44.5t19.5 -44.5t51.5 -16.5zM155 326q-29 0 -57.5 7t-48.5 19l6 61q22 -13 49.5 -20t53.5 -7q44 0 70 20t26 55q0 29 -24 47t-64 18
q-22 0 -37 -5l-18 38l122 123h-175v62h250v-61l-103 -105q54 -6 85.5 -38t31.5 -81q0 -60 -45.5 -96.5t-121.5 -36.5z" />
    <glyph glyph-name="fiveeighths" unicode="&#x215d;" horiz-adv-x="931" 
d="M699 744h89l-556 -744h-89zM740 -10q-69 0 -110 33.5t-41 89.5q0 34 20.5 61t56.5 40q-63 27 -63 91q0 49 38.5 81t98.5 32q61 0 99 -31.5t38 -81.5q0 -64 -63 -91q36 -13 56.5 -40t20.5 -61q0 -56 -41 -89.5t-110 -33.5zM740 48q38 0 60 18t22 49q0 30 -22 48.5
t-60 18.5t-60 -18.5t-22 -48.5q0 -31 22 -49t60 -18zM740 240q33 0 52.5 16.5t19.5 44.5t-19.5 44.5t-52.5 16.5q-32 0 -51.5 -16.5t-19.5 -44.5t19.5 -44.5t51.5 -16.5zM168 326q-31 0 -62.5 8t-47.5 20l6 61q44 -28 107 -28q45 0 70 20t25 56q0 35 -25 53t-72 18
q-55 0 -92 -10l7 220h225v-63h-163l-3 -89q22 2 33 2q74 0 116.5 -34.5t42.5 -93.5q0 -65 -45 -102.5t-122 -37.5z" />
    <glyph glyph-name="seveneighths" unicode="&#x215e;" horiz-adv-x="931" 
d="M649 744h89l-556 -744h-89zM740 -10q-69 0 -110 33.5t-41 89.5q0 34 20.5 61t56.5 40q-63 27 -63 91q0 49 38.5 81t98.5 32q61 0 99 -31.5t38 -81.5q0 -64 -63 -91q36 -13 56.5 -40t20.5 -61q0 -56 -41 -89.5t-110 -33.5zM740 48q38 0 60 18t22 49q0 30 -22 48.5
t-60 18.5t-60 -18.5t-22 -48.5q0 -31 22 -49t60 -18zM740 240q33 0 52.5 16.5t19.5 44.5t-19.5 44.5t-52.5 16.5q-32 0 -51.5 -16.5t-19.5 -44.5t19.5 -44.5t51.5 -16.5zM92 338l160 342h-205v64h278v-63l-161 -346z" />
    <glyph glyph-name="partialdiff" unicode="&#x2202;" horiz-adv-x="620" 
d="M254 -16q-97 0 -157 58.5t-60 153.5q0 66 32 124t90.5 94t128.5 36q66 0 114 -33.5t67 -92.5q5 57 5 94q0 128 -49 197t-140 69q-88 0 -154 -64l-11 74q32 32 76.5 49t94.5 17q81 0 140.5 -39.5t91.5 -115t32 -180.5q0 -128 -36.5 -227.5t-105 -156.5t-159.5 -57zM263 59
q44 0 83.5 23t64.5 63.5t25 88.5q0 65 -38.5 103t-104.5 38q-47 0 -85.5 -22t-61.5 -62t-23 -91q0 -65 37.5 -103t102.5 -38z" />
    <glyph glyph-name="Delta" unicode="&#x2206;" horiz-adv-x="763" 
d="M333 760h93l312 -760h-713zM613 75l-234 593l-233 -593h467z" />
    <glyph glyph-name="product" unicode="&#x220f;" horiz-adv-x="716" 
d="M105 760h506v-840h-90v765h-326v-765h-90v840z" />
    <glyph glyph-name="summation" unicode="&#x2211;" horiz-adv-x="570" 
d="M35 -6l240 352l-223 341v73h472v-75h-368l218 -332l-243 -357h399v-75h-495v73z" />
    <glyph glyph-name="minus" unicode="&#x2212;" horiz-adv-x="620" 
d="M83 373h454v-78h-454v78z" />
    <glyph glyph-name="uni2215" unicode="&#x2215;" horiz-adv-x="167" 
d="M317 744h89l-556 -744h-89z" />
    <glyph glyph-name="uni2219" unicode="&#x2219;" horiz-adv-x="290" 
d="M145 314q-28 0 -46.5 18.5t-18.5 46.5t18.5 46.5t46.5 18.5t46.5 -18.5t18.5 -46.5t-18.5 -46.5t-46.5 -18.5z" />
    <glyph glyph-name="radical" unicode="&#x221a;" horiz-adv-x="670" 
d="M152 373h-117v73h181l135 -351l266 715h83l-310 -810h-83z" />
    <glyph glyph-name="infinity" unicode="&#x221e;" horiz-adv-x="724" 
d="M202 172q-72 0 -117 49t-45 126t45 126t117 49q53 0 94 -27t66 -79q24 52 65 79t95 27q72 0 117 -49t45 -126t-45 -126t-117 -49q-111 0 -160 105q-25 -52 -65.5 -78.5t-94.5 -26.5zM515 245q42 0 67 27.5t25 74.5t-25 74.5t-67 27.5q-35 0 -65 -26.5t-51 -75.5
q21 -49 51 -75.5t65 -26.5zM209 245q35 0 65 26.5t51 75.5q-21 49 -51 75.5t-65 26.5q-42 0 -67 -27.5t-25 -74.5t25 -74.5t67 -27.5z" />
    <glyph glyph-name="integral" unicode="&#x222b;" horiz-adv-x="401" 
d="M57 -254q-23 0 -49 5.5t-43 14.5l7 72q19 -8 43.5 -13t40.5 -5q47 0 68 32t21 105q0 34 -1 47l-35 563q-1 15 -1 48q0 101 44 153.5t129 52.5q23 0 49 -5.5t43 -14.5l-7 -72q-20 8 -44 13t-40 5q-47 0 -68 -32t-21 -105q0 -31 1 -47l35 -563q1 -12 1 -48
q0 -101 -44 -153.5t-129 -52.5z" />
    <glyph glyph-name="approxequal" unicode="&#x2248;" horiz-adv-x="620" 
d="M420 138q-33 0 -64 14.5t-67 46.5q-33 29 -51 39.5t-37 10.5q-32 0 -48.5 -27t-20.5 -84h-75q2 89 40 138t103 49q33 0 64 -14.5t67 -46.5q33 -29 51 -39.5t37 -10.5q32 0 48.5 27t20.5 84h75q-2 -89 -40 -138t-103 -49zM420 391q-33 0 -64 14.5t-67 46.5
q-33 29 -51 39.5t-37 10.5q-32 0 -48.5 -27t-20.5 -84h-75q2 89 40 138t103 49q33 0 64 -14.5t67 -46.5q33 -29 51 -39.5t37 -10.5q32 0 48.5 27t20.5 84h75q-2 -89 -40 -138t-103 -49z" />
    <glyph glyph-name="notequal" unicode="&#x2260;" horiz-adv-x="620" 
d="M193 177h-92v78h131l80 157h-211v78h250l58 114h75l-58 -114h93v-78h-132l-80 -157h212v-78h-251l-57 -113h-75z" />
    <glyph glyph-name="lessequal" unicode="&#x2264;" horiz-adv-x="620" 
d="M83 79h454v-78h-454v78zM95 346v85l429 187v-83l-336 -145l336 -145v-86z" />
    <glyph glyph-name="greaterequal" unicode="&#x2265;" horiz-adv-x="620" 
d="M83 79h454v-78h-454v78zM96 245l336 145l-336 145v83l429 -187v-85l-429 -187v86z" />
    <glyph glyph-name="lozenge" unicode="&#x25ca;" horiz-adv-x="626" 
d="M45 405l231 406h76l229 -406l-229 -405h-76zM492 405l-180 315l-176 -315l176 -313z" />
    <glyph glyph-name="uniF507" unicode="&#xf507;" horiz-adv-x="931" 
d="M699 744h89l-556 -744h-89zM641 2l160 342h-205v64h278v-63l-161 -346zM52 336v65q52 42 111 101q48 47 65.5 75.5t17.5 58.5q0 25 -19 40t-50 15q-29 0 -53.5 -12t-52.5 -40l-15 61q22 25 57 39.5t72 14.5q58 0 94.5 -32t36.5 -83q0 -43 -27.5 -87.5t-87.5 -96.5
q-18 -16 -34 -29t-32 -27h195v-63h-278z" />
    <glyph glyph-name="uniF508" unicode="&#xf508;" horiz-adv-x="931" 
d="M669 744h89l-556 -744h-89zM641 2l160 342h-205v64h278v-63l-161 -346zM155 326q-29 0 -57.5 7t-48.5 19l6 61q22 -13 49.5 -20t53.5 -7q44 0 70 20t26 55q0 29 -24 47t-64 18q-22 0 -37 -5l-18 38l122 123h-175v62h250v-61l-103 -105q54 -6 85.5 -38t31.5 -81
q0 -60 -45.5 -96.5t-121.5 -36.5z" />
    <glyph glyph-name="uniF509" unicode="&#xf509;" horiz-adv-x="931" 
d="M681 744h89l-556 -744h-89zM641 2l160 342h-205v64h278v-63l-161 -346zM226 431h-198v56l193 257h69v-255h54v-58h-54v-95h-64v95zM226 489v172l-129 -172h129z" />
    <glyph glyph-name="uniF50A" unicode="&#xf50a;" horiz-adv-x="931" 
d="M682 744h89l-556 -744h-89zM641 2l160 342h-205v64h278v-63l-161 -346zM168 326q-31 0 -62.5 8t-47.5 20l6 61q44 -28 107 -28q45 0 70 20t25 56q0 35 -25 53t-72 18q-55 0 -92 -10l7 220h225v-63h-163l-3 -89q22 2 33 2q74 0 116.5 -34.5t42.5 -93.5q0 -65 -45 -102.5
t-122 -37.5z" />
    <glyph glyph-name="uniF50B" unicode="&#xf50b;" horiz-adv-x="931" 
d="M675 744h89l-556 -744h-89zM641 2l160 342h-205v64h278v-63l-161 -346zM188 326q-65 0 -106 40.5t-41 105.5t42.5 139t113.5 134l85 -3q-50 -39 -91 -85t-63 -88q32 30 77 30q58 0 96.5 -37t38.5 -94q0 -63 -42.5 -102.5t-109.5 -39.5zM190 385q37 0 60.5 22t23.5 56
q0 35 -24 57.5t-60 22.5q-37 0 -61 -22.5t-24 -57.5q0 -34 23.5 -56t61.5 -22z" />
    <glyph glyph-name="uniF50D" unicode="&#xf50d;" horiz-adv-x="931" 
d="M714 744h89l-556 -744h-89zM648 2q50 39 91 85t63 88q-31 -30 -77 -30q-58 0 -96.5 37t-38.5 94q0 63 42.5 102.5t109.5 39.5q65 0 106 -40.5t41 -105.5t-42.5 -139t-113.5 -134zM740 201q37 0 61 22t24 58q0 34 -23.5 56t-61.5 22q-37 0 -60.5 -22t-23.5 -56
q0 -35 24 -57.5t60 -22.5zM52 336v65q52 42 111 101q48 47 65.5 75.5t17.5 58.5q0 25 -19 40t-50 15q-29 0 -53.5 -12t-52.5 -40l-15 61q22 25 57 39.5t72 14.5q58 0 94.5 -32t36.5 -83q0 -43 -27.5 -87.5t-87.5 -96.5q-18 -16 -34 -29t-32 -27h195v-63h-278z" />
    <glyph glyph-name="uniF50E" unicode="&#xf50e;" horiz-adv-x="931" 
d="M709 744h89l-556 -744h-89zM648 2q50 39 91 85t63 88q-31 -30 -77 -30q-58 0 -96.5 37t-38.5 94q0 63 42.5 102.5t109.5 39.5q65 0 106 -40.5t41 -105.5t-42.5 -139t-113.5 -134zM740 201q37 0 61 22t24 58q0 34 -23.5 56t-61.5 22q-37 0 -60.5 -22t-23.5 -56
q0 -35 24 -57.5t60 -22.5zM226 431h-198v56l193 257h69v-255h54v-58h-54v-95h-64v95zM226 489v172l-129 -172h129z" />
    <glyph glyph-name="uniF50F" unicode="&#xf50f;" horiz-adv-x="931" 
d="M698 744h89l-556 -744h-89zM648 2q50 39 91 85t63 88q-31 -30 -77 -30q-58 0 -96.5 37t-38.5 94q0 63 42.5 102.5t109.5 39.5q65 0 106 -40.5t41 -105.5t-42.5 -139t-113.5 -134zM740 201q37 0 61 22t24 58q0 34 -23.5 56t-61.5 22q-37 0 -60.5 -22t-23.5 -56
q0 -35 24 -57.5t60 -22.5zM168 326q-31 0 -62.5 8t-47.5 20l6 61q44 -28 107 -28q45 0 70 20t25 56q0 35 -25 53t-72 18q-55 0 -92 -10l7 220h225v-63h-163l-3 -89q22 2 33 2q74 0 116.5 -34.5t42.5 -93.5q0 -65 -45 -102.5t-122 -37.5z" />
    <glyph glyph-name="uniF510" unicode="&#xf510;" horiz-adv-x="931" 
d="M649 744h89l-556 -744h-89zM648 2q50 39 91 85t63 88q-31 -30 -77 -30q-58 0 -96.5 37t-38.5 94q0 63 42.5 102.5t109.5 39.5q65 0 106 -40.5t41 -105.5t-42.5 -139t-113.5 -134zM740 201q37 0 61 22t24 58q0 34 -23.5 56t-61.5 22q-37 0 -60.5 -22t-23.5 -56
q0 -35 24 -57.5t60 -22.5zM92 338l160 342h-205v64h278v-63l-161 -346z" />
    <glyph glyph-name="uniF511" unicode="&#xf511;" horiz-adv-x="931" 
d="M699 744h89l-556 -744h-89zM648 2q50 39 91 85t63 88q-31 -30 -77 -30q-58 0 -96.5 37t-38.5 94q0 63 42.5 102.5t109.5 39.5q65 0 106 -40.5t41 -105.5t-42.5 -139t-113.5 -134zM740 201q37 0 61 22t24 58q0 34 -23.5 56t-61.5 22q-37 0 -60.5 -22t-23.5 -56
q0 -35 24 -57.5t60 -22.5zM191 326q-69 0 -110 33.5t-41 89.5q0 34 20.5 61t56.5 40q-63 27 -63 91q0 49 38.5 81t98.5 32q61 0 99 -31.5t38 -81.5q0 -64 -63 -91q36 -13 56.5 -40t20.5 -61q0 -56 -41 -89.5t-110 -33.5zM191 384q38 0 60 18t22 49q0 30 -22 48.5t-60 18.5
t-60 -18.5t-22 -48.5q0 -31 22 -49t60 -18zM191 576q33 0 52.5 16.5t19.5 44.5t-19.5 44.5t-52.5 16.5q-32 0 -51.5 -16.5t-19.5 -44.5t19.5 -44.5t51.5 -16.5z" />
    <glyph glyph-name="uniFB01" unicode="&#xfb01;" horiz-adv-x="666" 
d="M123 427h-103v73h103v80q0 115 49.5 175t144.5 60q49 0 89 -16l-9 -71q-36 12 -73 12q-62 0 -89 -40t-27 -131v-69h156v-73h-156v-427h-85v427zM491 500h85v-500h-85v500zM533 634q-25 0 -41.5 17t-16.5 43t16.5 43t41.5 17t41.5 -17t16.5 -43t-16.5 -43t-41.5 -17z" />
    <glyph glyph-name="uniFB02" unicode="&#xfb02;" horiz-adv-x="666" 
d="M123 427h-103v73h103v80q0 115 49.5 175t144.5 60q49 0 89 -16l-9 -71q-36 12 -73 12q-62 0 -89 -40t-27 -131v-69h156v-73h-156v-427h-85v427zM491 810h85v-810h-85v810z" />
    <glyph glyph-name="uniFEFF" unicode="&#xfeff;" horiz-adv-x="0" 
 />
    <glyph glyph-name="zero.pnum" horiz-adv-x="600" 
d="M300 61q82 0 126.5 80.5t44.5 230.5t-44.5 230.5t-126.5 80.5t-126.5 -80.5t-44.5 -230.5t44.5 -230.5t126.5 -80.5zM300 -16q-79 0 -138 46t-91.5 133.5t-32.5 208.5q0 117 31 204.5t90 135.5t141 48q79 0 138 -46t91.5 -133.5t32.5 -208.5q0 -117 -31 -204.5
t-90 -135.5t-141 -48z" />
    <glyph glyph-name="one.pnum" horiz-adv-x="487" 
d="M261 650l-203 -93l-12 79l235 108h67v-744h-87v650z" />
    <glyph glyph-name="two.pnum" horiz-adv-x="586" 
d="M64 0v74q127 124 185 194q91 107 124.5 168t33.5 118q0 60 -35.5 94.5t-97.5 34.5q-53 0 -101 -24.5t-82 -68.5l-18 81q37 42 92.5 65.5t117.5 23.5q96 0 154 -53t58 -142q0 -73 -39.5 -148t-132.5 -179q-83 -91 -152 -157h344v-81h-451z" />
    <glyph glyph-name="three.pnum" horiz-adv-x="586" 
d="M243 -16q-52 0 -102.5 12.5t-84.5 34.5l8 78q79 -50 182 -50q81 0 128 42t47 114q0 70 -46 110.5t-126 40.5q-30 0 -65 -8l-24 53l229 255h-324v78h421v-74l-212 -236q69 -1 121.5 -27.5t82 -75t29.5 -114.5q0 -109 -70 -171t-194 -62z" />
    <glyph glyph-name="four.pnum" horiz-adv-x="618" 
d="M385 190h-338v72l335 482h86v-481h102v-73h-102v-190h-83v190zM385 263v365l-256 -365h256z" />
    <glyph glyph-name="five.pnum" horiz-adv-x="593" 
d="M252 -16q-52 0 -104.5 13.5t-81.5 34.5l8 79q36 -24 84 -37.5t95 -13.5q85 0 135 44.5t50 121.5q0 74 -53 117.5t-144 43.5q-30 0 -70.5 -5t-71.5 -13l12 375h366v-81h-291l-7 -209q45 8 80 8q122 0 193.5 -63t71.5 -171q0 -110 -74.5 -177t-197.5 -67z" />
    <glyph glyph-name="six.pnum" horiz-adv-x="600" 
d="M301 -16q-69 0 -122.5 30t-84.5 86t-31 131q0 122 77.5 264t203.5 251l105 -5q-207 -175 -273 -351q59 65 154 65q61 0 111 -29t80 -81.5t30 -118.5q0 -68 -31 -122.5t-88 -87t-131 -32.5zM305 56q70 0 115.5 46t45.5 117q0 74 -44 119t-117 45q-70 0 -115.5 -46.5
t-45.5 -117.5t45.5 -117t115.5 -46z" />
    <glyph glyph-name="seven.pnum" horiz-adv-x="568" 
d="M146 3l285 658h-375v83h463v-78l-285 -668z" />
    <glyph glyph-name="eight.pnum" horiz-adv-x="600" 
d="M300 -16q-71 0 -127 26t-88.5 74.5t-32.5 111.5q0 71 38.5 122.5t104.5 70.5q-58 19 -90.5 65t-32.5 108q0 56 28.5 101t81 71t120.5 26q64 0 115.5 -24t82 -69t30.5 -104q0 -63 -33 -109t-91 -65q66 -18 105 -70t39 -123q0 -60 -30.5 -108t-87.5 -76t-132 -28zM301 58
q74 0 118.5 40t44.5 106t-44.5 106.5t-118.5 40.5t-118.5 -40.5t-44.5 -106.5t44.5 -106t118.5 -40zM301 423q66 0 106 36.5t40 96.5t-40.5 97t-105.5 37t-105.5 -37t-40.5 -97t40 -96.5t106 -36.5z" />
    <glyph glyph-name="nine.pnum" horiz-adv-x="600" 
d="M153 3q207 176 273 351q-59 -65 -154 -65q-61 0 -111 29t-80 81.5t-30 118.5q0 68 31 122.5t88 87t131 32.5q69 0 122.5 -30t84.5 -86t31 -131q0 -122 -77.5 -264t-203.5 -251zM297 361q70 0 115.5 46.5t45.5 117.5t-45.5 117t-115.5 46t-115.5 -46t-45.5 -117
q0 -74 44 -119t117 -45z" />
    <glyph glyph-name="zero.dnom" 
d="M191 -10q-76 0 -121 58t-45 156t45 156t121 58t121 -58t45 -156t-45 -156t-121 -58zM191 51q44 0 69 40.5t25 112.5t-25 112.5t-69 40.5t-69 -40.5t-25 -112.5t25 -112.5t69 -40.5z" />
    <glyph glyph-name="one.dnom" 
d="M195 335l-116 -53l-10 64l136 62h59v-408h-69v335z" />
    <glyph glyph-name="two.dnom" 
d="M52 0v65q52 42 111 101q48 47 65.5 75.5t17.5 58.5q0 25 -19 40t-50 15q-29 0 -53.5 -12t-52.5 -40l-15 61q22 25 57 39.5t72 14.5q58 0 94.5 -32t36.5 -83q0 -43 -27.5 -87.5t-87.5 -96.5q-18 -16 -34 -29t-32 -27h195v-63h-278z" />
    <glyph glyph-name="three.dnom" 
d="M155 -10q-29 0 -57.5 7t-48.5 19l6 61q22 -13 49.5 -20t53.5 -7q44 0 70 20t26 55q0 29 -24 47t-64 18q-22 0 -37 -5l-18 38l122 123h-175v62h250v-61l-103 -105q54 -6 85.5 -38t31.5 -81q0 -60 -45.5 -96.5t-121.5 -36.5z" />
    <glyph glyph-name="four.dnom" 
d="M226 95h-198v56l193 257h69v-255h54v-58h-54v-95h-64v95zM226 153v172l-129 -172h129z" />
    <glyph glyph-name="five.dnom" 
d="M168 -10q-31 0 -62.5 8t-47.5 20l6 61q44 -28 107 -28q45 0 70 20t25 56q0 35 -25 53t-72 18q-55 0 -92 -10l7 220h225v-63h-163l-3 -89q22 2 33 2q74 0 116.5 -34.5t42.5 -93.5q0 -65 -45 -102.5t-122 -37.5z" />
    <glyph glyph-name="six.dnom" 
d="M188 -10q-65 0 -106 40.5t-41 105.5t42.5 139t113.5 134l85 -3q-50 -39 -91 -85t-63 -88q32 30 77 30q58 0 96.5 -37t38.5 -94q0 -63 -42.5 -102.5t-109.5 -39.5zM190 49q37 0 60.5 22t23.5 56q0 35 -24 57.5t-60 22.5q-37 0 -61 -22.5t-24 -57.5q0 -34 23.5 -56
t61.5 -22z" />
    <glyph glyph-name="seven.dnom" 
d="M92 2l160 342h-205v64h278v-63l-161 -346z" />
    <glyph glyph-name="eight.dnom" 
d="M191 -10q-69 0 -110 33.5t-41 89.5q0 34 20.5 61t56.5 40q-63 27 -63 91q0 49 38.5 81t98.5 32q61 0 99 -31.5t38 -81.5q0 -64 -63 -91q36 -13 56.5 -40t20.5 -61q0 -56 -41 -89.5t-110 -33.5zM191 48q38 0 60 18t22 49q0 30 -22 48.5t-60 18.5t-60 -18.5t-22 -48.5
q0 -31 22 -49t60 -18zM191 240q33 0 52.5 16.5t19.5 44.5t-19.5 44.5t-52.5 16.5q-32 0 -51.5 -16.5t-19.5 -44.5t19.5 -44.5t51.5 -16.5z" />
    <glyph glyph-name="nine.dnom" 
d="M99 2q50 39 91 85t63 88q-31 -30 -77 -30q-58 0 -96.5 37t-38.5 94q0 63 42.5 102.5t109.5 39.5q65 0 106 -40.5t41 -105.5t-42.5 -139t-113.5 -134zM191 201q37 0 61 22t24 58q0 34 -23.5 56t-61.5 22q-37 0 -60.5 -22t-23.5 -56q0 -35 24 -57.5t60 -22.5z" />
    <glyph glyph-name="zero.numr" 
d="M191 326q-76 0 -121 58t-45 156t45 156t121 58t121 -58t45 -156t-45 -156t-121 -58zM191 387q44 0 69 40.5t25 112.5t-25 112.5t-69 40.5t-69 -40.5t-25 -112.5t25 -112.5t69 -40.5z" />
    <glyph glyph-name="one.numr" 
d="M195 671l-116 -53l-10 64l136 62h59v-408h-69v335z" />
    <glyph glyph-name="two.numr" 
d="M52 336v65q52 42 111 101q48 47 65.5 75.5t17.5 58.5q0 25 -19 40t-50 15q-29 0 -53.5 -12t-52.5 -40l-15 61q22 25 57 39.5t72 14.5q58 0 94.5 -32t36.5 -83q0 -43 -27.5 -87.5t-87.5 -96.5q-18 -16 -34 -29t-32 -27h195v-63h-278z" />
    <glyph glyph-name="three.numr" 
d="M155 326q-29 0 -57.5 7t-48.5 19l6 61q22 -13 49.5 -20t53.5 -7q44 0 70 20t26 55q0 29 -24 47t-64 18q-22 0 -37 -5l-18 38l122 123h-175v62h250v-61l-103 -105q54 -6 85.5 -38t31.5 -81q0 -60 -45.5 -96.5t-121.5 -36.5z" />
    <glyph glyph-name="four.numr" 
d="M226 431h-198v56l193 257h69v-255h54v-58h-54v-95h-64v95zM226 489v172l-129 -172h129z" />
    <glyph glyph-name="five.numr" 
d="M168 326q-31 0 -62.5 8t-47.5 20l6 61q44 -28 107 -28q45 0 70 20t25 56q0 35 -25 53t-72 18q-55 0 -92 -10l7 220h225v-63h-163l-3 -89q22 2 33 2q74 0 116.5 -34.5t42.5 -93.5q0 -65 -45 -102.5t-122 -37.5z" />
    <glyph glyph-name="six.numr" 
d="M188 326q-65 0 -106 40.5t-41 105.5t42.5 139t113.5 134l85 -3q-50 -39 -91 -85t-63 -88q32 30 77 30q58 0 96.5 -37t38.5 -94q0 -63 -42.5 -102.5t-109.5 -39.5zM190 385q37 0 60.5 22t23.5 56q0 35 -24 57.5t-60 22.5q-37 0 -61 -22.5t-24 -57.5q0 -34 23.5 -56
t61.5 -22z" />
    <glyph glyph-name="seven.numr" 
d="M92 338l160 342h-205v64h278v-63l-161 -346z" />
    <glyph glyph-name="eight.numr" 
d="M191 326q-69 0 -110 33.5t-41 89.5q0 34 20.5 61t56.5 40q-63 27 -63 91q0 49 38.5 81t98.5 32q61 0 99 -31.5t38 -81.5q0 -64 -63 -91q36 -13 56.5 -40t20.5 -61q0 -56 -41 -89.5t-110 -33.5zM191 384q38 0 60 18t22 49q0 30 -22 48.5t-60 18.5t-60 -18.5t-22 -48.5
q0 -31 22 -49t60 -18zM191 576q33 0 52.5 16.5t19.5 44.5t-19.5 44.5t-52.5 16.5q-32 0 -51.5 -16.5t-19.5 -44.5t19.5 -44.5t51.5 -16.5z" />
    <glyph glyph-name="nine.numr" 
d="M99 338q50 39 91 85t63 88q-31 -30 -77 -30q-58 0 -96.5 37t-38.5 94q0 63 42.5 102.5t109.5 39.5q65 0 106 -40.5t41 -105.5t-42.5 -139t-113.5 -134zM191 537q37 0 61 22t24 58q0 34 -23.5 56t-61.5 22q-37 0 -60.5 -22t-23.5 -56q0 -35 24 -57.5t60 -22.5z" />
    <glyph glyph-name="hyphen.case" horiz-adv-x="443" 
d="M75 422h293v-85h-293v85z" />
    <glyph glyph-name="endash.case" horiz-adv-x="500" 
d="M0 418h500v-76h-500v76z" />
    <glyph glyph-name="emdash.case" horiz-adv-x="1000" 
d="M0 418h1000v-76h-1000v76z" />
    <glyph glyph-name="parenleft.case" horiz-adv-x="397" 
d="M272 -60q-55 47 -98.5 122t-68.5 167.5t-25 186.5q0 140 53.5 272.5t138.5 204.5h105q-101 -83 -156 -207t-55 -270q0 -144 55 -268.5t156 -207.5h-105z" />
    <glyph glyph-name="parenright.case" horiz-adv-x="397" 
d="M20 -60q101 83 156 207t55 270q0 144 -55 268.5t-156 207.5h105q55 -47 98.5 -122t68.5 -167.5t25 -186.5q0 -140 -53.5 -272.5t-138.5 -204.5h-105z" />
    <glyph glyph-name="slash.case" horiz-adv-x="507" 
d="M400 851h90l-383 -943h-90z" />
    <glyph glyph-name="backslash.case" horiz-adv-x="507" 
d="M17 851h90l383 -943h-90z" />
    <glyph glyph-name="bracketleft.case" horiz-adv-x="395" 
d="M115 892h245v-71h-163v-811h163v-71h-245v953z" />
    <glyph glyph-name="bracketright.case" horiz-adv-x="395" 
d="M35 10h163v811h-163v71h245v-953h-245v71z" />
    <glyph glyph-name="braceleft.case" horiz-adv-x="423" 
d="M324 -70q-94 0 -136.5 35.5t-42.5 112.5q1 34 9 69.5t16 72t9 74.5q0 46 -21 63.5t-79 17.5h-29v75h29q58 0 79 17.5t21 63.5q-1 38 -9 74.5t-16 72t-9 69.5q0 77 42.5 112.5t136.5 35.5q18 0 44 -2v-70q-8 1 -44 1q-98 0 -98 -76q1 -26 9 -61.5t15.5 -75t8.5 -78.5
q0 -43 -19.5 -74.5t-54.5 -46.5q35 -14 54.5 -45.5t19.5 -74.5q-1 -39 -8.5 -78.5t-15.5 -75t-9 -61.5q0 -76 98 -76q36 0 44 1v-70q-26 -2 -44 -2z" />
    <glyph glyph-name="braceright.case" horiz-adv-x="423" 
d="M99 -70q-18 0 -44 2v70q8 -1 44 -1q98 0 98 76q-1 26 -8.5 61.5t-15.5 75t-9 78.5q0 43 19.5 74.5t54.5 46.5q-35 14 -54.5 45.5t-19.5 74.5q1 39 9 78.5t15.5 75t8.5 61.5q0 76 -98 76q-36 0 -44 -1v70q26 2 44 2q94 0 136.5 -35.5t42.5 -112.5q-1 -34 -9 -69.5t-16 -72
t-9 -74.5q0 -46 21 -63.5t79 -17.5h29v-75h-29q-58 0 -79 -17.5t-21 -63.5q1 -38 9 -74.5t16 -72t9 -69.5q0 -77 -42.5 -112.5t-136.5 -35.5z" />
    <glyph glyph-name="bullet.case" horiz-adv-x="346" 
d="M173 205q-51 0 -87 36t-36 87t36 87t87 36t87 -36t36 -87t-36 -87t-87 -36z" />
    <glyph glyph-name="guilsinglleft.case" horiz-adv-x="323" 
d="M35 380l145 214h98l-145 -214l145 -214h-98z" />
    <glyph glyph-name="guilsinglright.case" horiz-adv-x="323" 
d="M189 380l-144 214h98l145 -214l-145 -214h-98z" />
    <glyph glyph-name="guillemotleft.case" horiz-adv-x="533" 
d="M35 380l145 214h98l-145 -214l145 -214h-98zM245 380l145 214h98l-145 -214l145 -214h-98z" />
    <glyph glyph-name="guillemotright.case" horiz-adv-x="533" 
d="M189 380l-144 214h98l145 -214l-145 -214h-98zM399 380l-144 214h98l145 -214l-145 -214h-98z" />
    <glyph glyph-name="at.case" horiz-adv-x="1000" 
d="M486 -79q-126 0 -224.5 50.5t-155 145t-56.5 219.5q0 126 62.5 234.5t175.5 175.5t253 67q117 0 210.5 -47t148.5 -134t55 -201q0 -79 -27.5 -145.5t-78 -107t-114.5 -40.5q-53 0 -86 23t-40 65q-23 -40 -65 -64t-87 -24q-50 0 -90.5 24t-64 69.5t-23.5 104.5
q0 66 27.5 122.5t78 91.5t112.5 35q50 0 88.5 -26t52.5 -69l17 79h71l-45 -272q-3 -21 -3 -36q0 -31 13.5 -45t44.5 -14q39 0 72 27.5t53 78t20 113.5q0 95 -41 168t-118.5 113.5t-183.5 40.5q-113 0 -207 -50.5t-150.5 -144t-56.5 -211.5q0 -102 43.5 -180t126 -122
t193.5 -44q109 0 212 47l5 -71q-103 -46 -218 -46zM477 208q64 0 104 47.5t40 123.5q0 65 -31.5 100.5t-89.5 35.5q-64 0 -104 -47.5t-40 -123.5q0 -65 31.5 -100.5t89.5 -35.5z" />
    <glyph glyph-name="periodcentered.case" horiz-adv-x="290" 
d="M145 334q-28 0 -46.5 18.5t-18.5 46.5t18.5 46.5t46.5 18.5t46.5 -18.5t18.5 -46.5t-18.5 -46.5t-46.5 -18.5z" />
    <glyph glyph-name="a.ss01" horiz-adv-x="661" 
d="M295 -16q-67 0 -121.5 33t-86.5 94t-32 139q0 70 31.5 130.5t89.5 98t129 37.5q57 0 104.5 -28t76.5 -79l2 91h83v-500h-83l-2 91q-29 -52 -78.5 -79.5t-112.5 -27.5zM317 60q77 0 126 53t49 137t-49 137t-126 53t-126 -53t-49 -137t49 -137t126 -53z" />
    <glyph glyph-name="g.ss01" horiz-adv-x="661" 
d="M299 -254q-55 0 -107.5 12.5t-79.5 32.5l11 76q34 -21 80.5 -33.5t95.5 -12.5q95 0 141 49t46 150v71q-29 -52 -78.5 -79.5t-112.5 -27.5q-67 0 -121.5 33t-86.5 94t-32 139q0 70 31.5 130.5t89.5 98t129 37.5q57 0 104.5 -28t76.5 -79l2 91h83v-471q0 -140 -68.5 -211.5
t-203.5 -71.5zM317 60q77 0 126 53t49 137t-49 137t-126 53t-126 -53t-49 -137t49 -137t126 -53z" />
    <glyph glyph-name="y.ss01" horiz-adv-x="551" 
d="M235 41l-215 459h92l168 -367l162 367h89l-346 -745h-88z" />
    <glyph glyph-name="j.ss01" horiz-adv-x="265" 
d="M90 500h85v-745h-85v745zM132 634q-25 0 -41.5 17t-16.5 43t16.5 43t41.5 17t41.5 -17t16.5 -43t-16.5 -43t-41.5 -17z" />
    <glyph glyph-name="M.ss01" horiz-adv-x="988" 
d="M105 760h104l289 -505l288 505h97v-760h-90v624l-259 -452h-80l-259 452v-624h-90v760z" />
    <glyph glyph-name="t.ss01" horiz-adv-x="394" 
d="M139 427h-115v73h115v144h85v-144h140v-73h-140v-427h-85v427z" />
    <glyph glyph-name="u.ss01" horiz-adv-x="604" 
d="M302 -16q-101 0 -158 55t-57 152v309h85v-309q0 -65 33 -98.5t98 -33.5q64 0 96.5 33.5t32.5 98.5v309h85v-309q0 -97 -57 -152t-158 -55z" />
    <glyph glyph-name="glyph274" horiz-adv-x="290" 
d="M145 314q-28 0 -46.5 18.5t-18.5 46.5t18.5 46.5t46.5 18.5t46.5 -18.5t18.5 -46.5t-18.5 -46.5t-46.5 -18.5z" />
    <glyph glyph-name="glyph275" horiz-adv-x="290" 
d="M145 343q-28 0 -46.5 18.5t-18.5 46.5t18.5 46.5t46.5 18.5t46.5 -18.5t18.5 -46.5t-18.5 -46.5t-46.5 -18.5z" />
    <glyph glyph-name="uni0237.ss01" horiz-adv-x="265" 
d="M90 500h85v-745h-85v745z" />
    <glyph glyph-name="ij.ss01" horiz-adv-x="529" 
d="M90 500h85v-500h-85v500zM132 634q-25 0 -41.5 17t-16.5 43t16.5 43t41.5 17t41.5 -17t16.5 -43t-16.5 -43t-41.5 -17zM354 500h85v-745h-85v745zM396 634q-25 0 -41.5 17t-16.5 43t16.5 43t41.5 17t41.5 -17t16.5 -43t-16.5 -43t-41.5 -17z" />
    <glyph glyph-name="ae.ss01" horiz-adv-x="1016" 
d="M295 -16q-67 0 -121.5 33t-86.5 94t-32 139q0 70 31.5 130.5t89.5 98t129 37.5q52 0 98.5 -25.5t75.5 -69.5l2 79h75l1 -73q26 42 70 65.5t98 23.5q101 0 163.5 -68t62.5 -178q0 -13 -0.5 -24t-1.5 -23h-388q9 -79 60 -121t137 -42q88 0 172 41l10 -72q-34 -21 -83.5 -33
t-102.5 -12q-60 0 -112.5 22.5t-84.5 62.5l-1 -69h-75l-2 80q-30 -47 -77.5 -71.5t-106.5 -24.5zM317 60q77 0 126 53t49 137t-49 137t-126 53t-126 -53t-49 -137t49 -137t126 -53zM869 290q-4 73 -42.5 113t-106.5 40q-65 0 -107 -40.5t-51 -112.5h307z" />
    <glyph glyph-name="glyph306" horiz-adv-x="0" 
d="M-22 -255q-23 0 -47.5 5.5t-37.5 12.5l14 62q29 -16 71 -16q59 0 59 38q0 36 -60 36q-28 0 -40 -3l34 130h63l-22 -76q45 0 72.5 -24.5t27.5 -64.5q0 -46 -36 -73t-98 -27z" />
    <glyph glyph-name="glyph309" horiz-adv-x="0" 
d="M-88 -245q43 71 45 180h88q-1 -29 -10 -62.5t-24.5 -65t-33.5 -52.5h-65z" />
    <glyph glyph-name="glyph312" horiz-adv-x="0" 
d="M-32 -252q-49 0 -77.5 24t-28.5 66q0 48 37.5 97.5t104.5 90.5l40 -26q-50 -37 -78 -74.5t-28 -68.5q0 -38 44 -38q32 0 60 15l9 -66q-31 -20 -83 -20z" />
    <glyph glyph-name="glyph313" horiz-adv-x="0" 
d="M4 -252q-51 0 -79 24t-28 67q0 35 20.5 70.5t58.5 66t87 48.5l55 5q-145 -98 -145 -172q0 -38 44 -38q32 0 60 15l9 -66q-31 -20 -82 -20z" />
    <glyph glyph-name="glyph314" horiz-adv-x="0" 
d="M4 -252q-51 0 -79 24t-28 67q0 54 47.5 108t118.5 82h55q-145 -98 -145 -172q0 -38 44 -38q32 0 60 15l9 -66q-31 -20 -82 -20z" />
    <glyph glyph-name="uni0123.ss01" horiz-adv-x="661" 
d="M299 -254q-55 0 -107.5 12.5t-79.5 32.5l11 76q34 -21 80.5 -33.5t95.5 -12.5q95 0 141 49t46 150v71q-29 -52 -78.5 -79.5t-112.5 -27.5q-67 0 -121.5 33t-86.5 94t-32 139q0 70 31.5 130.5t89.5 98t129 37.5q57 0 104.5 -28t76.5 -79l2 91h83v-471q0 -140 -68.5 -211.5
t-203.5 -71.5zM317 60q77 0 126 53t49 137t-49 137t-126 53t-126 -53t-49 -137t49 -137t126 -53zM276 610q5 91 67 163h64q-21 -35 -30 -70t-10 -93h-91z" />
    <glyph glyph-name="aogonek.ss01" horiz-adv-x="661" 
d="M295 -16q-67 0 -121.5 33t-86.5 94t-32 139q0 70 31.5 130.5t89.5 98t129 37.5q57 0 104.5 -28t76.5 -79l2 91h83v-500h-83l-2 91q-29 -52 -78.5 -79.5t-112.5 -27.5zM317 60q77 0 126 53t49 137t-49 137t-126 53t-126 -53t-49 -137t49 -137t126 -53zM496 -252
q-49 0 -77.5 24t-28.5 66q0 48 37.5 98t103.5 90l40 -26q-48 -35 -76.5 -73.5t-28.5 -69.5q0 -38 44 -38q32 0 60 15l9 -66q-31 -20 -83 -20z" />
    <glyph glyph-name="uni0163.ss01" horiz-adv-x="394" 
d="M139 427h-115v73h115v144h85v-144h140v-73h-140v-427h-85v427zM159 -255q-23 0 -47.5 5.5t-37.5 12.5l14 60q29 -16 71 -16q32 0 46.5 9.5t14.5 30.5q0 38 -62 38q-27 0 -39 -3l34 128h61l-22 -76q45 0 73 -24.5t28 -64.5q0 -46 -36 -73t-98 -27z" />
    <glyph glyph-name="uni021B.ss01" horiz-adv-x="394" 
d="M139 427h-115v73h115v144h85v-144h140v-73h-140v-427h-85v427zM97 -245q43 71 45 180h88q-1 -29 -10 -62.5t-24.5 -65t-33.5 -52.5h-65z" />
    <glyph glyph-name="uogonek.ss01" horiz-adv-x="604" 
d="M302 -16q-101 0 -158 55t-57 152v309h85v-309q0 -65 33 -98.5t98 -33.5q64 0 96.5 33.5t32.5 98.5v309h85v-309q0 -97 -57 -152t-158 -55zM335 -252q-51 0 -79 24t-28 67q0 35 20.5 70.5t58.5 66t87 48.5l55 5q-145 -98 -145 -172q0 -38 44 -38q32 0 60 15l9 -66
q-31 -20 -82 -20z" />
    <glyph glyph-name="glyph348" horiz-adv-x="0" 
d="M34 964h114l-134 -129h-90z" />
    <glyph glyph-name="glyph351" horiz-adv-x="0" 
d="M-66 964h103l-107 -129h-82zM110 964h103l-107 -129h-82z" />
    <glyph glyph-name="aacute.ss01" horiz-adv-x="661" 
d="M295 -16q-67 0 -121.5 33t-86.5 94t-32 139q0 70 31.5 130.5t89.5 98t129 37.5q57 0 104.5 -28t76.5 -79l2 91h83v-500h-83l-2 91q-29 -52 -78.5 -79.5t-112.5 -27.5zM317 60q77 0 126 53t49 137t-49 137t-126 53t-126 -53t-49 -137t49 -137t126 -53zM361 773h103
l-130 -163h-80z" />
    <glyph glyph-name="yacute.ss01" horiz-adv-x="551" 
d="M235 41l-215 459h92l168 -367l162 367h89l-346 -745h-88zM314 773h103l-130 -163h-80z" />
    <glyph glyph-name="uacute.ss01" horiz-adv-x="604" 
d="M302 -16q-101 0 -158 55t-57 152v309h85v-309q0 -65 33 -98.5t98 -33.5q64 0 96.5 33.5t32.5 98.5v309h85v-309q0 -97 -57 -152t-158 -55zM335 773h103l-130 -163h-80z" />
    <glyph glyph-name="uhungarumlaut.ss01" horiz-adv-x="604" 
d="M302 -16q-101 0 -158 55t-57 152v309h85v-309q0 -65 33 -98.5t98 -33.5q64 0 96.5 33.5t32.5 98.5v309h85v-309q0 -97 -57 -152t-158 -55zM253 773h98l-114 -163h-75zM424 773h98l-114 -163h-75z" />
    <glyph glyph-name="glyph388" horiz-adv-x="0" 
d="M-147 964h114l110 -129h-90z" />
    <glyph glyph-name="agrave.ss01" horiz-adv-x="661" 
d="M295 -16q-67 0 -121.5 33t-86.5 94t-32 139q0 70 31.5 130.5t89.5 98t129 37.5q57 0 104.5 -28t76.5 -79l2 91h83v-500h-83l-2 91q-29 -52 -78.5 -79.5t-112.5 -27.5zM317 60q77 0 126 53t49 137t-49 137t-126 53t-126 -53t-49 -137t49 -137t126 -53zM192 773h103
l107 -163h-80z" />
    <glyph glyph-name="ygrave.ss01" horiz-adv-x="551" 
d="M235 41l-215 459h92l168 -367l162 367h89l-346 -745h-88zM145 773h103l107 -163h-80z" />
    <glyph glyph-name="ugrave.ss01" horiz-adv-x="604" 
d="M302 -16q-101 0 -158 55t-57 152v309h85v-309q0 -65 33 -98.5t98 -33.5q64 0 96.5 33.5t32.5 98.5v309h85v-309q0 -97 -57 -152t-158 -55zM166 773h103l107 -163h-80z" />
    <glyph glyph-name="glyph409" horiz-adv-x="0" 
d="M-40 977h80l140 -142h-95l-85 87l-85 -87h-95z" />
    <glyph glyph-name="glyph412" horiz-adv-x="0" 
d="M71 834q-27 1 -47 11t-35 23.5t-28.5 23.5t-28.5 11q-37 0 -37 -68h-64q0 66 25.5 101t73.5 35q27 -1 47 -11t35 -23.5t28.5 -23.5t28.5 -11q37 0 37 68h64q0 -66 -25.5 -101t-73.5 -35z" />
    <glyph glyph-name="acircumflex.ss01" horiz-adv-x="661" 
d="M295 -16q-67 0 -121.5 33t-86.5 94t-32 139q0 70 31.5 130.5t89.5 98t129 37.5q57 0 104.5 -28t76.5 -79l2 91h83v-500h-83l-2 91q-29 -52 -78.5 -79.5t-112.5 -27.5zM317 60q77 0 126 53t49 137t-49 137t-126 53t-126 -53t-49 -137t49 -137t126 -53zM292 773h72
l139 -163h-86l-89 105l-89 -105h-86z" />
    <glyph glyph-name="ycircumflex.ss01" horiz-adv-x="551" 
d="M235 41l-215 459h92l168 -367l162 367h89l-346 -745h-88zM245 773h72l139 -163h-86l-89 105l-89 -105h-86z" />
    <glyph glyph-name="atilde.ss01" horiz-adv-x="661" 
d="M295 -16q-67 0 -121.5 33t-86.5 94t-32 139q0 70 31.5 130.5t89.5 98t129 37.5q57 0 104.5 -28t76.5 -79l2 91h83v-500h-83l-2 91q-29 -52 -78.5 -79.5t-112.5 -27.5zM317 60q77 0 126 53t49 137t-49 137t-126 53t-126 -53t-49 -137t49 -137t126 -53zM399 621
q-27 1 -47 11t-35 23.5t-28.5 23.5t-28.5 11q-37 0 -37 -68h-64q0 66 25.5 101t73.5 35q27 -1 47 -11t35 -23.5t28.5 -23.5t28.5 -11q37 0 37 68h64q0 -66 -25.5 -101t-73.5 -35z" />
    <glyph glyph-name="ucircumflex.ss01" horiz-adv-x="604" 
d="M302 -16q-101 0 -158 55t-57 152v309h85v-309q0 -65 33 -98.5t98 -33.5q64 0 96.5 33.5t32.5 98.5v309h85v-309q0 -97 -57 -152t-158 -55zM266 773h72l139 -163h-86l-89 105l-89 -105h-86z" />
    <glyph glyph-name="utilde.ss01" horiz-adv-x="604" 
d="M302 -16q-101 0 -158 55t-57 152v309h85v-309q0 -65 33 -98.5t98 -33.5q64 0 96.5 33.5t32.5 98.5v309h85v-309q0 -97 -57 -152t-158 -55zM373 621q-27 1 -47 11t-35 23.5t-28.5 23.5t-28.5 11q-37 0 -37 -68h-64q0 66 25.5 101t73.5 35q27 -1 47 -11t35 -23.5
t28.5 -23.5t28.5 -11q37 0 37 68h64q0 -66 -25.5 -101t-73.5 -35z" />
    <glyph glyph-name="glyph444" horiz-adv-x="0" 
d="M-180 977h95l85 -88l85 88h95l-140 -142h-80z" />
    <glyph glyph-name="glyph447" horiz-adv-x="0" 
d="M-40 810h90l-43 -205h-58z" />
    <glyph glyph-name="glyph449" horiz-adv-x="0" 
d="M-153 927h306v-73h-306v73z" />
    <glyph glyph-name="amacron.ss01" horiz-adv-x="661" 
d="M295 -16q-67 0 -121.5 33t-86.5 94t-32 139q0 70 31.5 130.5t89.5 98t129 37.5q57 0 104.5 -28t76.5 -79l2 91h83v-500h-83l-2 91q-29 -52 -78.5 -79.5t-112.5 -27.5zM317 60q77 0 126 53t49 137t-49 137t-126 53t-126 -53t-49 -137t49 -137t126 -53zM175 720h306v-73
h-306v73z" />
    <glyph glyph-name="tcaron.ss01" horiz-adv-x="394" 
d="M139 427h-115v73h115v144h85v-144h140v-73h-140v-427h-85v427zM311 810h90l-43 -205h-58z" />
    <glyph glyph-name="umacron.ss01" horiz-adv-x="604" 
d="M302 -16q-101 0 -158 55t-57 152v309h85v-309q0 -65 33 -98.5t98 -33.5q64 0 96.5 33.5t32.5 98.5v309h85v-309q0 -97 -57 -152t-158 -55zM149 720h306v-73h-306v73z" />
    <glyph glyph-name="glyph484" horiz-adv-x="0" 
d="M-98 833q-24 0 -39 15t-15 40q0 24 15.5 40t38.5 16q24 0 39.5 -15.5t15.5 -40.5q0 -24 -15.5 -39.5t-39.5 -15.5zM97 833q-24 0 -39 15t-15 40q0 24 15.5 40t38.5 16q24 0 39.5 -15.5t15.5 -40.5q0 -24 -15.5 -39.5t-39.5 -15.5z" />
    <glyph glyph-name="glyph487" horiz-adv-x="0" 
d="M0 825q-74 0 -116 36t-42 99v7t1 6h68q0 -41 23 -63t66 -22t66 22t23 63h68q1 -3 1 -6v-7q0 -63 -42 -99t-116 -36z" />
    <glyph glyph-name="adieresis.ss01" horiz-adv-x="661" 
d="M295 -16q-67 0 -121.5 33t-86.5 94t-32 139q0 70 31.5 130.5t89.5 98t129 37.5q57 0 104.5 -28t76.5 -79l2 91h83v-500h-83l-2 91q-29 -52 -78.5 -79.5t-112.5 -27.5zM317 60q77 0 126 53t49 137t-49 137t-126 53t-126 -53t-49 -137t49 -137t126 -53zM232 640
q-24 0 -39 15t-15 40q0 24 15.5 40t38.5 16q24 0 39.5 -15.5t15.5 -40.5q0 -24 -15.5 -39.5t-39.5 -15.5zM423 640q-24 0 -39 15t-15 40q0 24 15.5 40t38.5 16q24 0 39.5 -15.5t15.5 -40.5q0 -24 -15.5 -39.5t-39.5 -15.5z" />
    <glyph glyph-name="ydieresis.ss01" horiz-adv-x="551" 
d="M235 41l-215 459h92l168 -367l162 367h89l-346 -745h-88zM185 640q-24 0 -39 15t-15 40q0 24 15.5 40t38.5 16q24 0 39.5 -15.5t15.5 -40.5q0 -24 -15.5 -39.5t-39.5 -15.5zM376 640q-24 0 -39 15t-15 40q0 24 15.5 40t38.5 16q24 0 39.5 -15.5t15.5 -40.5
q0 -24 -15.5 -39.5t-39.5 -15.5z" />
    <glyph glyph-name="abreve.ss01" horiz-adv-x="661" 
d="M295 -16q-67 0 -121.5 33t-86.5 94t-32 139q0 70 31.5 130.5t89.5 98t129 37.5q57 0 104.5 -28t76.5 -79l2 91h83v-500h-83l-2 91q-29 -52 -78.5 -79.5t-112.5 -27.5zM317 60q77 0 126 53t49 137t-49 137t-126 53t-126 -53t-49 -137t49 -137t126 -53zM328 599
q-70 0 -110.5 38.5t-40.5 104.5q0 9 1 12h65q0 -93 85 -93t85 93h65q1 -3 1 -12q0 -66 -40.5 -104.5t-110.5 -38.5z" />
    <glyph glyph-name="gbreve.ss01" horiz-adv-x="661" 
d="M299 -254q-55 0 -107.5 12.5t-79.5 32.5l11 76q34 -21 80.5 -33.5t95.5 -12.5q95 0 141 49t46 150v71q-29 -52 -78.5 -79.5t-112.5 -27.5q-67 0 -121.5 33t-86.5 94t-32 139q0 70 31.5 130.5t89.5 98t129 37.5q57 0 104.5 -28t76.5 -79l2 91h83v-471q0 -140 -68.5 -211.5
t-203.5 -71.5zM317 60q77 0 126 53t49 137t-49 137t-126 53t-126 -53t-49 -137t49 -137t126 -53zM328 599q-70 0 -110.5 38.5t-40.5 104.5q0 9 1 12h65q0 -93 85 -93t85 93h65q1 -3 1 -12q0 -66 -40.5 -104.5t-110.5 -38.5z" />
    <glyph glyph-name="udieresis.ss01" horiz-adv-x="604" 
d="M302 -16q-101 0 -158 55t-57 152v309h85v-309q0 -65 33 -98.5t98 -33.5q64 0 96.5 33.5t32.5 98.5v309h85v-309q0 -97 -57 -152t-158 -55zM206 640q-24 0 -39 15t-15 40q0 24 15.5 40t38.5 16q24 0 39.5 -15.5t15.5 -40.5q0 -24 -15.5 -39.5t-39.5 -15.5zM397 640
q-24 0 -39 15t-15 40q0 24 15.5 40t38.5 16q24 0 39.5 -15.5t15.5 -40.5q0 -24 -15.5 -39.5t-39.5 -15.5z" />
    <glyph glyph-name="glyph513" horiz-adv-x="0" 
d="M0 829q-26 0 -42 16t-16 43q0 26 16.5 43t41.5 17q26 0 42.5 -16.5t16.5 -43.5q0 -26 -16.5 -42.5t-42.5 -16.5z" />
    <glyph glyph-name="gdotaccent.ss01" horiz-adv-x="661" 
d="M299 -254q-55 0 -107.5 12.5t-79.5 32.5l11 76q34 -21 80.5 -33.5t95.5 -12.5q95 0 141 49t46 150v71q-29 -52 -78.5 -79.5t-112.5 -27.5q-67 0 -121.5 33t-86.5 94t-32 139q0 70 31.5 130.5t89.5 98t129 37.5q57 0 104.5 -28t76.5 -79l2 91h83v-471q0 -140 -68.5 -211.5
t-203.5 -71.5zM317 60q77 0 126 53t49 137t-49 137t-126 53t-126 -53t-49 -137t49 -137t126 -53zM328 635q-26 0 -42 16t-16 43q0 26 16.5 43t41.5 17q26 0 42.5 -16.5t16.5 -43.5q0 -26 -16.5 -42.5t-42.5 -16.5z" />
    <glyph glyph-name="glyph526" horiz-adv-x="0" 
d="M0 818q-55 0 -92.5 35.5t-37.5 88.5t37.5 88.5t92.5 35.5t92.5 -35.5t37.5 -88.5t-37.5 -88.5t-92.5 -35.5zM0 874q31 0 49.5 18.5t18.5 49.5q0 32 -18 50t-50 18t-50 -18t-18 -50q0 -31 18.5 -49.5t49.5 -18.5z" />
    <glyph glyph-name="aring.ss01" horiz-adv-x="661" 
d="M295 -16q-67 0 -121.5 33t-86.5 94t-32 139q0 70 31.5 130.5t89.5 98t129 37.5q57 0 104.5 -28t76.5 -79l2 91h83v-500h-83l-2 91q-29 -52 -78.5 -79.5t-112.5 -27.5zM317 60q77 0 126 53t49 137t-49 137t-126 53t-126 -53t-49 -137t49 -137t126 -53zM328 588
q-55 0 -92.5 35.5t-37.5 88.5t37.5 88.5t92.5 35.5t92.5 -35.5t37.5 -88.5t-37.5 -88.5t-92.5 -35.5zM328 644q31 0 49.5 18.5t18.5 49.5q0 32 -18 50t-50 18t-50 -18t-18 -50q0 -31 18.5 -49.5t49.5 -18.5z" />
    <glyph glyph-name="uring.ss01" horiz-adv-x="604" 
d="M302 -16q-101 0 -158 55t-57 152v309h85v-309q0 -65 33 -98.5t98 -33.5q64 0 96.5 33.5t32.5 98.5v309h85v-309q0 -97 -57 -152t-158 -55zM302 588q-55 0 -92.5 35.5t-37.5 88.5t37.5 88.5t92.5 35.5t92.5 -35.5t37.5 -88.5t-37.5 -88.5t-92.5 -35.5zM302 644
q31 0 49.5 18.5t18.5 49.5q0 32 -18 50t-50 18t-50 -18t-18 -50q0 -31 18.5 -49.5t49.5 -18.5z" />
    </font>
</defs>
</svg>
