
<svg xmlns="http://www.w3.org/2000/svg" version="1.1" xmlns:xlink="http://www.w3.org/1999/xlink" preserveAspectRatio="none" x="0px" y="0px" width="265px" height="245px" viewBox="0 0 265 245">
<defs>
<filter id="Filter_1" x="-20%" y="-20%" width="140%" height="140%" color-interpolation-filters="sRGB">
<feColorMatrix in="SourceGraphic" type="matrix" values="0 0 0 0 1 0 0 0 0 1 0 0 0 0 1 0 0 0 1 0" result="result1"/>
</filter>

<g id="etoile_0_Layer0_0_FILL">
<path fill="#23BEFE" stroke="none" d="
M 167.5 83.35
Q 169.95 82.8 171.45 80.9 173 78.95 173 76.5 172.95 74.05 171.45 72.05 169.85 70.05 167.55 69.45 163.3 68.35 159.4 68.35 144.6 67.85 114.45 67.05 112.1 66.9 109.75 66.6 109.2 66.45 108.8 66.05 108.2 65.4 108.2 64.55 108.2 63.65 108.85 63.05 110.35 61.55 118.25 54.05 135.1 38.25 139.8 33.75 143 30.7 145.25 27.55 146.75 25.6 146.7 23.1 146.65 20.6 145.05 18.75 143.35 16.5 140.55 16.05 137.8 15.6 135.45 17.2 130.9 20.15 127.15 23.8 111.45 39.35 103.55 47.1 102.55 48.3 101.95 48.7 100.9 49.4 99.8 48.5 98.7 47.1 98.85 45.4 99.2 24.85 99.3 14.6 99.4 10.3 98.65 6.35 98.1 3.85 96.4 2.25 94.65 0.5 92.25 0.1 89.5 -0.3 87.15 1.2 84.75 2.65 83.85 5.25 82.3 9.85 82.1 14.5 81.65 22 80.35 48.8 80.1 53.7 80 54.75 79.9 55.25 79.55 55.6 79 56.25 78.1 56.35 77.2 56.4 76.5 55.85 68.6 48.1 64.6 44.3 56.65 36.7 49.9 31.4 41.7 24.95 33.65 20.65 30.25 18.85 29.5 18.6 27.05 17.9 24.95 19.5 22 21.9 26.65 27.85 31.7 34.75 38.05 41.45 41.55 45.05 47.35 50.55 55.1 57.9 56.8 59.55 57.6 60.3 59.3 61.8 60.65 63.35 60.65 65.65
L 54.05 65.95
Q 25.65 67.25 11.5 67.95 6.55 67.7 2.55 70.45 0.3 72.15 0 74.95 -0.25 77.8 1.5 79.85 4 82.5 7.5 83.5 13.15 85.2 19.2 84.75 32.25 84.7 58.25 84.45
L 61.05 84.45
Q 62.7 84.8 63.55 86.85 60.5 89.95 53.95 96.55 46.1 104.8 30.2 121.4 25.3 125.9 23.85 132.55 23.6 134.05 24.15 135.45 24.7 136.85 25.9 137.8 27 138.9 28.5 139.15 30.05 139.35 31.4 138.6 35.9 136 39.95 132.35 46.2 126.5 55.85 117.2 68.95 104.6 71.65 102.05 73.4 100 74.4 99.1 76.2 97.45 78.6 97.45 79.65 100.1 79.5 103.7 79.5 104.2 78.85 110.1 77.7 129.25 79.9 149.2 80 153.5 81.85 157.15 82.6 158.45 83.9 159.25 85.15 160 86.65 160 88.2 160 89.5 159.3 90.8 158.55 91.55 157.3 93.2 154.7 93.9 151.25 94.4 148.8 94.65 144.75
L 96.95 106.9
Q 96.9 104.65 97.35 102.2 97.6 101.2 98.45 100.9 99.3 100.5 100.15 101.1 102 102.25 103.9 103.9 109.9 109.55 119.5 116.75 124.85 120.8 135.6 128.75 138.45 130.85 142.65 133.2 144.15 134.35 146 134.05 147.9 133.8 149 132.3 150.15 130.85 150.1 128.95 150.05 127.1 148.75 125.75 144.8 120.4 140.2 115.9 135.05 110.85 126.45 102.85 115.7 92.8 112.65 89.9 111.15 88.8 110.55 88.05 109.5 86.7 110.15 84.7 114.2 84.6 122.65 84.35
L 158.15 84.45
Q 163.05 84.45 167.5 83.35 Z"/>
</g>
</defs>

<g transform="matrix( 1.52728271484375, 0, 0, 1.52728271484375, 132.1,122.2) ">
<g transform="matrix( 1, 0, 0, 1, -86.45,-80) ">
<use filter="url(#Filter_1)" xlink:href="#etoile_0_Layer0_0_FILL"/>
</g>
</g>
</svg>
