
<svg xmlns="http://www.w3.org/2000/svg" version="1.1" xmlns:xlink="http://www.w3.org/1999/xlink" preserveAspectRatio="none" x="0px" y="0px" width="330px" height="390px" viewBox="0 0 330 390">
<defs>
<filter id="Filter_1" x="-20%" y="-20%" width="140%" height="140%" color-interpolation-filters="sRGB">
<feColorMatrix in="SourceGraphic" type="matrix" values="0 0 0 0 1 0 0 0 0 1 0 0 0 0 1 0 0 0 1 0" result="result1"/>
</filter>

<g id="petits_traits_0_Layer0_0_FILL">
<path fill="#F5F4EF" stroke="none" d="
M 141.7 97.25
Q 140.95 94.45 139 94.45 138 94.4 137.2 95 136.4 95.6 136.1 96.55 135.75 97.75 135.65 99.05
L 135 110.9
Q 135 112.6 135.3 114.3 135.35 114.95 135.75 115.45 136.15 115.95 136.8 116.1 137.55 116.25 138.25 115.9 138.95 115.55 139.25 114.85 139.9 113.45 140.25 111.6
L 141.7 99.8
Q 141.8 98.55 141.7 97.25
M 115.8 95
Q 115 95.6 114.75 96.55 114.35 97.65 114.25 99.05 113.9 105 113.65 110.9 113.6 112.45 113.9 114.3 114 115.8 115.45 116.1 116.2 116.25 116.9 115.9 117.55 115.55 117.9 114.85 118.55 113.4 118.85 111.6 119.8 104.9 120.3 99.8 120.4 98.55 120.3 97.25 119.55 94.45 117.6 94.45 116.65 94.4 115.8 95
M 86 96.85
Q 84.95 93.85 82.8 94 80.55 94.25 80 96.8 79.8 97.75 79.8 98.9
L 79.9 112.55
Q 80 113.8 80.25 114.65 80.45 115.4 81.05 115.9 81.65 116.4 82.45 116.4 83.9 116.4 84.45 115.1 85.15 113.55 85.35 111.8 85.7 107.8 86.2 99.05 86.2 97.8 86 96.85
M 98.3 94.65
Q 97.1 96.2 97.2 98.3
L 97 112.75
Q 97.05 113.8 97.3 114.95 98.1 117.1 99.5 117.1 100.4 117.1 101.1 116.55 101.8 116 102 115.15 102.25 114.3 102.3 113.45
L 103.05 97.7
Q 103.1 96.55 102.7 95.2 102.45 94.5 101.8 94 101.2 93.55 100.45 93.55 99.4 93.45 98.3 94.65 Z"/>
</g>
</defs>

<g transform="matrix( 3.27978515625, -5.02386474609375, 5.02386474609375, 3.27978515625, 164.8,195.05) ">
<g transform="matrix( 1, 0, 0, 1, -110.75,-105.3) ">
<use filter="url(#Filter_1)" xlink:href="#petits_traits_0_Layer0_0_FILL"/>
</g>
</g>
</svg>
