
<svg xmlns="http://www.w3.org/2000/svg" version="1.1" xmlns:xlink="http://www.w3.org/1999/xlink" preserveAspectRatio="none" x="0px" y="0px" width="330px" height="390px" viewBox="0 0 330 390">
<defs>
<filter id="Filter_1" x="-20%" y="-20%" width="140%" height="140%" color-interpolation-filters="sRGB">
<feColorMatrix in="SourceGraphic" type="matrix" values="0 0 0 0 1 0 0 0 0 1 0 0 0 0 1 0 0 0 1 0" result="result1"/>
</filter>

<g id="Mask_decoration_1_svg_Layer_1__Clip_Group__0_2_MASK_0_FILL">
<path fill="#FFFFFF" stroke="none" d="
M 40.95 2.7
L 11.1 0 0 123.6 29.8 126.3 40.95 2.7 Z"/>
</g>

<g id="decoration_1_svg_Layer_1__Clip_Group__0_Layer2_0_MEMBER_0_FILL">
<path fill="#20BEFF" stroke="none" d="
M 22.85 17.25
Q 21.9 17.95 21.5 18.3 20.05 19.75 16 23.55 12.5 26.8 10.5 28.8 8.1 31.15 8.1 33.4 8.15 35.6 10.5 38.05 12.45 40.1 16.75 44 18.05 45.25 20.5 47.8 20.55 48.85 19.8 49.6 19.4 50.05 18.5 50.75 16 53.25 10.85 58.15 9.65 59.2 8.8 60.4 7.7 61.7 7.75 63.45 7.8 65.2 8.9 66.45 10 67.85 11.7 69.4
L 17.9 74.6
Q 18.6 75.2 20.05 76.35 21.3 77.45 21.9 78.75
L 9.75 90.1
Q 8.15 91.55 7 93.05 6.1 94.3 6.1 95.4 6.15 96.45 7.1 97.7 9.05 100.15 11.7 101.65
L 23.7 108.65
Q 23.65 109.45 23.2 110 22.95 110.35 22.25 110.85
L 11.6 119.45
Q 10.35 120.45 10.05 120.75 9.3 121.55 8.95 122.45 8.7 123.2 9.25 123.9 9.75 124.65 10.5 124.5 11.35 124.45 12.4 124 15 122.75 17.2 121.2 23.35 116.45 29.85 111 31.2 109.85 31.35 108.75 31.5 107.75 30.7 106.05 29.75 103.95 27.6 102.85 22.3 99.9 19.7 98.3 17.8 97.3 16.85 96.8 15.15 95.9 14.25 94.95 14.35 94.05 15.1 93.35 16.05 92.65 16.45 92.25 23.4 85.3 26.2 81.25 27.65 79.1 27.7 77.45 27.75 75.45 25.8 72.95 23.8 70.5 20.9 68.55 19.4 67.5 14.9 64 14.85 63.95 14.35 62.95
L 20.65 56.45
Q 25.1 51.8 26.1 50.45 27.7 48.45 27.65 46.75 27.6 45 25.9 43.15 24.45 41.6 18.5 36.25 18.05 35.85 14.7 33.2 14.7 32.45 15.15 31.9 15.75 31.3 16.05 31 22.95 24.5 26.3 21.2 28.3 19.2 29.7 17.4 31.25 15.4 31.2 14 31.15 12.55 29.35 10.75 26.5 7.7 23.3 5.35 19.85 3 15.5 0.75 14.35 0.15 13.35 0.3 12.35 0.4 11.75 1.1 10.3 2.85 12.1 5.3 13.9 7.55 16.2 9.05 20.1 11.75 23.75 15.55 23.65 16.5 22.85 17.25 Z"/>
</g>
</defs>

<g transform="matrix( 3.0548095703125, 1.9045562744140625, -1.9045562744140625, 3.0548095703125, 225.75,-20.75) ">
<mask id="Mask_Mask_1">
<g transform="matrix( 1, 0, 0, 1, 0,0) ">
<use xlink:href="#Mask_decoration_1_svg_Layer_1__Clip_Group__0_2_MASK_0_FILL"/>
</g>
</mask>

<g mask="url(#Mask_Mask_1)">
<g transform="matrix( 1, 0, 0, 1, 0,0) ">
<use filter="url(#Filter_1)" xlink:href="#decoration_1_svg_Layer_1__Clip_Group__0_Layer2_0_MEMBER_0_FILL"/>
</g>
</g>
</g>
</svg>
